<?xml version="1.0" encoding="UTF-8"?>
<svg width="144px" height="88px" viewBox="0 0 144 88" version="1.1" xmlns="http://www.w3.org/2000/svg" xmlns:xlink="http://www.w3.org/1999/xlink">
    <!-- Generator: Sketch 48.2 (47327) - http://www.bohemiancoding.com/sketch -->
    <title>alt_spacing</title>
    <desc>Created with Sketch.</desc>
    <defs>
        <polygon id="path-1" points="3.76270607e-16 29.84607 3.76270607e-16 0.166699313 13.0528543 0.166699313 13.0528543 29.84607"></polygon>
    </defs>
    <g id="quality" stroke="none" stroke-width="1" fill="none" fill-rule="evenodd" transform="translate(-216.000000, -935.000000)">
        <g id="alt_spacing" transform="translate(215.000000, 934.500000)">
            <g id="Group-7" transform="translate(0.500000, 0.812500)">
                <rect id="Rectangle-4" fill="#7DCBB5" x="0.5" y="0" width="144" height="87" rx="2"></rect>
                <g id="Page-1-Copy" transform="translate(16.500000, 16.000000)">
                    <g id="Group-3" transform="translate(0.000000, 6.925706)">
                        <mask id="mask-2" fill="white">
                            <use xlink:href="#path-1"></use>
                        </mask>
                        <g id="Clip-2"></g>
                        <path d="M4.54459694,3.765518 C4.15279007,3.39185033 3.95688663,2.86037157 3.95688663,2.17470954 C3.95688663,1.55434866 4.15279007,1.06459006 4.54459694,0.705433764 C4.93640382,0.346277463 5.47513827,0.166699313 6.1608003,0.166699313 C6.77934726,0.166699313 7.27998937,0.346277463 7.65547096,0.705433764 C8.02913863,1.06459006 8.21778638,1.55434866 8.21778638,2.17470954 C8.21778638,2.86037157 8.03820823,3.39185033 7.67905193,3.765518 C7.31808171,4.14099959 6.81381175,4.32964734 6.1608003,4.32964734 C5.47513827,4.32964734 4.93640382,4.14099959 4.54459694,3.765518 M5.79257439,28.8665528 C5.32095501,28.2135413 5.09965668,27.2485355 5.13230725,25.9769771 L5.27923483,14.8594571 C5.3118854,12.9330733 4.8384521,11.9680674 3.85893492,11.9680674 C3.07532117,11.9680674 1.98152698,12.7534951 0.575738433,14.3189087 C0.510437288,14.3860238 0.463275349,14.4186743 0.430624776,14.4186743 C0.300022485,14.4186743 0.185745481,14.3624428 0.0877937623,14.2463519 C-0.010157956,14.1338888 -0.0264832424,14.0268675 0.0388179032,13.9289157 C1.01833509,12.6228928 1.93255112,11.6524452 2.78146602,11.0139452 C3.63038091,10.3790729 4.51013245,10.0598229 5.42616241,10.0598229 C6.33856453,10.0598229 7.00790127,10.3700033 7.43417263,10.9885503 C7.85863008,11.6107251 8.0708588,12.5575917 8.0708588,13.830964 L7.92393123,25.0446218 C7.92393123,26.940169 8.38103924,27.8870356 9.29525528,27.8870356 C10.1097057,27.8870356 11.1563379,27.1360724 12.4297103,25.6341461 C12.4605469,25.6014955 12.5113367,25.5833563 12.5766378,25.5833563 C12.7072401,25.5833563 12.8287728,25.6432157 12.9448637,25.7556788 C13.0573268,25.8717697 13.0827217,25.9606518 13.0174206,26.024139 C12.0052528,27.3319759 11.1073621,28.2951677 10.3237483,28.9155286 C9.54013458,29.5340756 8.72387026,29.84607 7.87495537,29.84607 C6.96073933,29.84607 6.2660077,29.5177503 5.79257439,28.8665528" id="Fill-1" fill="#FFFFFF" mask="url(#mask-2)"></path>
                    </g>
                    <path d="M40.957604,27.2450649 C41.3004351,28.4694614 41.781124,29.5886504 42.4032988,30.6008182 C43.2522137,28.8050367 43.6766712,26.6500989 43.6766712,24.1360048 C43.6766712,21.4913084 43.1197975,20.1689602 42.011492,20.1689602 C41.4546183,20.1689602 41.0555558,20.5027216 40.8106765,21.1720583 C40.5657972,21.8413951 40.4442645,22.6340784 40.4442645,23.5482945 C40.4442645,24.7890162 40.6165869,26.0206684 40.957604,27.2450649 Z M53.0800361,16.9347396 C53.0800361,16.9347396 53.381147,17.7292368 53.9869965,19.3109757 C54.5892182,20.8963424 54.8921429,22.7157049 54.8921429,24.772691 C54.8921429,27.1561828 54.5003361,29.27847 53.7149084,31.1377387 C52.9331086,33.0006353 51.9281965,34.4372605 50.7038,35.4476143 C49.4794035,36.4597821 48.2314261,36.965866 46.9580537,36.965866 C46.0093732,36.965866 45.0951572,36.6647551 44.2154056,36.0607195 C43.3338402,35.4566839 42.5665517,34.6150247 41.9117263,33.5393697 C41.0319748,34.6150247 40.0687829,35.4566839 39.0239646,36.0607195 C37.9773323,36.6647551 36.9161887,36.965866 35.8405337,36.965866 C34.0102877,36.965866 32.5591512,36.3309937 31.4798683,35.0576214 C30.4042134,33.7824351 29.8654789,32.0864193 29.8654789,29.964132 C29.8654789,28.9193137 30.0033369,27.8255195 30.2808667,26.6809355 C30.5583966,25.5399794 30.9574592,24.1849806 31.4798683,22.6177532 L31.9714409,21.1484774 C32.0693926,20.8872728 32.1183684,20.6750441 32.1183684,20.5117912 C32.1183684,20.1199843 31.8408386,19.9240809 31.2857788,19.9240809 L28.445179,19.9240809 C27.4964985,19.9240809 26.8035807,19.9803124 26.362798,20.0964034 C25.9220153,20.2088665 25.6027652,20.4374205 25.4086757,20.7820654 C25.2109584,21.1230825 25.0477055,21.6872118 24.9171032,22.4708256 C24.9171032,22.5687773 24.8354768,22.6177532 24.6722239,22.6177532 C24.5416216,22.6177532 24.4364142,22.5851026 24.3547878,22.5198014 C24.2749753,22.4545003 24.2495804,22.3710599 24.282231,22.2749221 C24.5760861,20.7403452 24.8445464,19.6538067 25.0894257,19.0171205 C25.334305,18.3804344 25.7188562,17.9487212 26.2412653,17.7201672 C26.7636745,17.4916132 27.5781249,17.3773362 28.6882444,17.3773362 L33.4896925,17.3773362 C33.8143843,17.3773362 34.003032,17.4099868 34.0520079,17.4752879 C34.1009838,17.5405891 34.0774028,17.703842 33.9776372,17.9650465 C33.4896925,19.7263635 33.1142109,21.4913084 32.8511924,23.2544393 C32.5918017,25.0157563 32.4757108,26.5684725 32.5101753,27.9071459 C32.5101753,30.2579872 32.9255631,31.9793979 33.7581527,33.0731921 C34.5907424,34.1669863 35.6591417,34.7147904 36.9669785,34.7147904 C38.6629943,34.7147904 40.0996195,33.9475019 41.2768541,32.412925 C40.1649207,30.0947343 39.6116749,27.3520862 39.6116749,24.1849806 C39.6116749,22.1279946 39.8474846,20.4374205 40.3209179,19.1168862 C40.7943512,17.7927241 41.4890828,17.1324569 42.4032988,17.1324569 C43.1869126,17.1324569 43.8235988,17.6204016 44.3133574,18.5999188 C44.8031159,19.579436 45.0479952,21.0831762 45.0479952,23.1075117 C45.0479952,26.3399184 44.3949838,29.1787044 43.0889609,31.6293112 C44.5255861,33.555695 46.1254641,34.5188869 47.8867812,34.5188869 C48.8354617,34.5188869 49.7406081,34.2177761 50.6058483,33.6137405 C51.4710885,33.0097049 52.1748897,32.1118141 52.7118102,30.9182543 C53.2505447,29.7265084 53.5208189,28.3152781 53.5208189,26.6809355 C53.5208189,25.0157563 53.26687,23.7206169 52.7607861,22.7882617 C52.2547022,21.8577204 51.5926212,21.0015498 50.7781708,20.2179361 C50.3537133,19.8914303 50.0253937,19.579436 49.7986536,19.2855808 C49.5682856,18.9935396 49.4558226,18.6670339 49.4558226,18.3078775 C49.4558226,17.8507695 49.6335868,17.5079385 49.9927431,17.2793845 C50.3537133,17.0508305 50.7781708,16.9347396 51.2679294,16.9347396 L53.0800361,16.9347396 Z" id="Fill-4" fill="#FFFFFF"></path>
                    <path d="M72.4249563,33.7833421 C73.4697747,32.4464825 73.9921838,30.6343757 73.9921838,28.3470217 C73.9921838,26.5838908 73.6892591,24.9023863 73.0852235,23.3043221 C72.4811879,21.7044441 71.632273,20.4129325 70.5384788,19.4334153 C69.4446846,18.4538982 68.2130324,17.9641396 66.8417084,17.9641396 C65.2418303,17.9641396 63.9031568,18.618965 62.8256879,19.9231739 C61.748219,21.2291969 61.2076707,23.0249784 61.2076707,25.3105184 C61.2076707,27.0409988 61.5178511,28.7152476 62.1400259,30.331451 C62.7603868,31.9476543 63.623813,33.2627468 64.7357464,34.2749146 C65.844052,35.2852684 67.0865877,35.7913523 68.4560978,35.7913523 C70.0559759,35.7913523 71.380138,35.1220156 72.4249563,33.7833421 M62.5572277,35.7677713 C61.2983667,34.9351817 60.3279191,33.8014813 59.6422571,32.3648561 C58.9565951,30.9282309 58.613764,29.3102136 58.613764,27.5144321 C58.613764,25.4919105 59.0200823,23.6634784 59.8381605,22.0309498 C60.6544248,20.3966072 61.7881253,19.1159792 63.2428897,18.183624 C64.6940263,17.2548966 66.3501359,16.788719 68.2130324,16.788719 C70.694476,16.788719 72.7097419,17.6140529 74.262458,19.2629068 C75.8115463,20.9117607 76.5879044,23.1882312 76.5879044,26.0959461 C76.5879044,28.3143711 76.1471216,30.2588941 75.2637422,31.9240734 C74.3839907,33.5892526 73.2085701,34.8535553 71.7392943,35.7169816 C70.2700185,36.5840357 68.6846518,37.0157488 66.988636,37.0157488 C65.2889923,37.0157488 63.8124608,36.6003609 62.5572277,35.7677713" id="Fill-6" fill="#FFFFFF"></path>
                    <path d="M93.3363784,33.7833421 C94.3811968,32.4464825 94.9036059,30.6343757 94.9036059,28.3470217 C94.9036059,26.5838908 94.6006812,24.9023863 93.9966456,23.3043221 C93.39261,21.7044441 92.5436951,20.4129325 91.4499009,19.4334153 C90.3561067,18.4538982 89.1244546,17.9641396 87.7531305,17.9641396 C86.1532524,17.9641396 84.8145789,18.618965 83.73711,19.9231739 C82.6596411,21.2291969 82.1190928,23.0249784 82.1190928,25.3105184 C82.1190928,27.0409988 82.4292732,28.7152476 83.051448,30.331451 C83.6718089,31.9476543 84.5352352,33.2627468 85.6471686,34.2749146 C86.7554741,35.2852684 87.9980098,35.7913523 89.3675199,35.7913523 C90.967398,35.7913523 92.2915601,35.1220156 93.3363784,33.7833421 M83.4686498,35.7677713 C82.2097888,34.9351817 81.2393412,33.8014813 80.5536792,32.3648561 C79.8680172,30.9282309 79.5251862,29.3102136 79.5251862,27.5144321 C79.5251862,25.4919105 79.9315044,23.6634784 80.7495826,22.0309498 C81.565847,20.3966072 82.6995474,19.1159792 84.1543118,18.183624 C85.6054484,17.2548966 87.261558,16.788719 89.1244546,16.788719 C91.6058981,16.788719 93.621164,17.6140529 95.1738801,19.2629068 C96.7229684,20.9117607 97.4993265,23.1882312 97.4993265,26.0959461 C97.4993265,28.3143711 97.0585437,30.2588941 96.1751643,31.9240734 C95.2954128,33.5892526 94.1199922,34.8535553 92.6507164,35.7169816 C91.1814406,36.5840357 89.5960739,37.0157488 87.9000581,37.0157488 C86.2004144,37.0157488 84.7238829,36.6003609 83.4686498,35.7677713" id="Fill-8" fill="#FFFFFF"></path>
                    <g id="Group-12" transform="translate(97.951718, 0.661174)" fill="#FFFFFF">
                        <path d="M5.66940918,35.1309038 C5.17965058,34.4778923 4.95109658,33.5128865 4.98374715,32.2413281 L5.2776023,5.35358141 C5.2776023,4.56996767 5.1633253,3.98951304 4.93477129,3.61403145 C4.70621728,3.24036379 4.31441041,3.04990211 3.75935067,3.04990211 C3.20429093,3.04990211 2.38802661,3.29659533 1.31237163,3.78635392 L1.21260599,3.83532978 C1.11465428,3.83532978 1.03302784,3.75370335 0.967726698,3.59045048 C0.902425553,3.42719762 0.936890046,3.31292062 1.06567842,3.24761947 L7.38356425,0.162140344 L7.48151596,0.162140344 C7.61211826,0.162140344 7.73546486,0.211116204 7.84974187,0.309067922 C7.96401887,0.405205719 8.02025042,0.488646072 8.02025042,0.553947218 L7.77537112,31.3107868 C7.77537112,32.2903039 7.88964812,33.0086165 8.12001605,33.4657246 C8.34675614,33.9228326 8.70591244,34.1513866 9.19567103,34.1513866 C10.0119354,34.1513866 11.0404284,33.4004234 12.2829641,31.8984971 C12.3138007,31.8658465 12.3609627,31.8477073 12.4298917,31.8477073 C12.55868,31.8477073 12.6802127,31.9075667 12.7963036,32.0200298 C12.9087667,32.1361207 12.9341616,32.2250028 12.8688605,32.2903039 C11.8566927,33.5963269 10.9678716,34.5613327 10.2005831,35.1798796 C9.43148073,35.7984266 8.62428601,36.110421 7.77537112,36.110421 C6.86115508,36.110421 6.16098169,35.7821013 5.66940918,35.1309038" id="Fill-10"></path>
                    </g>
                    <path d="M63.0877995,44.1743869 C62.8048278,44.6097278 62.6524585,45.177485 62.6306915,45.8740306 C64.3829389,45.5783615 65.2590626,45.01786 65.2590626,44.1925261 C65.2590626,43.9748556 65.1774361,43.8079749 65.0141833,43.691884 C64.8509304,43.5794209 64.6278182,43.5231893 64.3448465,43.5231893 C63.7897868,43.5231893 63.3707711,43.7408598 63.0877995,44.1743869 Z M66.7773142,48.6964912 C66.8099648,48.6964912 66.8444293,48.7128165 66.8843355,48.747281 C66.9206139,48.7781176 66.9296835,48.8125821 66.9061026,48.8434188 C66.1896039,49.4746632 65.3896649,49.7920993 64.5080994,49.7920993 C63.898622,49.7920993 63.3762129,49.6506135 62.9408719,49.3658279 C62.5055309,49.0828563 62.1790252,48.7073747 61.9613547,48.2393832 C61.7436842,47.7713916 61.634849,47.2707495 61.634849,46.7374568 C61.634849,46.1062124 61.7817766,45.5112464 62.0756317,44.9507449 C62.3694869,44.3902434 62.7739912,43.9385772 63.2909586,43.5957462 C63.807926,43.2529151 64.3938224,43.0805927 65.0468338,43.0805927 C65.4821748,43.0805927 65.8231919,43.1585913 66.0680712,43.3164024 C66.3111366,43.4760274 66.4344832,43.69007 66.4344832,43.9621581 C66.4235997,44.4410332 66.0535598,44.880002 65.3243637,45.2754367 C64.5951676,45.6744993 63.6972768,45.9502152 62.6306915,46.1007707 C62.6524585,47.0476373 62.8737568,47.80767 63.2909586,48.3772411 C63.7117882,48.9504401 64.3067542,49.2352256 65.0794844,49.2352256 C65.362456,49.2352256 65.6508694,49.1935055 65.9447246,49.1064373 C66.2385797,49.0175552 66.5052261,48.883325 66.7446636,48.6964912 L66.7773142,48.6964912 Z" id="Fill-13" fill="#FFFFFF"></path>
                    <path d="M68.1805633,49.4637796 C67.8123374,49.2588066 67.6255035,49.0121134 67.6255035,48.7309557 C67.6255035,48.5894699 67.6726655,48.4824485 67.7651754,48.4117056 C67.8576854,48.3409627 67.9701485,48.3046843 68.0989368,48.3046843 C68.2186556,48.3046843 68.3220491,48.3409627 68.4091173,48.4117056 C68.4979994,48.4824485 68.5959511,48.5894699 68.7029724,48.7309557 C68.8898063,48.9595097 69.0657566,49.1282043 69.2344512,49.2442952 C69.4031458,49.3567583 69.6353277,49.4166177 69.9291828,49.4166177 C70.244805,49.4166177 70.4842426,49.3349913 70.6456815,49.1699245 C70.8089344,49.0066716 70.8905608,48.7726759 70.8905608,48.4679372 C70.8796773,48.0652468 70.7472611,47.7278575 70.4914982,47.4575833 C70.2357354,47.1836813 69.8584399,46.8898262 69.3559839,46.574204 C68.8553418,46.2585818 68.4780463,45.9647266 68.2222834,45.6926385 C67.9665206,45.4205504 67.8395462,45.0886029 67.8395462,44.696796 C67.8395462,44.2288045 68.0517749,43.851509 68.4744184,43.5630956 C68.8988759,43.2746822 69.3777509,43.1295685 69.9110436,43.1295685 C70.3463846,43.1295685 70.725494,43.209381 71.046558,43.3671921 C71.3676219,43.5250032 71.5290609,43.7227206 71.5290609,43.9621581 C71.5290609,44.0927604 71.4837129,44.1979678 71.3966447,44.2741525 C71.3113904,44.3503372 71.2007412,44.3866156 71.0719529,44.3866156 C70.9304671,44.3866156 70.8125622,44.3575929 70.7200523,44.2959195 C70.6275423,44.2378741 70.5096375,44.1362945 70.3681516,43.9948087 C70.2048988,43.8333698 70.0470877,43.7063953 69.8947183,43.6193271 C69.742349,43.5322589 69.5464456,43.4887248 69.307008,43.4887248 C69.0675705,43.4887248 68.8807367,43.5431425 68.7446926,43.6519777 C68.6086485,43.7608129 68.5397196,43.9295076 68.5397196,44.1580616 C68.5397196,44.4736838 68.6630662,44.7602833 68.9079455,45.0160461 C69.1528248,45.269995 69.513795,45.5638501 69.99267,45.8885419 C70.5386602,46.2694653 70.9449784,46.6014128 71.2188804,46.8843844 C71.4891546,47.167356 71.6251987,47.512001 71.6251987,47.9146914 C71.6251987,48.2176161 71.5363166,48.5150991 71.3567384,48.8035125 C71.1771603,49.0919259 70.9213975,49.3259217 70.58945,49.5036859 C70.2575025,49.685078 69.880207,49.7739601 69.4539356,49.7739601 C68.9750605,49.7739601 68.5506031,49.6705666 68.1805633,49.4637796" id="Fill-15" fill="#FFFFFF"></path>
                    <path d="M77.7887199,43.3506855 C77.8159287,43.3778943 77.8249983,43.4123588 77.8141148,43.4577068 C77.8141148,43.5756116 77.7542554,43.7152835 77.6417923,43.8730946 C77.5257014,44.0309057 77.4041687,44.0980208 77.2735664,44.0762538 L76.8654342,44.0272779 C76.0074497,43.9184426 75.2437891,43.8585833 74.5798941,43.8476997 L74.5653828,47.8981847 C74.5526853,48.3317117 74.6343118,48.6545896 74.8084481,48.8595627 C74.9825845,49.0663496 75.2601144,49.1697431 75.6410377,49.1697431 C75.9367068,49.1697431 76.1960975,49.1189533 76.4246515,49.0155598 C76.6532055,48.9121664 76.892643,48.7616109 77.144778,48.5657075 L77.1592894,48.5657075 C77.2028235,48.5657075 77.2409158,48.5856606 77.2735664,48.623753 C77.306217,48.6618453 77.306217,48.6854263 77.2735664,48.6963098 C76.8491089,49.0881167 76.4645577,49.3692744 76.1144711,49.537969 C75.7661983,49.7066636 75.4124837,49.7919179 75.0533274,49.7919179 C74.652451,49.7919179 74.3114339,49.6812687 74.033904,49.4635983 C73.7545602,49.2459278 73.622144,48.8940272 73.6330275,48.4024546 L73.6493528,44.5986629 C73.6384693,44.3156913 73.6167022,44.11616 73.5858656,43.9946273 C73.5514011,43.8749086 73.484286,43.79691 73.3790786,43.7588176 C73.2774991,43.7207253 73.0997348,43.7007722 72.8494138,43.7007722 C72.8167632,43.7007722 72.8004379,43.6699355 72.8004379,43.6046344 C72.8004379,43.5393332 72.8113214,43.5048687 72.8349024,43.5048687 C73.2466624,43.5048687 73.5822377,43.3887778 73.8361866,43.154782 C74.0937634,42.9207863 74.2425049,42.6196754 74.286039,42.2496356 C74.286039,42.2151711 74.3368288,42.1988458 74.4329666,42.1988458 C74.5309183,42.1988458 74.5798941,42.2151711 74.5798941,42.2496356 L74.5798941,43.4722182 C75.1458374,43.4631486 76.1797722,43.406917 77.6816985,43.3107792 C77.7252326,43.3107792 77.7596971,43.3234767 77.7887199,43.3506855" id="Fill-17" fill="#FFFFFF"></path>
                    <path d="M78.4495312,49.5789636 C78.3207428,49.4483613 78.2554417,49.2742249 78.2554417,49.0565545 C78.2554417,48.8497675 78.3207428,48.6865146 78.4495312,48.5649819 C78.5801335,48.4470771 78.7542699,48.3872177 78.9719403,48.3872177 C79.2004944,48.3872177 79.3782586,48.4470771 79.5034191,48.5649819 C79.6267657,48.6865146 79.6920669,48.8497675 79.6920669,49.0565545 C79.6920669,49.2742249 79.6267657,49.4483613 79.5034191,49.5789636 C79.3782586,49.7095659 79.2004944,49.7730531 78.9719403,49.7730531 C78.7542699,49.7730531 78.5801335,49.7095659 78.4495312,49.5789636" id="Fill-19" fill="#FFFFFF"></path>
                    <path d="M87.21621,47.4320071 C87.7386191,46.9368067 88.1141007,46.4923961 88.3426547,46.1024032 C88.5712087,45.7105963 88.6872997,45.3169755 88.6872997,44.9251686 C88.6872997,44.4916416 88.5512556,44.1342992 88.2864232,43.8567693 C88.0179629,43.5792395 87.673318,43.4413815 87.2506745,43.4413815 C86.3890621,43.4413815 85.7687012,44.11616 85.3877779,45.4639031 C85.3877779,45.4766005 85.3660108,45.4820423 85.3224767,45.4820423 C85.224525,45.4820423 85.1809909,45.4584613 85.1936884,45.4167412 L85.8285606,42.9352976 C85.8285606,42.9135306 85.8503277,42.9008331 85.8938618,42.9008331 C85.9265123,42.9008331 85.957349,42.9099027 85.9845578,42.926228 C86.0117666,42.9407394 86.0190223,42.9552508 86.0081388,42.9661343 C85.9972552,43.0096684 85.9918135,43.0713417 85.9918135,43.1475263 C85.9918135,43.3198488 86.0734399,43.406917 86.2366928,43.406917 C86.3364584,43.406917 86.4978974,43.3706386 86.7264514,43.2944539 C87.1744898,43.1529681 87.5699245,43.0822252 87.9200112,43.0822252 C88.473257,43.0822252 88.9122258,43.2309667 89.2332898,43.5302636 C89.5543538,43.8295605 89.7139788,44.2195535 89.7139788,44.6966146 C89.7139788,45.077538 89.5924461,45.4584613 89.3475668,45.8393847 C89.1026875,46.220308 88.7435312,46.6266263 88.2700979,47.0565255 C87.7966646,47.4864247 87.1345835,48.0269731 86.2856686,48.6799845 C86.2421345,48.7126351 86.2294371,48.7416578 86.2457624,48.7616109 C86.2620877,48.783378 86.2965522,48.7942615 86.3509698,48.7942615 C87.5499714,48.7942615 88.382561,48.7779362 88.8487386,48.7470996 C89.3167301,48.7126351 89.6559333,48.6255669 89.8609064,48.4840811 C90.0676933,48.3444092 90.2091791,48.0922742 90.2853638,47.7331179 C90.2853638,47.7113509 90.3125726,47.7004673 90.3669902,47.7004673 C90.4431749,47.7004673 90.4830812,47.7167926 90.4830812,47.7512571 L90.2363879,49.4164363 C90.2363879,49.4581565 90.2236905,49.4998767 90.1964817,49.537969 C90.1692729,49.5760613 90.1329945,49.5942005 90.0894604,49.5942005 L85.1120619,49.5942005 C85.0576443,49.5942005 85.0122963,49.5651778 84.9814597,49.5053184 C84.9469952,49.4454591 84.9524369,49.3928553 84.995971,49.3511352 C85.9555351,48.5657075 86.6938008,47.9272074 87.21621,47.4320071" id="Fill-21" fill="#FFFFFF"></path>
                    <path d="M96.5285161,48.7871872 C96.8622775,48.2593363 97.0255304,47.5428376 97.0255304,46.6395051 C97.0255304,45.5529666 96.806046,44.7258188 96.3652632,44.1580616 C95.9244805,43.5939322 95.3712347,43.3091467 94.7091536,43.3091467 C94.0670257,43.3091467 93.5627557,43.5812348 93.1981577,44.1272249 C92.8335596,44.6695872 92.6503536,45.3824581 92.6503536,46.2640235 C92.6503536,47.2344711 92.8680241,48.0271544 93.305179,48.6475153 C93.74052,49.2696901 94.3227885,49.5798706 95.0519846,49.5798706 C95.7049961,49.5798706 96.1965686,49.3150382 96.5285161,48.7871872 M93.1509957,49.3658279 C92.6430979,49.0719728 92.2476632,48.6674685 91.9574359,48.1486871 C91.6690225,47.6335337 91.5257228,47.0476373 91.5257228,46.3964397 C91.5257228,45.7524979 91.6690225,45.1829268 91.9574359,44.6804707 C92.2476632,44.1798286 92.6449119,43.7880218 93.1582514,43.5050501 C93.6697771,43.2238924 94.2447899,43.0805927 94.8887318,43.0805927 C95.5181623,43.0805927 96.0859194,43.2257063 96.5865616,43.5141197 C97.0872037,43.8025331 97.4753827,44.2034096 97.7529126,44.7131213 C98.0304424,45.224647 98.1683004,45.8014737 98.1683004,46.4436017 C98.1683004,47.0875435 98.0286285,47.6625564 97.7456569,48.174082 C97.4626853,48.6856077 97.0708784,49.0864841 96.5684224,49.3748975 C96.0695942,49.661497 95.5036509,49.8066107 94.8724065,49.8066107 C94.2284646,49.8066107 93.6552657,49.6596831 93.1509957,49.3658279" id="Fill-23" fill="#FFFFFF"></path>
                    <path d="M99.5895073,49.4975186 C99.5895073,49.4322174 99.6058326,49.3977529 99.6384832,49.3977529 C100.106475,49.3977529 100.45112,49.372358 100.666976,49.3161265 C100.884647,49.2635228 101.035202,49.1583154 101.116829,49.0005043 C101.198455,48.8426932 101.238361,48.5996278 101.238361,48.2731221 L101.238361,45.2348049 C101.238361,44.8230449 101.212966,44.5328176 101.156735,44.362309 C101.102317,44.1936144 100.98804,44.1083601 100.813904,44.1083601 C100.618,44.1083601 100.220752,44.2444042 99.6239718,44.5183062 L99.6058326,44.5183062 C99.5622985,44.5183062 99.5296479,44.4910974 99.5078809,44.4366798 C99.4861138,44.3822622 99.4969973,44.3496116 99.5423454,44.3369142 L102.00565,43.1469822 C102.016533,43.1360986 102.032858,43.128843 102.054626,43.128843 C102.087276,43.128843 102.116299,43.1433543 102.136252,43.1723771 C102.158019,43.197772 102.168903,43.2286086 102.168903,43.2612592 L102.168903,48.2731221 C102.168903,48.6105113 102.203367,48.8553906 102.27411,49.0059461 C102.346667,49.1583154 102.49178,49.2635228 102.707637,49.3161265 C102.925307,49.372358 103.27358,49.3977529 103.752455,49.3977529 C103.785106,49.3977529 103.801431,49.4322174 103.801431,49.4975186 C103.801431,49.5628197 103.785106,49.5954703 103.752455,49.5954703 C103.395113,49.5954703 103.110327,49.5900285 102.90354,49.579145 L101.695469,49.5628197 L100.503723,49.579145 C100.29875,49.5900285 100.008523,49.5954703 99.6384832,49.5954703 C99.6058326,49.5954703 99.5895073,49.5628197 99.5895073,49.4975186" id="Fill-25" fill="#FFFFFF"></path>
                    <g id="Group-29" transform="translate(104.384631, 42.381350)" fill="#FFFFFF">
                        <path d="M2.30637601,10.9937865 C2.25377231,11.0409484 2.18302941,11.0989939 2.09596121,11.164295 L1.26337161,11.7030295 C1.23979064,11.7120991 1.21258183,11.7030295 1.18174517,11.6703789 C1.14728068,11.6377283 1.13639716,11.6105195 1.14728068,11.5887525 L5.50794607,1.85888178 C5.53878272,1.78269711 5.51338783,1.74460477 5.42631963,1.74460477 C3.81374412,1.74460477 2.69636897,1.76637182 2.07056632,1.81171984 C1.44294976,1.85344001 1.02756191,1.94594997 0.822588875,2.08743578 C0.613987993,2.2289216 0.456176891,2.48649834 0.349155569,2.85472424 C0.3255746,2.87649129 0.30017971,2.88737482 0.265715217,2.88737482 C0.233064644,2.88737482 0.204041913,2.87830521 0.176833102,2.86379385 C0.149624291,2.84746856 0.142368609,2.82751543 0.153252133,2.80574839 L0.724637156,0.471232433 C0.735520681,0.451279305 0.771799095,0.442209702 0.83710024,0.447651464 C0.904215306,0.451279305 0.929610196,0.465790671 0.918726672,0.48755772 C0.907843148,0.531091817 0.904215306,0.585509438 0.904215306,0.650810583 C0.904215306,0.759645826 0.955005086,0.830388734 1.05839857,0.863039306 C1.16179205,0.895689879 1.37039293,0.912015166 1.68601513,0.912015166 L6.01402994,0.912015166 C6.05575012,0.912015166 6.0974703,0.935596135 6.13556263,0.984571994 C6.17365497,1.03536177 6.18272457,1.08070979 6.1591436,1.12424389 L2.43697831,10.7724881 C2.40614165,10.8704399 2.36079364,10.9448106 2.30637601,10.9937865" id="Fill-27"></path>
                    </g>
                    <path d="M17.9186343,28.3965417 C17.5268275,28.0228741 17.330924,27.4913953 17.330924,26.8057333 C17.330924,26.1853724 17.5268275,25.6956138 17.9186343,25.3364575 C18.3104412,24.9773012 18.8491757,24.7977231 19.5348377,24.7977231 C20.1533846,24.7977231 20.6540268,24.9773012 21.0295083,25.3364575 C21.403176,25.6956138 21.5918238,26.1853724 21.5918238,26.8057333 C21.5918238,27.4913953 21.4122456,28.0228741 21.0530893,28.3965417 C20.6921191,28.7720233 20.1878491,28.9606711 19.5348377,28.9606711 C18.8491757,28.9606711 18.3104412,28.7720233 17.9186343,28.3965417" id="Fill-30" fill="#FFFFFF"></path>
                </g>
            </g>
        </g>
    </g>
</svg>