<?xml version="1.0" encoding="UTF-8"?>
<svg width="146px" height="89px" viewBox="0 0 146 89" version="1.1" xmlns="http://www.w3.org/2000/svg" xmlns:xlink="http://www.w3.org/1999/xlink">
    <!-- Generator: Sketch 48.2 (47327) - http://www.bohemiancoding.com/sketch -->
    <title>alt-dark-logo</title>
    <desc>Created with Sketch.</desc>
    <defs>
        <polygon id="path-1" points="3.79630166e-16 30.1125527 3.79630166e-16 0.1681877 13.1693977 0.1681877 13.1693977 30.1125527"></polygon>
    </defs>
    <g id="quality" stroke="none" stroke-width="1" fill="none" fill-rule="evenodd" transform="translate(-412.000000, -934.000000)">
        <g id="alt-dark-logo" transform="translate(412.000000, 934.000000)">
            <g id="Group-6" transform="translate(0.000000, 0.125000)">
                <rect id="Rectangle-4" fill="#2E464F" x="0.5" y="0" width="145" height="88" rx="2"></rect>
                <g id="Page-1-Copy" transform="translate(16.500000, 16.500000)">
                    <g id="Group-3" transform="translate(0.000000, 6.987543)">
                        <mask id="mask-2" fill="white">
                            <use xlink:href="#path-1"></use>
                        </mask>
                        <g id="Clip-2"></g>
                        <path d="M4.5851737,3.7991387 C4.18986855,3.42213471 3.99221598,2.8859106 3.99221598,2.19412659 C3.99221598,1.56822677 4.18986855,1.07409533 4.5851737,0.71173228 C4.98047885,0.349369226 5.52402343,0.1681877 6.21580744,0.1681877 C6.83987714,0.1681877 7.34498928,0.349369226 7.72382338,0.71173228 C8.10082736,1.07409533 8.29115947,1.56822677 8.29115947,2.19412659 C8.29115947,2.8859106 8.10997795,3.42213471 7.74761489,3.7991387 C7.38342172,4.1779728 6.87464936,4.36830491 6.21580744,4.36830491 C5.52402343,4.36830491 4.98047885,4.1779728 4.5851737,3.7991387 M5.84429381,29.1242899 C5.36846353,28.4654479 5.14518933,27.491826 5.17813143,26.2089144 L5.32637086,14.9921308 C5.35931295,13.0485471 4.88165256,12.0749252 3.89338969,12.0749252 C3.10277939,12.0749252 1.99921919,12.8673656 0.580878955,14.4467561 C0.514994763,14.5144704 0.467411736,14.5474125 0.43446964,14.5474125 C0.302701257,14.5474125 0.187403922,14.4906789 0.0885776352,14.3735514 C-0.010248652,14.2600842 -0.0267196999,14.1521073 0.0391644916,14.0532811 C1.02742736,12.7355972 1.94980604,11.7564849 2.80630053,11.1122839 C3.66279502,10.4717432 4.55040149,10.1496427 5.47461029,10.1496427 C6.39515885,10.1496427 7.07047181,10.4625926 7.50054918,11.0866623 C7.92879642,11.7143923 8.14292004,12.669713 8.14292004,13.9544548 L7.99468061,25.2682345 C7.99468061,27.1807062 8.45586995,28.136027 9.37824863,28.136027 C10.1999709,28.136027 11.2559481,27.3783588 12.5406898,25.8630224 C12.5718018,25.8300803 12.6230451,25.8117791 12.6889293,25.8117791 C12.8206976,25.8117791 12.9433154,25.872173 13.0604429,25.9856402 C13.1739101,26.1027676 13.1995317,26.1924433 13.1336475,26.2564974 C12.1124426,27.5760114 11.2065349,28.5478032 10.4159246,29.173703 C9.62531435,29.7977727 8.80176196,30.1125527 7.94526747,30.1125527 C7.02288879,30.1125527 6.32195419,29.7813016 5.84429381,29.1242899" id="Fill-1" fill="#FFFFFF" mask="url(#mask-2)"></path>
                    </g>
                    <path d="M41.3232969,27.4883244 C41.6691889,28.723653 42.1541698,29.8528348 42.7818997,30.8740398 C43.6383942,29.0622245 44.0666415,26.8880462 44.0666415,24.3515048 C44.0666415,21.6831951 43.5047957,20.3490402 42.3865946,20.3490402 C41.8247488,20.3490402 41.4221232,20.6857816 41.1750575,21.3610946 C40.9279918,22.0364075 40.805374,22.8361684 40.805374,23.7585471 C40.805374,25.0103467 40.979235,26.2529958 41.3232969,27.4883244 Z M53.553965,17.0859426 C53.553965,17.0859426 53.8577644,17.8875336 54.4690233,19.4833951 C55.0766219,21.0829169 55.3822513,22.9185237 55.3822513,24.9938757 C55.3822513,27.3986487 54.9869462,29.5398849 54.1945058,31.4157542 C53.4057256,33.2952838 52.3918411,34.744736 51.1565125,35.7641109 C49.9211839,36.7853159 48.6620638,37.2959183 47.3773221,37.2959183 C46.4201712,37.2959183 45.4977925,36.992119 44.610186,36.3826902 C43.7207495,35.7732615 42.9466102,34.9240874 42.2859382,33.8388284 C41.3983317,34.9240874 40.4265399,35.7732615 39.3723928,36.3826902 C38.3164156,36.992119 37.2457975,37.2959183 36.1605385,37.2959183 C34.313951,37.2959183 32.8498579,36.6553776 31.7609386,35.3706359 C30.6756795,34.084064 30.132135,32.3729051 30.132135,30.2316689 C30.132135,29.1775219 30.2712238,28.0739616 30.5512316,26.9191582 C30.8312394,25.7680149 31.2338651,24.400918 31.7609386,22.8196974 L32.2569001,21.3373031 C32.3557264,21.0737663 32.4051396,20.8596427 32.4051396,20.6949322 C32.4051396,20.2996271 32.1251318,20.1019745 31.5651161,20.1019745 L28.6991538,20.1019745 C27.7420029,20.1019745 27.0428984,20.1587081 26.5981801,20.2758355 C26.1534619,20.3893028 25.8313614,20.6198974 25.6355389,20.9676196 C25.4360562,21.3116814 25.2713457,21.8808477 25.1395773,22.6714579 C25.1395773,22.7702842 25.0572221,22.8196974 24.8925116,22.8196974 C24.7607432,22.8196974 24.6545965,22.7867553 24.5722413,22.7208711 C24.4917161,22.6549869 24.4660945,22.5708015 24.4990366,22.4738054 C24.7955155,20.9255269 25.0663727,19.8292871 25.3134384,19.1869163 C25.5605041,18.5445454 25.9484888,18.1089777 26.4755623,17.878383 C27.0026359,17.6477883 27.8243582,17.532491 28.9443894,17.532491 L33.7887076,17.532491 C34.1162984,17.532491 34.3066305,17.5654331 34.3560437,17.6313173 C34.4054568,17.6972015 34.3816653,17.861912 34.2810089,18.1254487 C33.7887076,19.9024918 33.4098735,21.6831951 33.1445066,23.4620682 C32.8828,25.2391113 32.7656725,26.805691 32.8004447,28.1563169 C32.8004447,30.5281478 33.2195414,32.2649283 34.0595648,33.3684885 C34.8995883,34.4720487 35.9775268,35.0247438 37.2970408,35.0247438 C39.0081997,35.0247438 40.4576519,34.2506046 41.6453974,32.7023261 C40.5235361,30.3634373 39.9653505,27.5963013 39.9653505,24.400918 C39.9653505,22.3255659 40.2032657,20.6198974 40.6809261,19.2875727 C41.1585865,17.9515877 41.8595211,17.2854253 42.7818997,17.2854253 C43.57251,17.2854253 44.2148809,17.7777266 44.7090123,18.7659895 C45.2031438,19.7542524 45.4502095,21.2714189 45.4502095,23.3138288 C45.4502095,26.5750963 44.7913676,29.4392285 43.4736837,31.9117158 C44.923136,33.8552995 46.5372986,34.8270913 48.3143417,34.8270913 C49.2714926,34.8270913 50.1847207,34.5232919 51.0576862,33.9138632 C51.9306518,33.3044344 52.6407369,32.3985268 53.1824514,31.1943102 C53.725996,29.9919237 53.9986833,28.5680931 53.9986833,26.9191582 C53.9986833,25.2391113 53.742467,23.9324082 53.2318645,22.9917283 C52.7212621,22.0528786 52.0532696,21.1890636 51.2315473,20.3984533 C50.8033,20.0690324 50.472049,19.7542524 50.2432844,19.4577735 C50.0108596,19.1631248 49.8973924,18.8337038 49.8973924,18.4713407 C49.8973924,18.0101514 50.0767438,17.6642594 50.4391069,17.4336647 C50.8033,17.2030701 51.2315473,17.0859426 51.7256787,17.0859426 L53.553965,17.0859426 Z" id="Fill-4" fill="#FFFFFF"></path>
                    <path d="M73.0716077,34.0849791 C74.1257548,32.7361833 74.6528283,30.9078969 74.6528283,28.6001201 C74.6528283,26.821247 74.3471989,25.124729 73.7377701,23.5123964 C73.1283413,21.8982338 72.2718468,20.5951909 71.1682866,19.606928 C70.0647264,18.6186651 68.8220774,18.1245337 67.4385094,18.1245337 C65.8243467,18.1245337 64.4737207,18.7852057 63.3866316,20.1010594 C62.2995424,21.4187433 61.7541677,23.2305585 61.7541677,25.5365052 C61.7541677,27.2824363 62.0671176,28.9716338 62.6948476,30.6022675 C63.3207474,32.2329012 64.1918828,33.5597356 65.3137442,34.5809406 C66.4319453,35.6003155 67.6855751,36.110918 69.067313,36.110918 C70.6814757,36.110918 72.0174607,35.435605 73.0716077,34.0849791 M63.1157743,36.0871264 C61.8456735,35.247103 60.8665613,34.1032802 60.1747772,32.653828 C59.4829932,31.2043758 59.1371012,29.5719119 59.1371012,27.7600967 C59.1371012,25.7195169 59.5470473,23.8747595 60.3724298,22.2276547 C61.1959822,20.5787198 62.339805,19.2866576 63.8075584,18.3459778 C65.2716515,17.4089582 66.9425478,16.9386182 68.8220774,16.9386182 C71.3256767,16.9386182 73.358936,17.7713212 74.9255157,19.434897 C76.4884351,21.0984729 77.2717249,23.395269 77.2717249,26.3289456 C77.2717249,28.567178 76.8270066,30.5290628 75.9357399,32.2091097 C75.0481335,33.8891566 73.862218,35.1647478 72.3798237,36.0358832 C70.8974294,36.9106788 69.2979076,37.3462465 67.5867488,37.3462465 C65.8719297,37.3462465 64.3822149,36.9271499 63.1157743,36.0871264" id="Fill-6" fill="#FFFFFF"></path>
                    <path d="M94.169739,34.0849791 C95.223886,32.7361833 95.7509596,30.9078969 95.7509596,28.6001201 C95.7509596,26.821247 95.4453301,25.124729 94.8359013,23.5123964 C94.2264726,21.8982338 93.3699781,20.5951909 92.2664179,19.606928 C91.1628577,18.6186651 89.9202086,18.1245337 88.5366406,18.1245337 C86.9224779,18.1245337 85.571852,18.7852057 84.4847628,20.1010594 C83.3976737,21.4187433 82.852299,23.2305585 82.852299,25.5365052 C82.852299,27.2824363 83.1652489,28.9716338 83.7929788,30.6022675 C84.4188786,32.2329012 85.290014,33.5597356 86.4118754,34.5809406 C87.5300766,35.6003155 88.7837063,36.110918 90.1654442,36.110918 C91.7796069,36.110918 93.1155919,35.435605 94.169739,34.0849791 M84.2139056,36.0871264 C82.9438048,35.247103 81.9646925,34.1032802 81.2729085,32.653828 C80.5811245,31.2043758 80.2352325,29.5719119 80.2352325,27.7600967 C80.2352325,25.7195169 80.6451785,23.8747595 81.4705611,22.2276547 C82.2941134,20.5787198 83.4379362,19.2866576 84.9056896,18.3459778 C86.3697827,17.4089582 88.040679,16.9386182 89.9202086,16.9386182 C92.4238079,16.9386182 94.4570672,17.7713212 96.0236469,19.434897 C97.5865663,21.0984729 98.3698562,23.395269 98.3698562,26.3289456 C98.3698562,28.567178 97.9251379,30.5290628 97.0338712,32.2091097 C96.1462647,33.8891566 94.9603493,35.1647478 93.477955,36.0358832 C91.9955606,36.9106788 90.3960389,37.3462465 88.68488,37.3462465 C86.9700609,37.3462465 85.4803462,36.9271499 84.2139056,36.0871264" id="Fill-8" fill="#FFFFFF"></path>
                    <g id="Group-12" transform="translate(98.826287, 0.667077)" fill="#FFFFFF">
                        <path d="M5.7200289,35.4445726 C5.22589747,34.7857306 4.99530279,33.8121087 5.02824489,32.5291971 L5.32472375,5.40138125 C5.32472375,4.61077095 5.20942642,4.02513369 4.97883175,3.64629959 C4.74823708,3.26929561 4.35293193,3.07713338 3.7929163,3.07713338 C3.23290067,3.07713338 2.40934828,3.32602922 1.32408924,3.82016065 L1.22343283,3.8695738 C1.12460655,3.8695738 1.04225131,3.78721856 0.976367115,3.62250808 C0.910482924,3.4577976 0.945255136,3.34250026 1.0751934,3.27661607 L7.44948893,0.163588026 L7.54831521,0.163588026 C7.6800836,0.163588026 7.80453151,0.21300117 7.91982885,0.311827457 C8.03512618,0.408823628 8.09185979,0.493008983 8.09185979,0.558893175 L7.84479408,31.5903474 C7.84479408,32.5786102 7.96009141,33.3033363 8.1925162,33.7645257 C8.42128075,34.225715 8.7836438,34.4563097 9.27777524,34.4563097 C10.1013276,34.4563097 11.1390036,33.6986415 12.3926334,32.1833051 C12.4237454,32.150363 12.4713284,32.1320618 12.5408728,32.1320618 C12.6708111,32.1320618 12.7934289,32.1924557 12.9105564,32.3059229 C13.0240236,32.4230503 13.0496452,32.512726 12.983761,32.5786102 C11.962556,33.8962941 11.065799,34.869916 10.2916597,35.4939857 C9.51569038,36.1180554 8.70128857,36.4328354 7.84479408,36.4328354 C6.9224154,36.4328354 6.21599045,36.1015844 5.7200289,35.4445726" id="Fill-10"></path>
                    </g>
                    <path d="M63.6510834,44.568801 C63.3655852,45.008029 63.2118555,45.5808554 63.1898941,46.2836201 C64.9577865,45.9853111 65.8417328,45.4198052 65.8417328,44.5871022 C65.8417328,44.3674882 65.7593775,44.1991175 65.5946671,44.0819901 C65.4299566,43.9685228 65.2048523,43.9117892 64.9193541,43.9117892 C64.3593385,43.9117892 63.9365816,44.1314032 63.6510834,44.568801 Z M67.3735402,49.1312813 C67.4064823,49.1312813 67.4412545,49.1477523 67.4815171,49.1825245 C67.5181194,49.2136365 67.52727,49.2484087 67.5034785,49.2795207 C66.7805825,49.9164012 65.9735012,50.2366716 65.0840646,50.2366716 C64.4691454,50.2366716 63.9420719,50.0939225 63.502844,49.8065943 C63.063616,49.5210961 62.7341951,49.142262 62.5145811,48.6700919 C62.2949671,48.1979219 62.1851601,47.6928098 62.1851601,47.1547555 C62.1851601,46.517875 62.3333996,45.9175968 62.6298784,45.3520909 C62.9263573,44.7865849 63.3344733,44.3308859 63.8560564,43.9849939 C64.3776396,43.6391019 64.9687672,43.4652408 65.6276091,43.4652408 C66.0668371,43.4652408 66.410899,43.5439358 66.6579647,43.703156 C66.9032003,43.8642062 67.0276482,44.0801599 67.0276482,44.3546774 C67.0166675,44.8378281 66.6433238,45.2807163 65.907617,45.6796817 C65.1719102,46.0823073 64.2660025,46.360485 63.1898941,46.5123847 C63.2118555,47.4677055 63.4351297,48.2345242 63.8560564,48.8091808 C64.2806435,49.3874976 64.8809216,49.6748259 65.6605512,49.6748259 C65.9460494,49.6748259 66.2370379,49.6327332 66.5335168,49.5448876 C66.8299956,49.4552119 67.0990228,49.3197833 67.3405981,49.1312813 L67.3735402,49.1312813 Z" id="Fill-13" fill="#FFFFFF"></path>
                    <path d="M68.7893183,49.9054205 C68.4178047,49.6986174 68.2293027,49.4497215 68.2293027,49.1660535 C68.2293027,49.0233044 68.2768857,48.9153276 68.3702216,48.843953 C68.4635576,48.7725785 68.5770248,48.7359761 68.7069631,48.7359761 C68.8277507,48.7359761 68.9320674,48.7725785 69.019913,48.843953 C69.1095887,48.9153276 69.208415,49.0233044 69.3163918,49.1660535 C69.5048938,49.3966482 69.6824151,49.566849 69.8526159,49.6839765 C70.0228168,49.7974437 70.2570717,49.8578375 70.5535505,49.8578375 C70.8719908,49.8578375 71.1135662,49.7754823 71.2764465,49.6089417 C71.441157,49.4442312 71.5235122,49.2081462 71.5235122,48.9006866 C71.5125315,48.4944008 71.378933,48.1539991 71.1208866,47.8813118 C70.8628402,47.6049642 70.482176,47.3084853 69.9752337,46.9900451 C69.4701216,46.6716048 69.0894574,46.3751259 68.831411,46.1006085 C68.5733646,45.826091 68.4452564,45.4911797 68.4452564,45.0958746 C68.4452564,44.6237045 68.65938,44.2430403 69.0857972,43.9520518 C69.5140444,43.6610633 69.9971951,43.514654 70.5352494,43.514654 C70.9744773,43.514654 71.3569716,43.5951791 71.6809022,43.7543992 C72.0048329,43.9136193 72.1677132,44.113102 72.1677132,44.3546774 C72.1677132,44.4864458 72.1219603,44.5925925 72.0341147,44.6694574 C71.9480992,44.7463223 71.8364621,44.7829247 71.7065239,44.7829247 C71.5637748,44.7829247 71.4448172,44.7536428 71.3514813,44.6914188 C71.2581454,44.6328551 71.1391878,44.5303686 70.9964387,44.3876195 C70.8317282,44.2247391 70.6725081,44.096631 70.5187783,44.0087854 C70.3650485,43.9209398 70.167396,43.877017 69.9258206,43.877017 C69.6842452,43.877017 69.4957432,43.9319205 69.3584845,44.0417275 C69.2212258,44.1515345 69.1516813,44.3217353 69.1516813,44.55233 C69.1516813,44.8707702 69.2761293,45.1599286 69.523195,45.4179751 C69.7702607,45.6741914 70.1344539,45.9706702 70.6176046,46.2982611 C71.1684696,46.6825855 71.5784157,47.0174968 71.8547633,47.302995 C72.1274507,47.5884931 72.2647094,47.9362153 72.2647094,48.3425011 C72.2647094,48.6481306 72.1750337,48.9482696 71.9938522,49.2392582 C71.8126706,49.5302467 71.5546242,49.7663317 71.2197129,49.9456831 C70.8848016,50.1286947 70.5041374,50.2183704 70.07406,50.2183704 C69.5909093,50.2183704 69.162662,50.1140538 68.7893183,49.9054205" id="Fill-15" fill="#FFFFFF"></path>
                    <path d="M78.483262,43.7377452 C78.5107138,43.7651969 78.5198643,43.7999691 78.5088836,43.845722 C78.5088836,43.9646796 78.4484898,44.1055986 78.3350226,44.2648187 C78.2178951,44.4240388 78.0952773,44.4917531 77.9635089,44.4697917 L77.5517327,44.4203786 C76.6860877,44.3105716 75.9156087,44.2501778 75.245786,44.2391971 L75.2311451,48.325847 C75.2183343,48.7632449 75.3006895,49.0890056 75.4763807,49.2958088 C75.6520719,49.504442 75.9320797,49.6087587 76.3164042,49.6087587 C76.6147131,49.6087587 76.8764198,49.5575154 77.1070145,49.4531988 C77.3376091,49.3488821 77.5791845,49.1969825 77.8335707,48.9993299 L77.8482116,48.9993299 C77.8921344,48.9993299 77.9305668,49.0194612 77.9635089,49.0578936 C77.996451,49.0963261 77.996451,49.1201176 77.9635089,49.1310983 C77.5352617,49.5264034 77.147277,49.8100715 76.7940645,49.9802723 C76.4426822,50.1504731 76.0858095,50.2364886 75.7234464,50.2364886 C75.3189907,50.2364886 74.9749288,50.1248515 74.694921,49.9052375 C74.4130831,49.6856236 74.2794846,49.330581 74.2904653,48.8346194 L74.3069363,44.9968653 C74.2959556,44.7113671 74.2739942,44.5100543 74.2428822,44.3874365 C74.20811,44.2666488 74.1403957,44.1879538 74.034249,44.1495214 C73.9317624,44.1110889 73.752411,44.0909576 73.499855,44.0909576 C73.4669129,44.0909576 73.4504418,44.0598457 73.4504418,43.9939615 C73.4504418,43.9280773 73.4614225,43.8933051 73.485214,43.8933051 C73.9006505,43.8933051 74.239222,43.7761776 74.4954383,43.5400926 C74.7553148,43.3040076 74.9053844,43.0002082 74.9493072,42.6268645 C74.9493072,42.5920923 75.0005504,42.5756212 75.0975466,42.5756212 C75.1963729,42.5756212 75.245786,42.5920923 75.245786,42.6268645 L75.245786,43.860363 C75.8167824,43.8512124 76.8599487,43.7944788 78.3752851,43.6974826 C78.4192079,43.6974826 78.4539801,43.7102934 78.483262,43.7377452" id="Fill-17" fill="#FFFFFF"></path>
                    <path d="M79.1499734,50.0216329 C79.0200352,49.8898645 78.954151,49.7141734 78.954151,49.4945594 C78.954151,49.2859261 79.0200352,49.1212156 79.1499734,48.9985978 C79.2817418,48.8796403 79.457433,48.8192464 79.677047,48.8192464 C79.9076416,48.8192464 80.086993,48.8796403 80.2132711,48.9985978 C80.337719,49.1212156 80.4036032,49.2859261 80.4036032,49.4945594 C80.4036032,49.7141734 80.337719,49.8898645 80.2132711,50.0216329 C80.086993,50.1534013 79.9076416,50.2174554 79.677047,50.2174554 C79.457433,50.2174554 79.2817418,50.1534013 79.1499734,50.0216329" id="Fill-19" fill="#FFFFFF"></path>
                    <path d="M87.9949261,47.8555071 C88.5219997,47.3558853 88.9008338,46.9075068 89.1314284,46.5140318 C89.3620231,46.1187266 89.4791506,45.7215914 89.4791506,45.3262862 C89.4791506,44.8888884 89.3418918,44.5283555 89.0746948,44.2483476 C88.8038376,43.9683398 88.4561155,43.829251 88.0296983,43.829251 C87.160393,43.829251 86.5344932,44.5100543 86.1501688,45.8698308 C86.1501688,45.8826416 86.1282074,45.888132 86.0842846,45.888132 C85.9854583,45.888132 85.9415355,45.8643405 85.9543463,45.8222478 L86.5948871,43.3186485 C86.5948871,43.2966871 86.6168485,43.2838763 86.6607712,43.2838763 C86.6937133,43.2838763 86.7248253,43.2930269 86.7522771,43.3094979 C86.7797288,43.3241388 86.7870493,43.3387798 86.7760686,43.3497605 C86.7650879,43.3936833 86.7595975,43.4559072 86.7595975,43.5327721 C86.7595975,43.7066332 86.8419528,43.7944788 87.0066633,43.7944788 C87.1073197,43.7944788 87.2702,43.7578764 87.5007947,43.6810115 C87.9528334,43.5382625 88.3517988,43.4668879 88.7050113,43.4668879 C89.2631968,43.4668879 89.706085,43.6169575 90.0300156,43.9189267 C90.3539462,44.2208959 90.5149965,44.6143709 90.5149965,45.0956916 C90.5149965,45.480016 90.3923786,45.8643405 90.1453129,46.2486649 C89.8982472,46.6329894 89.5358842,47.0429354 89.0582238,47.476673 C88.5805634,47.9104106 87.9125709,48.4557853 87.0560764,49.1146272 C87.0121536,49.1475693 86.9993428,49.1768512 87.0158138,49.1969825 C87.0322849,49.2189439 87.0670571,49.2299246 87.1219606,49.2299246 C88.3316675,49.2299246 89.171691,49.2134535 89.6420309,49.1823415 C90.114201,49.1475693 90.4564327,49.0597237 90.6632359,48.9169747 C90.8718692,48.7760557 91.0146182,48.5216695 91.0914831,48.1593065 C91.0914831,48.1373451 91.1189349,48.1263644 91.1738384,48.1263644 C91.2507033,48.1263644 91.2909658,48.1428354 91.2909658,48.1776076 L91.04207,49.8576545 C91.04207,49.8997472 91.0292592,49.9418399 91.0018074,49.9802723 C90.9743557,50.0187047 90.9377533,50.0370059 90.8938306,50.0370059 L85.8719911,50.0370059 C85.8170876,50.0370059 85.7713347,50.007724 85.7402227,49.9473302 C85.7054505,49.8869364 85.7109408,49.833863 85.7548636,49.7917703 C86.7229952,48.9993299 87.4678526,48.3551289 87.9949261,47.8555071" id="Fill-21" fill="#FFFFFF"></path>
                    <path d="M97.3903779,49.2227871 C97.7271193,48.6902232 97.8918298,47.9673272 97.8918298,47.0559293 C97.8918298,45.9596895 97.6703857,45.1251564 97.2256674,44.55233 C96.7809491,43.9831638 96.2227636,43.6958355 95.5547711,43.6958355 C94.9069099,43.6958355 94.3981375,43.970353 94.0302841,44.521218 C93.6624307,45.0684228 93.4775889,45.7876586 93.4775889,46.6770952 C93.4775889,47.6562074 93.6972029,48.4559683 94.138261,49.0818681 C94.5774889,49.7095981 95.1649563,50.022548 95.9006631,50.022548 C96.559505,50.022548 97.0554665,49.755351 97.3903779,49.2227871 M93.9827011,49.8065943 C93.4702685,49.5101154 93.0713031,49.1019994 92.7784845,48.5785861 C92.4874959,48.0588331 92.3429167,47.4677055 92.3429167,46.8106937 C92.3429167,46.1610023 92.4874959,45.5863458 92.7784845,45.0794035 C93.0713031,44.5742914 93.4720986,44.1789862 93.9900215,43.8934881 C94.5061144,43.60982 95.0862613,43.4652408 95.7359526,43.4652408 C96.371003,43.4652408 96.9438294,43.6116501 97.4489416,43.9026386 C97.9540537,44.1936272 98.3456986,44.5980829 98.6257064,45.1123456 C98.9057143,45.6284384 99.0448031,46.2104155 99.0448031,46.8582767 C99.0448031,47.507968 98.9038841,48.0881149 98.618386,48.6042078 C98.3328878,49.1203006 97.9375827,49.5247563 97.4306404,49.8157448 C96.9273584,50.1049032 96.3563621,50.2513125 95.7194816,50.2513125 C95.0697902,50.2513125 94.4914734,50.1030731 93.9827011,49.8065943" id="Fill-23" fill="#FFFFFF"></path>
                    <path d="M100.478699,49.9394607 C100.478699,49.8735765 100.49517,49.8388043 100.528112,49.8388043 C101.000283,49.8388043 101.348005,49.8131827 101.565788,49.7564491 C101.785402,49.7033757 101.937302,49.5972289 102.019657,49.4380088 C102.102013,49.2787887 102.142275,49.0335531 102.142275,48.7041321 L102.142275,45.6386871 C102.142275,45.2232507 102.116654,44.930432 102.05992,44.7584011 C102.005016,44.5882003 101.889719,44.5021848 101.714028,44.5021848 C101.516375,44.5021848 101.11558,44.6394435 100.513472,44.9157911 L100.49517,44.9157911 C100.451248,44.9157911 100.418305,44.8883394 100.396344,44.8334359 C100.374383,44.7785324 100.385363,44.7455903 100.431116,44.7327795 L102.916414,43.5322231 C102.927395,43.5212424 102.943866,43.5139219 102.965828,43.5139219 C102.99877,43.5139219 103.028052,43.5285629 103.048183,43.5578447 C103.070144,43.5834663 103.081125,43.6145783 103.081125,43.6475204 L103.081125,48.7041321 C103.081125,49.0445338 103.115897,49.2915995 103.187272,49.4434992 C103.260476,49.5972289 103.406886,49.7033757 103.624669,49.7564491 C103.844283,49.8131827 104.195666,49.8388043 104.678817,49.8388043 C104.711759,49.8388043 104.72823,49.8735765 104.72823,49.9394607 C104.72823,50.0053449 104.711759,50.038287 104.678817,50.038287 C104.318284,50.038287 104.030955,50.0327966 103.822322,50.0218159 L102.603465,50.0053449 L101.401078,50.0218159 C101.194275,50.0327966 100.901456,50.038287 100.528112,50.038287 C100.49517,50.038287 100.478699,50.0053449 100.478699,49.9394607" id="Fill-25" fill="#FFFFFF"></path>
                    <g id="Group-29" transform="translate(105.316636, 42.759755)" fill="#FFFFFF">
                        <path d="M2.32696866,11.0919453 C2.27389528,11.1395283 2.20252074,11.198092 2.11467515,11.2639762 L1.27465171,11.8075208 C1.2508602,11.8166714 1.22340845,11.8075208 1.19229647,11.7745787 C1.15752426,11.7416366 1.14654356,11.7141849 1.15752426,11.6922235 L5.55712416,1.87547893 C5.58823614,1.79861404 5.56261451,1.7601816 5.47476892,1.7601816 C3.84779541,1.7601816 2.72044369,1.782143 2.08905352,1.82789591 C1.45583324,1.86998859 1.03673657,1.96332452 0.829933418,2.1060736 C0.619470029,2.24882269 0.460249899,2.50869922 0.35227303,2.88021285 C0.328481516,2.90217425 0.302859886,2.91315495 0.268087674,2.91315495 C0.235145578,2.91315495 0.205863716,2.90400437 0.178411969,2.88936344 C0.150960223,2.87289239 0.143639757,2.85276111 0.154620456,2.83079971 L0.731107131,0.475439866 C0.742087829,0.455308585 0.778690158,0.446158003 0.84457435,0.451648352 C0.912288657,0.455308585 0.937910287,0.469949516 0.926929589,0.491910913 C0.91594889,0.535833708 0.912288657,0.590737201 0.912288657,0.656621392 C0.912288657,0.766428378 0.963531917,0.837802919 1.06784855,0.870745014 C1.17216519,0.90368711 1.38262858,0.920158158 1.70106884,0.920158158 L6.06772664,0.920158158 C6.10981932,0.920158158 6.151912,0.943949672 6.19034444,0.993362815 C6.22877689,1.04460608 6.23792747,1.09035899 6.21413595,1.13428178 L2.45873704,10.8686711 C2.42762506,10.9674974 2.38187215,11.0425321 2.32696866,11.0919453" id="Fill-27"></path>
                    </g>
                    <path d="M18.0786221,28.6500823 C17.683317,28.2730783 17.4856644,27.7368542 17.4856644,27.0450702 C17.4856644,26.4191704 17.683317,25.9250389 18.0786221,25.5626759 C18.4739273,25.2003128 19.0174719,25.0191313 19.7092559,25.0191313 C20.3333256,25.0191313 20.8384377,25.2003128 21.2172718,25.5626759 C21.5942758,25.9250389 21.7846079,26.4191704 21.7846079,27.0450702 C21.7846079,27.7368542 21.6034264,28.2730783 21.2410633,28.6500823 C20.8768702,29.0289164 20.3680978,29.2192485 19.7092559,29.2192485 C19.0174719,29.2192485 18.4739273,29.0289164 18.0786221,28.6500823" id="Fill-30" fill="#FFFFFF"></path>
                </g>
            </g>
        </g>
    </g>
</svg>