<?xml version="1.0" encoding="UTF-8"?>
<svg fill="#FF2955" width="100pt" height="100pt" version="1.1" viewBox="0 0 100 100" xmlns="http://www.w3.org/2000/svg">
 <path d="m50 85.898c-1.3984 0-2.6016-1-3-2.3008-1.5-6.1992-11.301-13.398-18.5-18.699-1-0.80078-2-1.5-3-2.1992-10.699-8.0977-15.5-16.398-15.5-27.098 0-11.898 9.6992-21.5 21.5-21.5 7.8008 0 14.699 4.1992 18.5 10.5 3.8008-6.3008 10.602-10.5 18.5-10.5 11.898 0 21.5 9.6992 21.5 21.5 0 10.602-4.8008 19-15.602 27.102-0.89844 0.69922-1.8984 1.3984-3 2.1992-7.0977 5.2969-16.898 12.496-18.398 18.699-0.39844 1.2969-1.6016 2.2969-3 2.2969z"/>
</svg>
