<svg xmlns="http://www.w3.org/2000/svg" viewBox="0 0 34.21 34.69"><defs><style>.cls-1{fill:#909090;opacity:0.5;}</style></defs><title>Asset 3</title><g id="Layer_2" data-name="Layer 2"><g id="Layer_1-2" data-name="Layer 1"><path class="cls-1" d="M32.57,9.85a17.35,17.35,0,0,0-28.68-4h0a.5.5,0,0,0,.76.65,16.62,16.62,0,0,1,19.9-4.19A16.87,16.87,0,0,1,32.27,10a17.08,17.08,0,0,1,1.47,10.72c-.08.38-.21.78-.21.78-.61,1-1,.7-1,.7-.23-.07-.2-.7-.2-.7l.06-7.4c0-.27-.28-.13-.28-.13l-1.45.77c0,.08.07.06.07.06l.12-.06a.89.89,0,0,1,.58-.12c.3,0,.28.58.28.58l-.06,6.87a.66.66,0,0,0,.47.61A1,1,0,0,0,33,22.4a2.82,2.82,0,0,0,.79-1.54h0A17.24,17.24,0,0,0,32.57,9.85Z"/><path class="cls-1" d="M32.12,25.37a.5.5,0,0,0-.68.19A16.59,16.59,0,0,1,9.93,32.42,16.84,16.84,0,0,1,1.12,11.83l.08-.22a3.36,3.36,0,0,1,.71-.85c.25-.2.4-.06.4-.06.23.16.19.72.19.72l0,1.44,0,1.39c0,.56.31.68.31.68a.82.82,0,0,0,.88-.06,3.64,3.64,0,0,0,.71-.72c.07-.11,0-.14,0-.14a.12.12,0,0,0-.16.06c-.14.16-.49.54-.77.47s-.27-.63-.27-.63l0-3.06c-.06-.73-.63-.67-.63-.67a1.4,1.4,0,0,0-.88.43,1.77,1.77,0,0,0-.39.5h0l0,.1-.05.1-.06.14L1,11.79a17.07,17.07,0,0,0,.19,11.89A17.29,17.29,0,0,0,22.31,34a17.53,17.53,0,0,0,10-7.89h0A.49.49,0,0,0,32.12,25.37Z"/><path class="cls-1" d="M19,17.85a.57.57,0,0,0-.32.09.29.29,0,0,0-.13.25.36.36,0,0,0,.09.24,1.07,1.07,0,0,0,.24.23,2.4,2.4,0,0,1,.48.63,1.93,1.93,0,0,1,.19,1,2.54,2.54,0,0,1-.2,1,1.52,1.52,0,0,1-.52.66,1.11,1.11,0,0,1-.66.22A1.47,1.47,0,0,1,17,21.45a4.36,4.36,0,0,0,.48-2.09,2.58,2.58,0,0,0-.18-1.1c-.12-.24-.27-.36-.47-.36s-.39.16-.51.49a3.86,3.86,0,0,0-.17,1.24,4.7,4.7,0,0,0,.41,2,1.31,1.31,0,0,1-1.06.56,1,1,0,0,1-.78-.4,2.06,2.06,0,0,1-.31-1.27,6.91,6.91,0,0,1,.08-1.14,11.9,11.9,0,0,1,.28-1.29c0-.07,0-.11,0-.12s-.06,0-.14,0H13.45a1.51,1.51,0,0,0-.6.09.54.54,0,0,0-.28.31,6.42,6.42,0,0,0-.2.8s0,0,0,.06a.11.11,0,0,0,.08,0s.06,0,.06,0a1.19,1.19,0,0,1,.12-.41.33.33,0,0,1,.23-.17,2.16,2.16,0,0,1,.51,0h.7c.14,0,.2,0,.2.14a.61.61,0,0,1,0,.16l-.12.35c-.13.39-.23.72-.3,1a3.9,3.9,0,0,0-.1.81,1.81,1.81,0,0,0,.4,1.24,1.3,1.3,0,0,0,1.07.47,1.54,1.54,0,0,0,.78-.22,2.52,2.52,0,0,0,.7-.62,1.9,1.9,0,0,0,.57.62,1.14,1.14,0,0,0,.67.22,1.43,1.43,0,0,0,.92-.37,2.78,2.78,0,0,0,.74-1.06,4,4,0,0,0,.28-1.56,3.64,3.64,0,0,0-.22-1.33c-.15-.39-.22-.59-.22-.59ZM16.81,21.2a3.17,3.17,0,0,1-.35-.82,3.51,3.51,0,0,1-.13-.91,1.72,1.72,0,0,1,.09-.58.31.31,0,0,1,.3-.24c.27,0,.41.32.41,1A3.65,3.65,0,0,1,16.81,21.2Z"/><path class="cls-1" d="M21.09,19.1a3,3,0,0,0-.3,1.34A2.67,2.67,0,0,0,21,21.63a2,2,0,0,0,.71.84,2,2,0,0,0,1.09.3A2.18,2.18,0,0,0,24,22.45a2.34,2.34,0,0,0,.87-.92,3.11,3.11,0,0,0,.32-1.43,2.38,2.38,0,0,0-.57-1.68,1.94,1.94,0,0,0-1.48-.6,2.2,2.2,0,0,0-1.22.34A2.3,2.3,0,0,0,21.09,19.1Zm1.71-1a1.33,1.33,0,0,1,.91.36,2.28,2.28,0,0,1,.62.94,3.49,3.49,0,0,1,.22,1.24A2.08,2.08,0,0,1,24.17,22a1.18,1.18,0,0,1-1,.49,1.29,1.29,0,0,1-.91-.37,2.42,2.42,0,0,1-.64-1,3.49,3.49,0,0,1-.23-1.24,2,2,0,0,1,.4-1.31A1.22,1.22,0,0,1,22.8,18.11Z"/><path class="cls-1" d="M26.88,22.47a1.92,1.92,0,0,0,1.08.3,2.19,2.19,0,0,0,1.17-.32,2.32,2.32,0,0,0,.86-.92,3,3,0,0,0,.32-1.43,2.38,2.38,0,0,0-.57-1.68,1.94,1.94,0,0,0-1.48-.6,2.22,2.22,0,0,0-1.22.34,2.37,2.37,0,0,0-.83.94,3,3,0,0,0-.3,1.34,2.67,2.67,0,0,0,.25,1.19A2,2,0,0,0,26.88,22.47Zm.06-3.88a1.24,1.24,0,0,1,1-.48,1.32,1.32,0,0,1,.9.36,2.29,2.29,0,0,1,.63.94,3.72,3.72,0,0,1,.22,1.24A2.08,2.08,0,0,1,29.29,22a1.17,1.17,0,0,1-1,.49,1.31,1.31,0,0,1-.91-.37,2.65,2.65,0,0,1-.64-1,3.49,3.49,0,0,1-.22-1.24A2,2,0,0,1,26.94,18.59Z"/><path class="cls-1" d="M6.07,10.42a.54.54,0,0,0-.49-.23,1.07,1.07,0,0,0-.65.23,3.56,3.56,0,0,0-.67.71.06.06,0,0,0,0,.08.11.11,0,0,0,.08,0l0,0q.54-.58.8-.58a.29.29,0,0,1,.26.17,1.14,1.14,0,0,1,.1.53l0,2.68c0,.2,0,.39,0,.58s0,.3,0,.33a.15.15,0,0,0,.08.05l.24,0a.71.71,0,0,0,.29,0,.15.15,0,0,0,.1-.13,10.44,10.44,0,0,1,.24-2.29,3.87,3.87,0,0,1,.61-1.45,1.06,1.06,0,0,1,.83-.49q.71,0,.71,1.34V14.1q0,.95.66.95a.93.93,0,0,0,.59-.23,4.33,4.33,0,0,0,.65-.71s0,0,0-.07a.13.13,0,0,0-.09,0h0q-.49.55-.77.55a.27.27,0,0,1-.26-.17,1.33,1.33,0,0,1-.08-.53V11.73A2.1,2.1,0,0,0,9,10.53a.9.9,0,0,0-.79-.38A1.54,1.54,0,0,0,7,10.86a4.72,4.72,0,0,0-.75,2v-1.7A1.29,1.29,0,0,0,6.07,10.42Z"/><path class="cls-1" d="M13.66,10.15a2.44,2.44,0,0,0-1.39.45,3.35,3.35,0,0,0-1.07,1.2,3.3,3.3,0,0,0-.41,1.6,1.78,1.78,0,0,0,.4,1.27,1.29,1.29,0,0,0,1,.42,1.64,1.64,0,0,0,1.25-.64,5.08,5.08,0,0,0,.93-1.73l0,1.37a1.15,1.15,0,0,0,.16.7A.59.59,0,0,0,15,15a1,1,0,0,0,.59-.22,4.27,4.27,0,0,0,.67-.71s0,0,0-.07a.11.11,0,0,0-.08,0h0q-.49.55-.77.55a.26.26,0,0,1-.26-.17,1.33,1.33,0,0,1-.08-.53l.07-7.54s0,0,0-.06a.15.15,0,0,0-.08,0h0L13.34,7a.06.06,0,0,0,0,.08s0,.06.07.06h0A1.56,1.56,0,0,1,14,6.94q.41,0,.38.56l0,2.8A1.58,1.58,0,0,0,13.66,10.15Zm.46,2.67A3.65,3.65,0,0,1,13.45,14a1.26,1.26,0,0,1-1,.5.86.86,0,0,1-.74-.39,2.11,2.11,0,0,1-.29-1.18,3.06,3.06,0,0,1,.24-1.27,1.88,1.88,0,0,1,.66-.82,1.66,1.66,0,0,1,.95-.28,1.1,1.1,0,0,1,.79.26,1,1,0,0,1,.28.77A3.77,3.77,0,0,1,14.11,12.82Z"/><path class="cls-1" d="M18,8.65a.54.54,0,0,0,.13-.39.48.48,0,0,0-.14-.36.51.51,0,0,0-.37-.13.56.56,0,0,0-.4.13.47.47,0,0,0-.14.36.51.51,0,0,0,.14.39.55.55,0,0,0,.4.14A.49.49,0,0,0,18,8.65Z"/><path class="cls-1" d="M16.08,11.14a.06.06,0,0,0,0,.08.11.11,0,0,0,.08,0l0,0q.52-.58.8-.58t.35.71l0,2.72a1.15,1.15,0,0,0,.16.71A.59.59,0,0,0,18,15a1,1,0,0,0,.6-.23,4.14,4.14,0,0,0,.66-.71s0,0,0-.07a.12.12,0,0,0-.09,0h0q-.47.55-.77.55c-.22,0-.34-.23-.34-.7l0-2.75a1.24,1.24,0,0,0-.16-.7.55.55,0,0,0-.49-.23,1.07,1.07,0,0,0-.65.23A3.56,3.56,0,0,0,16.08,11.14Z"/><path class="cls-1" d="M23.11,10.8a.54.54,0,0,0-.27-.47,1.38,1.38,0,0,0-.75-.17,2.28,2.28,0,0,0-1.29.38,2.65,2.65,0,0,0-.89,1,2.79,2.79,0,0,0-.32,1.31,2.58,2.58,0,0,0,.24,1.1,2,2,0,0,0,.72.83,2.07,2.07,0,0,0,1.15.31,2.61,2.61,0,0,0,1.76-.7s0,0,0-.07a.12.12,0,0,0-.08,0h0a1.76,1.76,0,0,1-.59.3,2.22,2.22,0,0,1-.64.1A1.53,1.53,0,0,1,20.8,14a2.89,2.89,0,0,1-.49-1.67,5.85,5.85,0,0,0,2-.61Q23.1,11.32,23.11,10.8Zm-2.8,1.4A2.4,2.4,0,0,1,20.65,11a1,1,0,0,1,.92-.48.85.85,0,0,1,.49.13.42.42,0,0,1,.18.37Q22.25,11.87,20.32,12.2Z"/><path class="cls-1" d="M2.79,8.79a.49.49,0,0,0,.37-.14.54.54,0,0,0,.13-.39.48.48,0,0,0-.14-.36.51.51,0,0,0-.37-.13.56.56,0,0,0-.4.13.47.47,0,0,0-.14.36.51.51,0,0,0,.14.39A.55.55,0,0,0,2.79,8.79Z"/></g></g></svg>