<?xml version="1.0" encoding="UTF-8"?>
<svg width="500px" height="196px" viewBox="0 0 500 196" version="1.1" xmlns="http://www.w3.org/2000/svg" xmlns:xlink="http://www.w3.org/1999/xlink">
    <!-- Generator: Sketch 48.2 (47327) - http://www.bohemiancoding.com/sketch -->
    <title>Group 13</title>
    <desc>Created with Sketch.</desc>
    <defs>
        <circle id="path-1" cx="98.0182811" cy="97.7149963" r="96.9649963"></circle>
        <mask id="mask-2" maskContentUnits="userSpaceOnUse" maskUnits="objectBoundingBox" x="0" y="0" width="193.929993" height="193.929993" fill="white">
            <use xlink:href="#path-1"></use>
        </mask>
        <circle id="path-3" cx="17" cy="16.2450008" r="16.2450008"></circle>
        <mask id="mask-4" maskContentUnits="userSpaceOnUse" maskUnits="objectBoundingBox" x="0" y="0" width="32.4900017" height="32.4900017" fill="white">
            <use xlink:href="#path-3"></use>
        </mask>
        <circle id="path-5" cx="18.2450008" cy="177.152183" r="16.2450008"></circle>
        <mask id="mask-6" maskContentUnits="userSpaceOnUse" maskUnits="objectBoundingBox" x="0" y="0" width="32.4900017" height="32.4900017" fill="white">
            <use xlink:href="#path-5"></use>
        </mask>
        <circle id="path-7" cx="17" cy="177.754999" r="16.2450008"></circle>
        <mask id="mask-8" maskContentUnits="userSpaceOnUse" maskUnits="objectBoundingBox" x="0" y="0" width="32.4900017" height="32.4900017" fill="white">
            <use xlink:href="#path-7"></use>
        </mask>
        <circle id="path-9" cx="17" cy="16.2450008" r="16.2450008"></circle>
        <mask id="mask-10" maskContentUnits="userSpaceOnUse" maskUnits="objectBoundingBox" x="0" y="0" width="32.4900017" height="32.4900017" fill="white">
            <use xlink:href="#path-9"></use>
        </mask>
        <circle id="path-11" cx="282.754999" cy="177.5" r="16.2450008"></circle>
        <mask id="mask-12" maskContentUnits="userSpaceOnUse" maskUnits="objectBoundingBox" x="0" y="0" width="32.4900017" height="32.4900017" fill="white">
            <use xlink:href="#path-11"></use>
        </mask>
        <polygon id="path-13" points="0.73412984 0.927909896 113.147644 0.927909896 113.147644 89.575795 0.73412984 89.575795"></polygon>
    </defs>
    <g id="quality" stroke="none" stroke-width="1" fill="none" fill-rule="evenodd" transform="translate(-56.000000, -1129.000000)">
        <g id="Group-13" transform="translate(55.000000, 1129.000000)">
            <g id="Group-5" opacity="0.5" stroke="#4A4A4A" stroke-dasharray="2,4">
                <path d="M1.93417589,162.641263 L195.10509,162.641263" id="Path-2"></path>
                <path d="M1.93417589,194.714996 L195.10509,194.714996" id="Path-2-Copy"></path>
                <path d="M1.93417589,1.14126318 L195.10509,1.14126318" id="Path-2"></path>
                <path d="M1.93417589,33.2149963 L195.10509,33.2149963" id="Path-2-Copy"></path>
                <path d="M97.7915608,97.7346293 L290.962475,97.7346293" id="Path-2" transform="translate(194.377018, 97.734629) rotate(90.000000) translate(-194.377018, -97.734629) "></path>
                <path d="M65.7178277,97.7346293 L258.888742,97.7346293" id="Path-2-Copy" transform="translate(162.303285, 97.734629) rotate(90.000000) translate(-162.303285, -97.734629) "></path>
                <g id="Group-2" transform="translate(0.500000, 1.000000)">
                    <path d="M-63.2084392,96.7346293 L129.962475,96.7346293" id="Path-2" transform="translate(33.377018, 96.734629) rotate(90.000000) translate(-33.377018, -96.734629) "></path>
                    <path d="M-95.2821723,96.7346293 L97.8887419,96.7346293" id="Path-2-Copy" transform="translate(1.303285, 96.734629) rotate(90.000000) translate(-1.303285, -96.734629) "></path>
                </g>
            </g>
            <path d="M200.5,2.5 L228.5,2.5" id="Line-3" stroke="#4A4A4A" stroke-width="0.5" opacity="0.5" stroke-linecap="square"></path>
            <g id="Group-11" transform="translate(0.000000, 1.000000)">
                <use id="Oval" stroke-opacity="0.89" stroke="#4A4A4A" mask="url(#mask-2)" stroke-width="2" opacity="0.498309235" stroke-linecap="round" stroke-dasharray="2,4" xlink:href="#path-1"></use>
                <g id="Group-4" transform="translate(97.500000, 98.000000) rotate(90.000000) translate(-97.500000, -98.000000) translate(80.000000, 1.000000)" opacity="0.5" stroke="#4A4A4A" stroke-dasharray="2,4" stroke-width="2">
                    <use id="Oval-Copy" mask="url(#mask-4)" xlink:href="#path-3"></use>
                    <use id="Oval-Copy-5" mask="url(#mask-6)" xlink:href="#path-5"></use>
                </g>
                <g id="Group-4" transform="translate(98.000000, 98.000000) rotate(180.000000) translate(-98.000000, -98.000000) translate(81.000000, 1.000000)" opacity="0.5" stroke="#4A4A4A" stroke-dasharray="2,4" stroke-width="2">
                    <use id="Oval-Copy-4" mask="url(#mask-8)" xlink:href="#path-7"></use>
                    <use id="Oval-Copy-6" mask="url(#mask-10)" xlink:href="#path-9"></use>
                </g>
                <use id="Oval-Copy" stroke="#4A4A4A" mask="url(#mask-12)" stroke-width="2" opacity="0.5" stroke-dasharray="2,4" xlink:href="#path-11"></use>
                <path d="M266.5,178.5 L228.5,178.5" id="Line" stroke="#4A4A4A" stroke-width="0.5" opacity="0.5" stroke-linecap="square"></path>
                <path d="M228.5,178.5 L228.5,1.99926254" id="Line-2" stroke="#4A4A4A" stroke-width="0.5" opacity="0.5" stroke-linecap="square"></path>
                <g id="Page-1-Copy-5" transform="translate(35.018281, 31.948718)">
                    <path d="M113.626494,99.8141995 C113.626494,100.182431 113.994726,100.182431 113.994726,100.182431 L114.362958,99.8141995" id="Fill-1" fill="#E29F4C"></path>
                    <g id="Group-5" transform="translate(0.000000, 38.149254)" fill="#E29F4C">
                        <path d="M118.394984,56.3887424 C118.01113,56.2459131 117.558094,56.2369863 117.180935,56.3932058 C116.341813,56.7435839 115.832984,57.5827059 115.359862,58.3615718 C105.245763,75.0034146 86.8274813,86.3047813 67.4093944,87.77994 C47.9913075,89.2573303 28.0755498,80.8705736 15.5645976,65.9471456 C3.05141366,51.0259493 -1.73336721,29.9519354 3.10497464,11.0895436 C3.87045031,8.11021413 4.90819429,5.10187242 6.95467007,2.80544541 C7.27380424,2.44837221 7.66658476,2.0868356 8.14417016,2.0868356 C9.10603609,2.08460389 9.41401173,3.37229912 9.41847514,4.33416505 L9.46087758,14.5866293 C9.465341,15.4703854 9.48765807,16.4143977 10.0031825,17.1307758 C10.8199874,18.2689466 12.5897315,18.3180442 13.8015487,17.6150563 C15.0155975,16.9143002 15.8011586,15.6757025 16.5398538,14.4862024 C15.2588537,14.5152146 14.7768048,16.4858124 13.5069633,16.6554221 C12.1143778,16.8406538 11.5876948,14.8990683 11.6122436,13.4930926 C11.6680363,10.5740192 11.7215973,7.6549458 11.77739,4.73364069 C11.7930119,3.76731134 11.7974753,2.73849419 11.288646,1.91499412 C10.3290118,0.355030582 7.90537746,0.323786677 6.41906027,1.39946969 C4.93274308,2.472921 4.17619424,4.27167724 3.56693809,6.00125054 C-0.675537859,18.0502393 -1.14865985,31.3958501 2.22791359,43.7148755 C4.06907228,50.4300834 7.05063349,56.8239253 10.9695118,62.579499 C14.8415244,68.2658897 19.688793,73.4858535 25.1944154,77.6100489 C30.7714525,81.7855737 37.0514773,85.0014642 43.6707218,87.1662204 C50.2921979,89.328745 57.2595887,90.442367 64.2269795,90.404428 C67.7441505,90.3865743 71.2613215,90.076367 74.7226999,89.458184 C93.0160062,86.2088179 109.635532,74.5258292 118.885959,58.4106694 C119.060033,58.1093888 119.236338,57.7857913 119.236338,57.4354132 C119.238569,56.933279 118.868106,56.5605838 118.394984,56.3887424" id="Fill-3"></path>
                    </g>
                    <path d="M38.518825,53.3580836 C38.6371055,53.3580836 38.7486909,53.4116446 38.8513494,53.5120714 C38.954008,53.6169617 38.9763251,53.6995348 38.916069,53.7575592 C38.0033006,54.9359008 37.2021176,55.8018033 36.5102883,56.3619619 C35.818459,56.9198887 35.0886906,57.1988522 34.3254466,57.1988522 C32.6472026,57.1988522 31.8370928,56.0383643 31.8951172,53.7129251 L31.9397513,45.8506196 C31.9397513,42.5566193 31.0716171,40.9051558 29.333117,40.9051558 C28.2150315,40.9051558 27.1929095,41.5099485 26.2645192,42.7173023 C25.3383606,43.924656 24.5929703,45.7033269 24.0350434,48.06001 C23.4771165,50.4144614 23.1802994,53.2241811 23.1535189,56.4958643 C23.1535189,56.7011814 23.0263116,56.8618644 22.7763604,56.9801449 C22.5264091,57.0984253 22.1671042,57.1564497 21.6962139,57.1564497 C21.2543358,57.1564497 20.9575187,57.1341327 20.810226,57.0917302 C20.6651651,57.0448644 20.5625065,56.9801449 20.5022504,56.8908766 C20.5022504,56.7748278 20.5245675,56.368657 20.5692016,55.6768277 C20.6138358,54.9849983 20.6361529,54.270852 20.6361529,53.5343885 L20.7231895,43.688095 C20.7231895,42.8043388 20.6071407,42.1504485 20.3705797,41.7219607 C20.1340187,41.2979363 19.8104211,41.0814607 19.3997869,41.0814607 C18.75036,41.0814607 17.766177,41.7889119 16.4383111,43.2015828 C16.3802867,43.2640706 16.3378842,43.2930828 16.308872,43.2930828 C16.1905915,43.2930828 16.087933,43.2372901 15.9986647,43.1368633 C15.9093964,43.0342047 15.8960061,42.9360096 15.9540305,42.8512047 C16.8377867,41.6706314 17.6612868,40.7958021 18.4267624,40.2222533 C19.1922381,39.6487044 19.986726,39.3608142 20.810226,39.3608142 C21.6359578,39.3608142 22.2340554,39.6420093 22.6022872,40.1977045 C22.9682872,40.7578631 23.1535189,41.6148387 23.1535189,42.7597047 L23.1535189,49.0308028 C23.7114458,45.9398879 24.6309093,43.5251804 25.9141411,41.7889119 C27.1929095,40.0548752 28.7461779,39.1845093 30.5717146,39.1845093 C31.866105,39.1845093 32.8368977,39.6487044 33.4863246,40.5748631 C34.1335198,41.5032534 34.4414954,42.9828754 34.4147149,45.0137293 L34.3678491,52.8738031 C34.3678491,53.7575592 34.4638125,54.4047544 34.6557393,54.8176203 C34.8454345,55.2304862 35.1645687,55.4358033 35.604215,55.4358033 C36.2826541,55.4358033 37.2244347,54.7551325 38.4317884,53.4049494 L38.518825,53.3580836 Z" id="Fill-6" fill="#E29F4C"></path>
                    <path d="M49.7568113,53.3799543 C50.8012504,52.161442 51.6180553,50.7019053 52.2072261,49.010271 C52.7963969,47.3164051 53.0909823,45.821161 53.0909823,44.5290024 C53.0909823,43.2926364 52.7517627,42.3508559 52.0777871,41.701429 C51.3971163,41.0542338 50.4263235,40.7306362 49.1609454,40.7306362 C47.8643233,40.7306362 46.7016037,41.0743192 45.6727866,41.7683802 C44.6417377,42.4579778 43.8316279,43.4622462 43.2424571,44.7700268 C42.6532863,46.0800391 42.3609326,47.6333075 42.3609326,49.4298321 C42.3899448,51.3714176 42.7425546,52.8220274 43.4209937,53.77943 C44.0972011,54.7346008 45.0099694,55.2121862 46.1570671,55.2121862 C47.5117135,55.2121862 48.7123722,54.6006983 49.7568113,53.3799543 M59.6722877,53.3576372 C59.7593243,53.3576372 59.8552877,53.4111982 59.9579462,53.5138568 C60.0606048,53.6165153 60.0963121,53.6990885 60.0695316,53.7571129 C59.1255193,54.9644666 58.3109461,55.8415277 57.6168851,56.3838326 C56.9250558,56.9306009 56.1975191,57.1984058 55.4298117,57.1984058 C54.6063117,57.1984058 53.9814336,56.8971253 53.5551774,56.2945643 C53.1266896,55.694235 52.9302993,54.8305642 52.9593115,53.7124787 L53.0463481,48.6799783 C52.1335798,51.3557956 50.9931772,53.4759177 49.6251405,55.0358813 C48.2571038,56.6003082 46.7172257,57.3769424 45.0099694,57.3769424 C43.6263108,57.3769424 42.4412741,56.861418 41.4548594,55.8303691 C40.4684447,54.8037837 39.977469,53.2415885 39.977469,51.1504785 C39.977469,49.0593686 40.4751398,47.0976977 41.4771765,45.2543073 C42.4769814,43.4176121 43.7959206,41.9446851 45.4295304,40.8399899 C47.0631403,39.7352947 48.7637014,39.1840629 50.5289821,39.1840629 C51.528787,39.1840629 52.4147749,39.3759898 53.1802506,39.7598435 L53.3119213,29.4672085 C53.3699457,28.0857816 52.8990554,27.3917205 51.8970188,27.3917205 C51.3390919,27.3917205 50.5892382,27.6126596 49.6474576,28.0545377 C49.6162137,28.0857816 49.5738113,28.0991718 49.5135552,28.0991718 C49.3952747,28.0991718 49.3171649,28.0255255 49.2725308,27.8782328 C49.2256649,27.7309401 49.2636039,27.6282815 49.3818844,27.5702571 L55.1664702,24.7850862 L55.2535068,24.7850862 C55.3427751,24.7850862 55.4454337,24.831952 55.5637142,24.9189886 C55.679763,25.0082569 55.7400191,25.0819033 55.7400191,25.1399277 L55.4766776,52.8733567 C55.4766776,53.7571129 55.5704093,54.4043081 55.7623362,54.8171739 C55.954263,55.2300398 56.2689338,55.4353569 56.7130435,55.4353569 C57.3892509,55.4353569 58.3310315,54.7569178 59.5383852,53.4045031 C59.5673974,53.3754909 59.6120316,53.3576372 59.6722877,53.3576372" id="Fill-8" fill="#E29F4C"></path>
                    <path d="M63.5132795,33.6846893 C63.1606697,33.3477015 62.9843648,32.8678844 62.9843648,32.2497014 C62.9843648,31.6917745 63.1606697,31.2498965 63.5132795,30.9240672 C63.8681209,30.6004696 64.3524015,30.4397866 64.9705844,30.4397866 C65.5285113,30.4397866 65.9770845,30.6004696 66.3185358,30.9240672 C66.6555236,31.2498965 66.8251334,31.6917745 66.8251334,32.2497014 C66.8251334,32.8678844 66.6622187,33.3477015 66.3408528,33.6846893 C66.0150236,34.0239089 65.5597552,34.1935186 64.9705844,34.1935186 C64.3524015,34.1935186 63.8681209,34.0239089 63.5132795,33.6846893 M64.6402917,56.3186667 C64.2118039,55.729496 64.0154136,54.85913 64.0421941,53.7142641 L64.1760966,43.6872023 C64.2051088,41.9531656 63.7788526,41.080568 62.8950965,41.080568 C62.1898769,41.080568 61.2012305,41.790251 59.938084,43.2029218 C59.8778279,43.2631779 59.8331938,43.2921901 59.8041816,43.2921901 C59.6859011,43.2921901 59.5832426,43.2386291 59.496206,43.1382023 C59.4069377,43.033312 59.3935474,42.9373486 59.4515718,42.850312 C60.335328,41.6719705 61.1565963,40.7949094 61.9243037,40.2235923 C62.6897794,39.6478118 63.4842673,39.3599215 64.3077673,39.3599215 C65.1334991,39.3599215 65.7360601,39.6411166 66.1176821,40.1968118 C66.5015358,40.7592021 66.6934626,41.6139461 66.6934626,42.7610437 L66.5595602,52.8729104 C66.5595602,54.5801666 66.9724261,55.4349106 67.7959261,55.4349106 C68.5346213,55.4349106 69.4764019,54.7564715 70.6234995,53.4040568 C70.6525117,53.3750446 70.6971459,53.3571909 70.7551703,53.3571909 C70.8734508,53.3571909 70.9850361,53.4107519 71.0876947,53.5134104 C71.1881215,53.616069 71.2126703,53.6986421 71.1546459,53.7566665 C70.2418775,54.9350081 69.4317677,55.8009106 68.7243165,56.3633009 C68.0190969,56.9189961 67.2804017,57.2001912 66.5171577,57.2001912 C65.6936577,57.2001912 65.0665479,56.9056058 64.6402917,56.3186667" id="Fill-10" fill="#E29F4C"></path>
                    <path d="M76.2737366,42.1417449 C75.5082609,43.3200864 75.0976267,44.8510378 75.0373706,46.7345989 C79.7775173,45.940111 82.1475907,44.4225499 82.1475907,42.186379 C82.1475907,41.59944 81.9266516,41.1508668 81.4847736,40.8406594 C81.0428955,40.5326838 80.4381028,40.3764643 79.6726271,40.3764643 C78.1751514,40.3764643 77.0414439,40.9678667 76.2737366,42.1417449 Z M86.2539325,54.3737337 C86.3432008,54.3737337 86.4369325,54.4183678 86.5418227,54.5076361 C86.6422496,54.5946727 86.6667984,54.683941 86.608774,54.7732093 C84.6671885,56.4804655 82.5002005,57.3329778 80.1167369,57.3329778 C78.4652733,57.3329778 77.0548342,56.9513558 75.8764926,56.1858802 C74.6981511,55.4204045 73.8143949,54.4049776 73.2274558,53.1395994 C72.6382851,51.8742213 72.3436997,50.5195748 72.3436997,49.0734284 C72.3436997,47.3661721 72.7409436,45.757111 73.5354315,44.2395499 C74.332151,42.7242205 75.4279194,41.5012448 76.8249683,40.5750862 C78.2242489,39.6489276 79.8065295,39.1847325 81.5740419,39.1847325 C82.7501517,39.1847325 83.6718469,39.3967447 84.3324323,39.8230008 C84.9952495,40.2514886 85.3277739,40.8339643 85.3277739,41.5681961 C85.2987617,42.8648181 84.2989567,44.0498548 82.3238956,45.1255378 C80.3510662,46.1989891 77.9207367,46.939916 75.0373706,47.3527819 C75.0976267,49.9147821 75.6912609,51.967953 76.8249683,53.5122946 C77.9609074,55.0588679 79.5722002,55.8310387 81.6610785,55.8310387 C82.4265541,55.8310387 83.2076518,55.7149899 84.0021396,55.4784289 C84.7966275,55.2440996 85.5197007,54.8758679 86.1668959,54.3737337 L86.2539325,54.3737337 Z" id="Fill-12" fill="#E29F4C"></path>
                    <path d="M58.5300998,81.7579005 C58.8380754,82.8648274 59.2732584,83.8690958 59.8311853,84.7818641 C60.5988926,83.1661079 60.9805146,81.2222907 60.9805146,78.9548759 C60.9805146,76.5691806 60.4806121,75.3796805 59.4808072,75.3796805 C58.978673,75.3796805 58.6171364,75.680961 58.3961973,76.2857537 C58.17749,76.8883147 58.0659046,77.6002294 58.0659046,78.4259612 C58.0659046,79.5440466 58.2198924,80.655437 58.5300998,81.7579005 Z M69.4610031,72.4650705 C69.4610031,72.4650705 69.7310397,73.1747535 70.2755763,74.6075097 C70.820113,76.0335708 71.0923813,77.6761075 71.0923813,79.5306564 C71.0923813,81.6797907 70.7397715,83.5901323 70.0345519,85.2683764 C69.3271006,86.9466204 68.4210274,88.2432425 67.3185639,89.1560108 C66.2138687,90.0665475 65.0868564,90.5240475 63.9397588,90.5240475 C63.0850148,90.5240475 62.2615147,90.2540109 61.4647951,89.7072426 C60.6703073,89.162706 59.9784779,88.4061571 59.3893072,87.4331326 C58.597051,88.4061571 57.7289168,89.162706 56.7849045,89.7072426 C55.843124,90.2540109 54.8879532,90.5240475 53.9149287,90.5240475 C52.2656968,90.5240475 50.9556845,89.9504987 49.9848918,88.8011693 C49.014099,87.6563034 48.5298185,86.1231203 48.5298185,84.2083153 C48.5298185,83.2665347 48.6525624,82.2823517 48.9047454,81.2490712 C49.1546966,80.220254 49.5117698,78.9972783 49.9848918,77.5846075 L50.4267699,76.2589732 C50.5160382,76.0268756 50.5584406,75.8349488 50.5584406,75.6876561 C50.5584406,75.3328146 50.3084894,75.1565097 49.8085869,75.1565097 L47.2465867,75.1565097 C46.3940744,75.1565097 45.7691963,75.2100707 45.3697207,75.3104975 C44.9724768,75.4153878 44.6868182,75.6207049 44.5082816,75.9286805 C44.3342084,76.2366561 44.184684,76.7477172 44.0664035,77.450705 C44.0664035,77.542205 43.9927572,77.5846075 43.8476962,77.5846075 C43.7294157,77.5846075 43.6334523,77.5555953 43.5598059,77.4998026 C43.4861596,77.4373148 43.4660742,77.3659001 43.4928547,77.2766318 C43.7584279,75.8929732 44.001684,74.9154853 44.222623,74.3397048 C44.4435621,73.7661559 44.7894767,73.3778388 45.260367,73.1680583 C45.7312573,72.964973 46.4677208,72.8600827 47.4675257,72.8600827 L51.7948066,72.8600827 C52.089392,72.8600827 52.2590017,72.8913266 52.3036359,72.949351 C52.3460383,73.0073754 52.3259529,73.1546681 52.2366846,73.3912291 C51.7948066,74.9802048 51.4578187,76.5691806 51.2212577,78.160388 C50.9846967,79.7493637 50.8820382,81.1486443 50.9132821,82.3559981 C50.9132821,84.4738885 51.288209,86.0271569 52.0380627,87.0135716 C52.7879164,87.9999863 53.7542457,88.4931937 54.9303556,88.4931937 C56.4613069,88.4931937 57.757929,87.8013644 58.8157583,86.4199374 C57.8159534,84.3265958 57.3160509,81.8538639 57.3160509,78.9972783 C57.3160509,77.1449611 57.5280631,75.6207049 57.956551,74.4312048 C58.3828071,73.2372413 59.0076852,72.6413754 59.8311853,72.6413754 C60.5386365,72.6413754 61.1144171,73.0810217 61.5540634,73.9625462 C61.9959415,74.8463024 62.2168806,76.2031805 62.2168806,78.0264856 C62.2168806,80.9433272 61.6277098,83.5030957 60.4493682,85.7102545 C61.7459903,87.4509863 63.1876733,88.3146571 64.7788808,88.3146571 C65.6336247,88.3146571 66.448198,88.0423888 67.2292956,87.5000839 C68.0103932,86.9533155 68.6419664,86.1454374 69.1284787,85.0697544 C69.6127592,83.9963031 69.858247,82.7242298 69.858247,81.2490712 C69.858247,79.7493637 69.6283812,78.579949 69.1731128,77.7385953 C68.7156128,76.901705 68.1175152,76.1317659 67.3832834,75.4220829 C66.9994297,75.1274975 66.707076,74.8463024 66.501759,74.5851926 C66.2942102,74.3196194 66.1915516,74.0228023 66.1915516,73.7014364 C66.1915516,73.2863388 66.3522346,72.9783632 66.6758321,72.7752778 C66.9994297,72.5699607 67.3832834,72.4650705 67.8251615,72.4650705 L69.4610031,72.4650705 Z" id="Fill-14" fill="#E29F4C"></path>
                    <path d="M86.9026899,87.6554107 C87.8444704,86.448057 88.3153607,84.8122154 88.3153607,82.754581 C88.3153607,81.1611419 88.0430924,79.6480442 87.4985558,78.2041295 C86.9517874,76.7624464 86.1885435,75.5997268 85.2021287,74.7137389 C84.215714,73.8344462 83.1043237,73.3903364 81.8679577,73.3903364 C80.4262747,73.3903364 79.2189209,73.9817389 78.2458965,75.155617 C77.2773354,76.3361903 76.7908232,77.9541782 76.7908232,80.0140442 C76.7908232,81.5740078 77.0697866,83.0826421 77.6299452,84.539947 C78.1878721,85.9994837 78.9689697,87.1845204 79.9710064,88.0972888 C80.9708113,89.0078255 82.0911285,89.4675572 83.3252627,89.4675572 C84.7669458,89.4675572 85.9609093,88.8627645 86.9026899,87.6554107 M78.0048721,89.4407767 C76.8711647,88.6931547 75.9941036,87.668801 75.3759206,86.3721789 C74.7599694,85.0777886 74.449762,83.6227153 74.449762,82.0024956 C74.449762,80.1747272 74.8179938,78.5254953 75.5522255,77.0570318 C76.288689,75.5841049 77.310811,74.4303121 78.6208233,73.5889584 C79.9308356,72.7520681 81.4260797,72.332507 83.1043237,72.332507 C85.3427263,72.332507 87.1593362,73.0756656 88.5586168,74.5597511 C89.9556657,76.0483 90.6564219,78.1037026 90.6564219,80.7237272 C90.6564219,82.7233371 90.2591779,84.4729958 89.4624583,85.9771667 C88.6679705,87.4791058 87.6079094,88.6195083 86.2845069,89.3961426 C84.9588726,90.1772402 83.5305798,90.5700207 81.9996285,90.5700207 C80.4686771,90.5700207 79.1385795,90.1928621 78.0048721,89.4407767" id="Fill-16" fill="#E29F4C"></path>
                    <path d="M105.756601,87.6554107 C106.698382,86.448057 107.171504,84.8122154 107.171504,82.754581 C107.171504,81.1611419 106.897004,79.6480442 106.352467,78.2041295 C105.80793,76.7624464 105.042455,75.5997268 104.05604,74.7137389 C103.069625,73.8344462 101.960467,73.3903364 100.721869,73.3903364 C99.280186,73.3903364 98.0728322,73.9817389 97.0998077,75.155617 C96.1312467,76.3361903 95.6447344,77.9541782 95.6447344,80.0140442 C95.6447344,81.5740078 95.9236979,83.0826421 96.4838565,84.539947 C97.0417833,85.9994837 97.822881,87.1845204 98.8249176,88.0972888 C99.8247226,89.0078255 100.94504,89.4675572 102.179174,89.4675572 C103.620857,89.4675572 104.814821,88.8627645 105.756601,87.6554107 M96.8587833,89.4407767 C95.7250759,88.6931547 94.8480149,87.668801 94.2320636,86.3721789 C93.6138806,85.0777886 93.3036733,83.6227153 93.3036733,82.0024956 C93.3036733,80.1747272 93.671905,78.5254953 94.4061368,77.0570318 C95.1426003,75.5841049 96.166954,74.4303121 97.4769663,73.5889584 C98.7869786,72.7520681 100.282223,72.332507 101.960467,72.332507 C104.196638,72.332507 106.013247,73.0756656 107.412528,74.5597511 C108.809577,76.0483 109.510333,78.1037026 109.510333,80.7237272 C109.510333,82.7233371 109.113089,84.4729958 108.31637,85.9771667 C107.521882,87.4791058 106.464052,88.6195083 105.138418,89.3961426 C103.812784,90.1772402 102.384491,90.5700207 100.855771,90.5700207 C99.3225884,90.5700207 97.9924907,90.1928621 96.8587833,89.4407767" id="Fill-18" fill="#E29F4C"></path>
                    <path d="M12.498901,32.3496819 C12.498901,33.4052796 11.644157,34.2577918 10.5885594,34.2577918 C9.53296174,34.2577918 8.67821776,33.4052796 8.67821776,32.3496819 C8.67821776,31.2940843 9.53296174,30.4393403 10.5885594,30.4393403 C11.644157,30.4393403 12.498901,31.2940843 12.498901,32.3496819" id="Fill-20" fill="#E29F4C"></path>
                    <path d="M120.356432,87.4418363 C119.577566,88.4461047 118.879041,89.229434 118.260858,89.7873609 C118.144809,89.8922511 118.033224,89.9882146 117.92387,90.0752511 C117.225346,90.6398731 116.488882,90.9233 115.71448,90.9233 C114.882053,90.9233 114.241553,90.6264829 113.795212,90.030617 C113.34887,89.4369828 113.141321,88.55769 113.170333,87.3949704 L113.435907,62.8930539 C113.435907,62.1789075 113.333248,61.6522245 113.125699,61.3107732 C112.915919,60.9670903 112.561077,60.7974805 112.05448,60.7974805 C111.547882,60.7974805 110.804723,61.0184196 109.822772,61.4647611 L109.733504,61.5093952 C109.644236,61.5093952 109.568358,61.4357489 109.510333,61.2862245 C109.450077,61.1389318 109.481321,61.0340415 109.599601,60.9737854 L115.357407,58.161834 L115.446675,58.161834 C115.564956,58.161834 115.676541,58.2064681 115.781431,58.2957364 C115.88409,58.3850047 115.937651,58.4608828 115.937651,58.5211389 L115.71448,86.5491533 C115.71448,87.4418363 115.81937,88.0957266 116.026919,88.5108242 C116.234468,88.9303852 116.562529,89.137934 117.00887,89.137934 C117.752029,89.137934 118.689346,88.4527998 119.820822,87.0847631 C119.849834,87.0557509 119.894468,87.040129 119.954724,87.040129" id="Fill-22" fill="#E29F4C"></path>
                    <g id="Group-26" transform="translate(13.390245, 0.210227)">
                        <mask id="mask-14" fill="white">
                            <use xlink:href="#path-13"></use>
                        </mask>
                        <g id="Clip-25"></g>
                        <path d="M106.852816,37.3047421 C100.961108,24.784863 90.6729365,14.1173012 78.1530574,7.86852021 C65.6554955,1.61973922 50.926226,-0.5896512 37.3128103,1.97681242 C23.3200043,4.56559311 10.4430521,11.9079108 1.24841717,22.5754726 C0.511953699,23.3119361 0.511953699,24.4277898 1.60549037,25.1642533 C2.34195385,25.9007168 3.45780759,25.9007168 4.19427107,24.784863 C12.6524425,14.4966915 24.7929312,7.48912993 38.0492738,4.56559311 C51.2832992,1.61973922 65.2761052,3.44973937 77.416594,9.34144715 C89.5570827,15.2331549 99.8675714,25.1642533 105.759279,37.3047421 C110.780621,47.6598648 113.123914,59.3540121 112.097328,70.8026716 C112.052694,71.2467814 112.00806,71.7176716 111.941109,72.1863302 C111.874158,72.7888912 111.807206,73.4360864 111.717938,74.0364157 C111.717938,74.0832816 111.717938,74.1279157 111.695621,74.217184 C111.673304,74.4403548 111.606353,74.7751109 111.517084,75.2214524 C111.47245,75.6231598 111.383182,76.0471842 111.316231,76.4488915 C111.313999,76.4555866 111.311767,76.4667452 111.309536,76.475672 L111.293914,76.5158427 L111.307304,76.4868306 C111.293914,76.5470867 111.28945,76.6162696 111.269365,76.6720623 C110.316426,82.4945871 105.681169,87.7078558 105.681169,87.7078558 L104.868828,89.575795 C110.579767,84.456258 112.043767,76.7925745 112.429853,74.3287694 L112.454402,74.2841353 L112.539207,73.5699889 C112.539207,73.5632937 112.54367,73.5320498 112.54367,73.5320498 L113.034646,69.3966958 L113.034646,69.3743788 C113.681841,58.3943779 111.539402,47.2581575 106.852816,37.3047421" id="Fill-24" fill="#E29F4C" mask="url(#mask-14)"></path>
                    </g>
                </g>
                <text id="spacing-=-1/4-scale" font-family="Raleway-Light, Raleway" font-size="16" font-weight="300" letter-spacing="0.128000006" fill="#4A4A4A">
                    <tspan x="304.816" y="183">spacing = 1/4 scale of logo</tspan>
                </text>
            </g>
        </g>
    </g>
</svg>