<?xml version="1.0" encoding="UTF-8"?>
<svg width="425px" height="526px" viewBox="0 0 425 526" version="1.1" xmlns="http://www.w3.org/2000/svg" xmlns:xlink="http://www.w3.org/1999/xlink">
    <!-- Generator: Sketch 48.2 (47327) - http://www.bohemiancoding.com/sketch -->
    <title>Group 28</title>
    <desc>Created with Sketch.</desc>
    <defs>
        <circle id="path-1" cx="35.8359759" cy="389.293178" r="35.577441"></circle>
        <mask id="mask-2" maskContentUnits="userSpaceOnUse" maskUnits="objectBoundingBox" x="0" y="0" width="71.154882" height="71.154882" fill="white">
            <use xlink:href="#path-1"></use>
        </mask>
        <circle id="path-3" cx="35.8359759" cy="35.577441" r="35.577441"></circle>
        <mask id="mask-4" maskContentUnits="userSpaceOnUse" maskUnits="objectBoundingBox" x="0" y="0" width="71.154882" height="71.154882" fill="white">
            <use xlink:href="#path-3"></use>
        </mask>
        <circle id="path-5" cx="35.8359759" cy="35.577441" r="35.577441"></circle>
        <mask id="mask-6" maskContentUnits="userSpaceOnUse" maskUnits="objectBoundingBox" x="0" y="0" width="71.154882" height="71.154882" fill="white">
            <use xlink:href="#path-5"></use>
        </mask>
        <circle id="path-7" cx="38.5625959" cy="387.972977" r="35.577441"></circle>
        <mask id="mask-8" maskContentUnits="userSpaceOnUse" maskUnits="objectBoundingBox" x="0" y="0" width="71.154882" height="71.154882" fill="white">
            <use xlink:href="#path-7"></use>
        </mask>
        <polygon id="path-9" points="0.212829962 0.637218891 246.404578 0.637218891 246.404578 194.780939 0.212829962 194.780939"></polygon>
        <circle id="path-11" cx="213.358649" cy="215.358649" r="212.358649"></circle>
        <mask id="mask-12" maskContentUnits="userSpaceOnUse" maskUnits="objectBoundingBox" x="0" y="0" width="424.717299" height="424.717299" fill="white">
            <use xlink:href="#path-11"></use>
        </mask>
        <circle id="path-13" cx="36.577441" cy="490.577441" r="35.577441"></circle>
        <mask id="mask-14" maskContentUnits="userSpaceOnUse" maskUnits="objectBoundingBox" x="0" y="0" width="71.154882" height="71.154882" fill="white">
            <use xlink:href="#path-13"></use>
        </mask>
    </defs>
    <g id="personas" stroke="none" stroke-width="1" fill="none" fill-rule="evenodd">
        <g id="Group-28" transform="translate(-1.000000, -1.000000)">
            <g id="Group-4-Copy" transform="translate(213.000000, 216.500000) rotate(180.000000) translate(-213.000000, -216.500000) translate(177.000000, 4.000000)" opacity="0.5" stroke="#4A4A4A" stroke-dasharray="2,4" stroke-width="2">
                <use id="Oval-Copy-4" mask="url(#mask-2)" xlink:href="#path-1"></use>
                <use id="Oval-Copy-6" mask="url(#mask-4)" xlink:href="#path-3"></use>
            </g>
            <g id="Group-4-Copy-2" transform="translate(213.000000, 216.500000) rotate(90.000000) translate(-213.000000, -216.500000) translate(175.500000, 4.500000)" opacity="0.5" stroke="#4A4A4A" stroke-dasharray="2,4" stroke-width="2">
                <use id="Oval-Copy" mask="url(#mask-6)" xlink:href="#path-5"></use>
                <use id="Oval-Copy-5" mask="url(#mask-8)" xlink:href="#path-7"></use>
            </g>
            <g id="Page-1-Copy-6" transform="translate(75.000000, 73.000000)">
                <path d="M248.848242,217.203606 C248.848242,218.010053 249.65469,218.010053 249.65469,218.010053 L250.461137,217.203606" id="Fill-1" fill="#E29F4C"></path>
                <g id="Group-5" transform="translate(0.000000, 83.548955)" fill="#E29F4C">
                    <path d="M259.291495,122.099478 C258.450834,121.786674 257.458659,121.767123 256.632661,122.109253 C254.794938,122.8766 253.680574,124.714323 252.644411,126.420082 C230.493982,162.866629 190.156937,187.61724 147.630263,190.847919 C105.10359,194.083484 61.4869908,175.716028 34.0873206,143.032904 C6.68276293,110.354667 -3.79616907,64.2014233 6.80006441,22.891753 C8.47649802,16.3668583 10.7492142,9.77842529 15.2311081,4.74912444 C15.9300294,3.96711459 16.7902402,3.17532961 17.8361784,3.17532961 C19.9427175,3.17044205 20.617201,5.99056507 20.6269761,8.09710411 L20.7198397,30.5505619 C20.7296149,32.4860363 20.7784905,34.5534749 21.9075172,36.1223821 C23.6963647,38.6150385 27.5722011,38.7225649 30.226147,37.182983 C32.8849805,35.6482887 34.6054022,32.935692 36.223185,30.3306217 C33.4177247,30.39416 32.3620114,34.7098768 29.5809889,35.0813315 C26.5311504,35.4869991 25.3776859,31.2348206 25.4314491,28.1556568 C25.5536381,21.7627262 25.6709396,15.3697957 25.7931287,8.97197763 C25.8273416,6.85566347 25.8371167,4.60249759 24.7227527,2.79898737 C22.6211012,-0.617418163 17.3132093,-0.685844024 14.0580933,1.66996065 C10.8029773,4.02087776 9.14609396,7.96025239 7.81178965,11.7481126 C-1.47946489,38.1360575 -2.51562794,67.3636757 4.87925271,94.3430155 C8.911491,109.049688 15.4412733,123.052552 24.0238314,135.657573 C32.5037507,148.11108 43.1195344,159.543087 55.1771488,168.575301 C67.3911651,177.719928 81.1447634,184.762904 95.641271,189.503839 C110.142666,194.239886 125.401633,196.67878 140.660601,196.595691 C148.363398,196.556591 156.066195,195.877219 163.646803,194.523365 C203.710145,187.407075 240.107816,161.82069 260.366758,126.527608 C260.747988,125.867788 261.134106,125.159091 261.134106,124.391744 C261.138993,123.292043 260.327658,122.47582 259.291495,122.099478" id="Fill-3"></path>
                </g>
                <path d="M84.3583351,115.462169 C84.6173759,115.462169 84.861754,115.579471 85.0865818,115.799411 C85.3114096,116.029126 85.3602852,116.209966 85.2283211,116.337043 C83.2293084,118.917675 81.4746738,120.814049 79.9595297,122.040827 C78.4443856,123.262717 76.846153,123.873662 75.1746069,123.873662 C71.4991606,123.873662 69.7249758,121.33213 69.8520524,116.239291 L69.9498036,99.0204119 C69.9498036,91.8063711 68.0485422,88.1895755 64.2411317,88.1895755 C61.7924634,88.1895755 59.5539602,89.5141047 57.5207346,92.1582755 C55.4923965,94.8024463 53.8599509,98.6978329 52.6380606,103.859098 C51.4161702,109.015475 50.7661245,115.168915 50.7074737,122.334081 C50.7074737,122.783736 50.4288827,123.135641 49.8814758,123.394681 C49.3340689,123.653722 48.5471715,123.780799 47.515896,123.780799 C46.5481588,123.780799 45.8981132,123.731923 45.5755341,123.63906 C45.2578426,123.536421 45.0330148,123.394681 44.9010506,123.199179 C44.9010506,122.945026 44.9499262,122.05549 45.0476774,120.540345 C45.1454287,119.025201 45.1943043,117.461182 45.1943043,115.848286 L45.3849192,94.2843648 C45.3849192,92.3488904 45.130766,90.9168348 44.6126845,89.978423 C44.0946029,89.0497863 43.3859065,88.5756929 42.4865952,88.5756929 C41.0643148,88.5756929 38.9089001,90.1250499 36.000801,93.2188763 C35.8737244,93.3557281 35.7808607,93.4192664 35.7173224,93.4192664 C35.4582816,93.4192664 35.2334538,93.2970773 35.0379514,93.0771371 C34.8424489,92.8523092 34.8131235,92.6372565 34.9402001,92.4515292 C36.8756745,89.8660091 38.6791847,87.950085 40.3556183,86.6939817 C42.032052,85.4378783 43.7720239,84.8073829 45.5755341,84.8073829 C47.3839319,84.8073829 48.6937984,85.4232156 49.500246,86.6402185 C50.3018061,87.8669964 50.7074737,89.7438201 50.7074737,92.2511392 L50.7074737,105.985187 C51.9293641,99.2159144 53.9430395,93.9275728 56.7533874,90.1250499 C59.5539602,86.3274145 62.955703,84.4212655 66.9537284,84.4212655 C69.7885141,84.4212655 71.9146034,85.4378783 73.3368838,87.4662164 C74.7542766,89.499442 75.4287601,92.7398953 75.3701094,97.1875763 L75.2674706,114.401568 C75.2674706,116.337043 75.4776358,117.754435 75.897966,118.658634 C76.3134088,119.562833 77.0123301,120.012489 77.9751797,120.012489 C79.4609984,120.012489 81.5235494,118.521783 84.1677202,115.564808 L84.3583351,115.462169 Z" id="Fill-6" fill="#E29F4C"></path>
                <path d="M108.97014,115.510067 C111.257519,112.841459 113.046366,109.644993 114.336683,105.940222 C115.626999,102.230562 116.272157,98.9558961 116.272157,96.125998 C116.272157,93.4182889 115.529248,91.3557379 114.053204,89.9334575 C112.562498,88.5160646 110.436409,87.8073682 107.665161,87.8073682 C104.825488,87.8073682 102.279068,88.5600527 100.025902,90.0800843 C97.767849,91.5903408 95.9936642,93.7897435 94.7033479,96.6538546 C93.4130317,99.5228533 92.7727611,102.924596 92.7727611,106.859083 C92.8362994,111.111262 93.6085341,114.288177 95.0943529,116.384941 C96.575284,118.476817 98.5742967,119.522755 101.086503,119.522755 C104.053253,119.522755 106.682761,118.183563 108.97014,115.510067 M130.685576,115.461192 C130.876191,115.461192 131.086356,115.578493 131.311184,115.803321 C131.536012,116.028149 131.614213,116.208988 131.555562,116.336065 C129.488124,118.980236 127.704164,120.901048 126.184132,122.088725 C124.668988,123.286178 123.075643,123.872685 121.394322,123.872685 C119.590811,123.872685 118.222294,123.212864 117.28877,121.893223 C116.350358,120.578468 115.920253,118.686982 115.983791,116.238314 L116.174406,105.216862 C114.175393,111.077049 111.677849,115.720232 108.681774,119.136638 C105.685699,122.562818 102.313281,124.26369 98.5742967,124.26369 C95.5440085,124.26369 92.9487133,123.134663 90.7884111,120.87661 C88.6281089,118.628331 87.5528454,115.207038 87.5528454,110.627393 C87.5528454,106.047748 88.6427716,101.751581 90.8372867,97.7144555 C93.0269143,93.6919923 95.9154632,90.4662017 99.4931583,88.0468587 C103.070853,85.6275157 106.795175,84.420288 110.661236,84.420288 C112.850864,84.420288 114.791226,84.8406183 116.46766,85.6812789 L116.756026,63.139845 C116.883102,60.1144443 115.851827,58.5944127 113.657312,58.5944127 C112.435421,58.5944127 110.793201,59.0782813 108.73065,60.0460185 C108.662224,60.1144443 108.56936,60.1437697 108.437396,60.1437697 C108.178355,60.1437697 108.007291,59.9824802 107.909539,59.6599011 C107.8069,59.3373221 107.889989,59.1124942 108.14903,58.9854176 L120.817589,52.8857408 L121.008204,52.8857408 C121.203707,52.8857408 121.428535,52.9883796 121.687575,53.1789945 C121.941729,53.3744969 122.073693,53.5357865 122.073693,53.6628631 L121.49696,114.400591 C121.49696,116.336065 121.702238,117.753458 122.122568,118.657657 C122.542899,119.561856 123.232045,120.011511 124.20467,120.011511 C125.685601,120.011511 127.748152,118.525693 130.392322,115.56383 C130.455861,115.500292 130.553612,115.461192 130.685576,115.461192" id="Fill-8" fill="#E29F4C"></path>
                <path d="M139.097558,72.3763588 C138.325324,71.638337 137.939206,70.5875113 137.939206,69.2336567 C137.939206,68.0117663 138.325324,67.0440291 139.097558,66.3304451 C139.874681,65.6217487 140.935282,65.2698443 142.289136,65.2698443 C143.511026,65.2698443 144.493426,65.6217487 145.241223,66.3304451 C145.979245,67.0440291 146.3507,68.0117663 146.3507,69.2336567 C146.3507,70.5875113 145.993908,71.638337 145.290099,72.3763588 C144.576515,73.1192682 143.579452,73.4907228 142.289136,73.4907228 C140.935282,73.4907228 139.874681,73.1192682 139.097558,72.3763588 M141.565777,121.946008 C140.627365,120.655692 140.19726,118.749543 140.25591,116.242224 L140.549164,94.2824097 C140.612702,90.4847744 139.679178,88.5737378 137.743704,88.5737378 C136.199234,88.5737378 134.034045,90.1279824 131.267685,93.2218089 C131.135721,93.353773 131.037969,93.4173113 130.974431,93.4173113 C130.71539,93.4173113 130.490562,93.3000099 130.299948,93.0800696 C130.104445,92.8503542 130.07512,92.6401891 130.202196,92.4495742 C132.137671,89.8689416 133.936293,87.94813 135.617615,86.6969142 C137.294048,85.4359233 139.03402,84.8054279 140.83753,84.8054279 C142.645928,84.8054279 143.96557,85.4212606 144.801343,86.6382635 C145.642003,87.869929 146.062334,89.741865 146.062334,92.2540717 L145.76908,114.399613 C145.76908,118.138598 146.673279,120.010534 148.476789,120.010534 C150.094572,120.010534 152.157123,118.524715 154.66933,115.562853 C154.732868,115.499314 154.830619,115.460214 154.957696,115.460214 C155.216736,115.460214 155.461115,115.577515 155.685942,115.802343 C155.905883,116.027171 155.959646,116.208011 155.832569,116.335088 C153.833557,118.91572 152.059372,120.812094 150.510015,122.043759 C148.965545,123.260762 147.347762,123.876595 145.676216,123.876595 C143.872706,123.876595 142.499301,123.231437 141.565777,121.946008" id="Fill-10" fill="#E29F4C"></path>
                <path d="M167.043658,90.8977734 C165.367224,93.4784059 164.467913,96.8312731 164.335949,100.956375 C174.71713,99.2164031 179.90772,95.8928613 179.90772,90.9955246 C179.90772,89.7100959 179.423851,88.727696 178.456114,88.048325 C177.488377,87.3738415 176.163848,87.0317122 174.487414,87.0317122 C171.20786,87.0317122 168.724979,88.326916 167.043658,90.8977734 Z M188.900833,117.686498 C189.096336,117.686498 189.301613,117.78425 189.531329,117.979752 C189.751269,118.170367 189.805032,118.365869 189.677956,118.561372 C185.425777,122.300356 180.679955,124.167405 175.460039,124.167405 C171.843243,124.167405 168.754304,123.331632 166.173672,121.655198 C163.593039,119.978765 161.657565,117.754924 160.372136,114.983677 C159.08182,112.212429 158.436662,109.245679 158.436662,106.07854 C158.436662,102.339555 159.306648,98.8156231 161.04662,95.4920812 C162.791479,92.1734269 165.191272,89.4950432 168.250886,87.4667051 C171.315387,85.4383671 174.780668,84.4217543 178.651617,84.4217543 C181.227362,84.4217543 183.245925,84.8860726 184.692643,85.8195969 C186.144249,86.7580087 186.872495,88.0336623 186.872495,89.64167 C186.808957,92.4813433 184.619329,95.0766385 180.293837,97.4324432 C175.973233,99.7833603 170.650678,101.406031 164.335949,102.31023 C164.467913,107.92115 165.768004,112.417707 168.250886,115.7999 C170.738654,119.18698 174.267474,120.878076 178.842232,120.878076 C180.518665,120.878076 182.229312,120.623923 183.969284,120.105841 C185.709256,119.592647 187.292825,118.7862 188.710218,117.686498 L188.900833,117.686498 Z" id="Fill-12" fill="#E29F4C"></path>
                <path d="M128.184122,177.659322 C128.858606,180.083553 129.81168,182.282956 131.033571,184.281968 C132.714892,180.743374 133.550665,176.486308 133.550665,171.520545 C133.550665,166.295742 132.455851,163.690672 130.266223,163.690672 C129.166522,163.690672 128.374737,164.350492 127.890868,165.675022 C127.411887,166.994663 127.167509,168.553795 127.167509,170.362193 C127.167509,172.810861 127.504751,175.244867 128.184122,177.659322 Z M152.123399,157.307516 C152.123399,157.307516 152.714794,158.861761 153.907359,161.999575 C155.099924,165.122727 155.696206,168.719972 155.696206,172.781536 C155.696206,177.488258 154.923971,181.672011 153.379502,185.347457 C151.830145,189.022903 149.845795,191.862576 147.43134,193.861589 C145.011997,195.855714 142.543778,196.857664 140.031571,196.857664 C138.159635,196.857664 136.356125,196.266269 134.611266,195.068817 C132.871294,193.876252 131.35615,192.219368 130.065833,190.088392 C128.330749,192.219368 126.429488,193.876252 124.362049,195.068817 C122.299498,196.266269 120.207622,196.857664 118.076645,196.857664 C114.464737,196.857664 111.595738,195.601561 109.469649,193.084467 C107.34356,190.577148 106.282959,187.219393 106.282959,183.025865 C106.282959,180.963314 106.551775,178.807899 107.104069,176.544958 C107.651476,174.291793 108.433486,171.613409 109.469649,168.519582 L110.437386,165.616371 C110.632889,165.108064 110.725752,164.687734 110.725752,164.365155 C110.725752,163.588033 110.178345,163.201915 109.083532,163.201915 L103.472611,163.201915 C101.605562,163.201915 100.237045,163.319217 99.3621716,163.539157 C98.4921857,163.768873 97.8665778,164.218528 97.4755728,164.893012 C97.094343,165.567495 96.7668764,166.686747 96.5078357,168.226329 C96.5078357,168.426719 96.3465461,168.519582 96.0288546,168.519582 C95.7698139,168.519582 95.5596487,168.456044 95.3983592,168.333855 C95.2370697,168.197003 95.1930816,168.040601 95.2517323,167.845099 C95.8333522,164.814811 96.3660964,162.674059 96.849965,161.413068 C97.3338336,160.156965 98.0914056,159.306529 99.1226811,158.847098 C100.153957,158.40233 101.766852,158.172615 103.956479,158.172615 L113.433461,158.172615 C114.078619,158.172615 114.450074,158.24104 114.547825,158.368117 C114.640689,158.495194 114.596701,158.817773 114.401199,159.335854 C113.433461,162.815798 112.69544,166.295742 112.177358,169.780573 C111.659277,173.260517 111.434449,176.325018 111.502875,178.969189 C111.502875,183.607485 112.323985,187.009228 113.966206,189.16953 C115.608426,191.329832 117.72474,192.409983 120.300485,192.409983 C123.653353,192.409983 126.493026,190.894839 128.80973,187.869439 C126.620102,183.284906 125.525289,177.869488 125.525289,171.613409 C125.525289,167.556733 125.989607,164.218528 126.928019,161.613458 C127.861543,158.998612 129.23006,157.693633 131.033571,157.693633 C132.582928,157.693633 133.843918,158.656483 134.806768,160.58707 C135.774505,162.522544 136.258374,165.494182 136.258374,169.48732 C136.258374,175.875363 134.968058,181.481396 132.387425,186.315194 C135.227098,190.127492 138.384463,192.018978 141.869295,192.018978 C143.741231,192.018978 145.525191,191.422696 147.235837,190.235018 C148.946484,189.037566 150.329664,187.268269 151.395152,184.912464 C152.455753,182.561547 152.993385,179.775637 152.993385,176.544958 C152.993385,173.260517 152.489966,170.699435 151.492903,168.856824 C150.490953,167.023989 149.181087,165.33778 147.573079,163.783535 C146.732418,163.138377 146.092148,162.522544 145.642492,161.9507 C145.187949,161.36908 144.963121,160.719034 144.963121,160.015225 C144.963121,159.106139 145.315025,158.431655 146.023722,157.986887 C146.732418,157.537232 147.573079,157.307516 148.540816,157.307516 L152.123399,157.307516 Z" id="Fill-14" fill="#E29F4C"></path>
                <path d="M190.321647,190.575193 C192.384198,187.931022 193.415474,184.348439 193.415474,179.842107 C193.415474,176.352389 192.819191,173.038622 191.626626,169.876369 C190.429174,166.719005 188.757628,164.172585 186.597325,162.232223 C184.437023,160.306524 182.003018,159.333899 179.295308,159.333899 C176.137944,159.333899 173.493773,160.629103 171.362796,163.19996 C169.241594,165.78548 168.176106,169.328963 168.176106,173.840182 C168.176106,177.256587 168.787051,180.560579 170.013829,183.752157 C171.235719,186.948622 172.946366,189.543917 175.140881,191.54293 C177.330509,193.537055 179.784065,194.543893 182.486886,194.543893 C185.644251,194.543893 188.259096,193.219363 190.321647,190.575193 M170.834939,194.485242 C168.352058,192.847909 166.431246,190.604518 165.077392,187.764845 C163.728425,184.930059 163.049054,181.743369 163.049054,178.194999 C163.049054,174.192086 163.855502,170.580178 165.463509,167.364163 C167.076405,164.138372 169.314908,161.611503 172.183906,159.768892 C175.052905,157.936057 178.327571,157.017195 182.003018,157.017195 C186.905242,157.017195 190.883717,158.644753 193.948218,161.894981 C197.007832,165.154985 198.542526,169.656429 198.542526,175.394426 C198.542526,179.773682 197.67254,183.60553 195.92768,186.899746 C194.187709,190.189075 191.866117,192.686619 188.967793,194.387491 C186.064581,196.098137 182.936542,196.958348 179.583675,196.958348 C176.230807,196.958348 173.317821,196.13235 170.834939,194.485242" id="Fill-16" fill="#E29F4C"></path>
                <path d="M231.612745,190.575193 C233.675296,187.931022 234.711459,184.348439 234.711459,179.842107 C234.711459,176.352389 234.110289,173.038622 232.917724,169.876369 C231.725159,166.719005 230.048725,164.172585 227.888423,162.232223 C225.728121,160.306524 223.299003,159.333899 220.586406,159.333899 C217.429041,159.333899 214.784871,160.629103 212.653894,163.19996 C210.532692,165.78548 209.467204,169.328963 209.467204,173.840182 C209.467204,177.256587 210.078149,180.560579 211.304927,183.752157 C212.526817,186.948622 214.237464,189.543917 216.431979,191.54293 C218.621606,193.537055 221.075162,194.543893 223.777984,194.543893 C226.935349,194.543893 229.550194,193.219363 231.612745,190.575193 M212.126037,194.485242 C209.643156,192.847909 207.722344,190.604518 206.373377,187.764845 C205.019523,184.930059 204.340151,181.743369 204.340151,178.194999 C204.340151,174.192086 205.146599,170.580178 206.754607,167.364163 C208.367502,164.138372 210.610893,161.611503 213.479892,159.768892 C216.34889,157.936057 219.623556,157.017195 223.299003,157.017195 C228.196339,157.017195 232.174815,158.644753 235.239316,161.894981 C238.298929,165.154985 239.833624,169.656429 239.833624,175.394426 C239.833624,179.773682 238.963638,183.60553 237.218778,186.899746 C235.478806,190.189075 233.162102,192.686619 230.25889,194.387491 C227.355679,196.098137 224.227639,196.958348 220.87966,196.958348 C217.521905,196.958348 214.608918,196.13235 212.126037,194.485242" id="Fill-18" fill="#E29F4C"></path>
                <path d="M27.3732773,69.4526195 C27.3732773,71.7644361 25.5013412,73.6314846 23.1895246,73.6314846 C20.877708,73.6314846 19.0057719,71.7644361 19.0057719,69.4526195 C19.0057719,67.1408029 20.877708,65.2688668 23.1895246,65.2688668 C25.5013412,65.2688668 27.3732773,67.1408029 27.3732773,69.4526195" id="Fill-20" fill="#E29F4C"></path>
                <path d="M263.587173,190.107453 C261.881414,192.306856 260.351607,194.02239 258.997752,195.24428 C258.743599,195.473996 258.499221,195.684161 258.259731,195.874776 C256.729924,197.111329 255.117029,197.732049 253.421045,197.732049 C251.597984,197.732049 250.195254,197.082003 249.217742,195.777024 C248.240229,194.476933 247.785686,192.551234 247.849225,190.004814 L248.430844,136.344276 C248.430844,134.780256 248.206017,133.626792 247.751473,132.878995 C247.292043,132.12631 246.51492,131.754856 245.405444,131.754856 C244.295967,131.754856 242.668409,132.238724 240.517882,133.216236 L240.32238,133.313988 C240.126877,133.313988 239.9607,133.152698 239.833624,132.825231 C239.701659,132.502652 239.770085,132.272937 240.029126,132.140973 L252.639035,125.982645 L252.834537,125.982645 C253.093578,125.982645 253.337956,126.080397 253.567672,126.275899 C253.792499,126.471401 253.909801,126.637579 253.909801,126.769543 L253.421045,188.152428 C253.421045,190.107453 253.65076,191.539509 254.105303,192.448595 C254.559847,193.367457 255.278318,193.822 256.25583,193.822 C257.883388,193.822 259.936164,192.321518 262.414158,189.325443 C262.477696,189.261905 262.575448,189.227692 262.707412,189.227692" id="Fill-22" fill="#E29F4C"></path>
                <g id="Group-26" transform="translate(30.720324, 0.460408)">
                    <mask id="mask-10" fill="white">
                        <use xlink:href="#path-9"></use>
                    </mask>
                    <g id="Clip-25"></g>
                    <path d="M232.618561,80.3044724 C219.715398,52.885252 197.183739,29.5227077 169.764519,15.8375354 C142.394174,2.15236298 110.136268,-2.68632297 80.3221423,2.93437283 C49.6771313,8.60394424 21.475901,24.6840218 1.33914737,48.0465661 C-0.273747947,49.6594614 -0.273747947,52.1032422 2.12115722,53.7161375 C3.73405254,55.3290328 6.17783332,55.3290328 7.79072864,52.885252 C26.314587,30.3535932 52.9029219,15.0066499 81.9350376,8.60394424 C110.918278,2.15236298 141.563289,6.16016346 168.151624,19.063326 C194.739959,31.9664885 217.320493,53.7161375 230.223656,80.3044724 C241.220669,102.982758 246.352609,128.593581 244.10433,153.666772 C244.006579,154.639396 243.908828,155.670672 243.762201,156.69706 C243.615574,158.016701 243.468947,159.434094 243.273445,160.748848 C243.273445,160.851487 243.273445,160.949238 243.224569,161.144741 C243.175694,161.633497 243.029067,162.366631 242.833564,163.344143 C242.735813,164.223905 242.540311,165.152541 242.393684,166.032302 C242.388796,166.046965 242.383909,166.071403 242.379021,166.090953 L242.344808,166.178929 L242.374134,166.115391 C242.344808,166.247355 242.335033,166.398869 242.291045,166.521058 C240.204056,179.272707 230.052591,190.69005 230.052591,190.69005 L228.273518,194.780939 C240.780788,183.568873 243.987029,166.784987 244.832577,161.389119 L244.88634,161.291368 L245.072068,159.727348 C245.072068,159.712685 245.081843,159.644259 245.081843,159.644259 L246.157106,150.587608 L246.157106,150.538732 C247.574499,126.491929 242.88244,102.102997 232.618561,80.3044724" id="Fill-24" fill="#E29F4C" mask="url(#mask-10)"></path>
                </g>
            </g>
            <use id="Oval-Copy-2" stroke-opacity="0.89" stroke="#4A4A4A" mask="url(#mask-12)" stroke-width="2" opacity="0.498309235" stroke-linecap="round" stroke-dasharray="2,4" xlink:href="#path-11"></use>
            <g id="Group-5-Copy" opacity="0.5" stroke="#4A4A4A" stroke-dasharray="2,4">
                <path d="M3.15799203,356.193269 L426.212867,356.193269" id="Path-2"></path>
                <path d="M3.15799203,426.4365 L426.212867,426.4365" id="Path-2-Copy"></path>
                <path d="M3.15799203,2.49942882 L426.212867,2.49942882" id="Path-2"></path>
                <path d="M3.15799203,72.74266 L426.212867,72.74266" id="Path-2-Copy"></path>
                <path d="M213.090912,214.044188 L636.145787,214.044188" id="Path-2" transform="translate(424.618349, 214.044188) rotate(90.000000) translate(-424.618349, -214.044188) "></path>
                <path d="M142.847681,214.044188 L565.902556,214.044188" id="Path-2-Copy" transform="translate(354.375118, 214.044188) rotate(90.000000) translate(-354.375118, -214.044188) "></path>
                <g id="Group-2" transform="translate(0.017068, 2.190055)">
                    <path d="M-138.429942,211.854133 L284.624934,211.854133" id="Path-2" transform="translate(73.097496, 211.854133) rotate(90.000000) translate(-73.097496, -211.854133) "></path>
                    <path d="M-208.673173,211.854133 L214.381703,211.854133" id="Path-2-Copy" transform="translate(2.854265, 211.854133) rotate(90.000000) translate(-2.854265, -211.854133) "></path>
                </g>
            </g>
            <use id="Oval-Copy" stroke="#4A4A4A" mask="url(#mask-14)" stroke-width="2" opacity="0.5" stroke-dasharray="2,4" xlink:href="#path-13"></use>
            <text id="spacing-=-1/4-scale" font-family="Raleway-Light, Raleway" font-size="18" font-weight="300" letter-spacing="0.144000009" fill="#4A4A4A">
                <tspan x="82.9455387" y="497">spacing = 1/4 scale of logo</tspan>
            </text>
        </g>
    </g>
</svg>