<svg xmlns="http://www.w3.org/2000/svg" viewBox="0 0 56.7 57.09"><defs><style>.cls-1{isolation:isolate;}.cls-2,.cls-3,.cls-4{fill:#4a4a4a;}.cls-3,.cls-4{stroke:#000;stroke-miterlimit:10;}.cls-3{stroke-width:0.5px;}.cls-4{stroke-width:0.25px;}</style></defs><title>Asset 1</title><g id="Layer_2" data-name="Layer 2"><g id="Layer_1-2" data-name="Layer 1"><g class="cls-1"><path class="cls-2" d="M50.91,44.22a.16.16,0,0,0,.16.16l.16-.16"/></g><path class="cls-2" d="M53.05,41.85a.76.76,0,0,0-.54,0,2,2,0,0,0-.82.88A28.06,28.06,0,0,1,30.21,55.92,28.06,28.06,0,0,1,7,46.13,28.06,28.06,0,0,1,1.39,21.55a8.71,8.71,0,0,1,1.72-3.71.78.78,0,0,1,.53-.32c.43,0,.57.58.57,1l0,4.59a1.94,1.94,0,0,0,.24,1.14,1.33,1.33,0,0,0,1.7.22,3.86,3.86,0,0,0,1.23-1.4c-.57,0-.79.9-1.36,1s-.86-.79-.85-1.42l.07-3.93a2.3,2.3,0,0,0-.22-1.26,1.56,1.56,0,0,0-2.18-.23A4.1,4.1,0,0,0,1.6,19.27a28.53,28.53,0,0,0,9.69,32.09,28.69,28.69,0,0,0,8.28,4.28,29.23,29.23,0,0,0,9.21,1.45,27.72,27.72,0,0,0,4.7-.42A29,29,0,0,0,53.27,42.76a.92.92,0,0,0,.16-.44A.52.52,0,0,0,53.05,41.85Z"/><path class="cls-2" d="M17.26,23.4a.21.21,0,0,1,.15.07s.06.08,0,.11a7.21,7.21,0,0,1-1.08,1.17,1.54,1.54,0,0,1-1,.38q-1.13,0-1.09-1.56l0-3.52q0-2.21-1.17-2.22a1.75,1.75,0,0,0-1.38.81,6.37,6.37,0,0,0-1,2.39,17.21,17.21,0,0,0-.4,3.78.24.24,0,0,1-.17.22,1.17,1.17,0,0,1-.48.08,1.72,1.72,0,0,1-.4,0A.25.25,0,0,1,9.19,25c0-.05,0-.23,0-.54s0-.63,0-1l0-4.41a1.89,1.89,0,0,0-.16-.88.49.49,0,0,0-.44-.29q-.44,0-1.33,1l-.06,0a.18.18,0,0,1-.14-.07.1.1,0,0,1,0-.13,5.83,5.83,0,0,1,1.11-1.18,1.76,1.76,0,0,1,1.07-.39.89.89,0,0,1,.8.38,2.13,2.13,0,0,1,.25,1.15v2.81a7.77,7.77,0,0,1,1.24-3.24A2.53,2.53,0,0,1,13.7,17a1.49,1.49,0,0,1,1.31.62,3.46,3.46,0,0,1,.42,2l0,3.52a2.19,2.19,0,0,0,.13.87.44.44,0,0,0,.43.28q.46,0,1.27-.91Z"/><path class="cls-2" d="M26.74,23.4a.2.2,0,0,1,.13.07s.06.08,0,.11a7,7,0,0,1-1.1,1.18,1.56,1.56,0,0,1-1,.37,1,1,0,0,1-.84-.41,1.89,1.89,0,0,1-.27-1.16l0-2.26a8.4,8.4,0,0,1-1.53,2.85,2.71,2.71,0,0,1-2.07,1,2.12,2.12,0,0,1-1.59-.69,2.93,2.93,0,0,1-.66-2.1,5.45,5.45,0,0,1,.67-2.64,5.54,5.54,0,0,1,1.77-2A4,4,0,0,1,22.64,17a2.61,2.61,0,0,1,1.19.26l.06-4.61q0-.93-.63-.93a2.57,2.57,0,0,0-1,.3l-.06,0c-.05,0-.09,0-.11-.1a.1.1,0,0,1,0-.14l2.59-1.25h0a.25.25,0,0,1,.14.06c.05,0,.08.07.08.1l-.12,12.43a2.19,2.19,0,0,0,.13.87.44.44,0,0,0,.43.28q.46,0,1.27-.91Zm-4.44,0a6,6,0,0,0,1.1-2,6.22,6.22,0,0,0,.4-2,1.68,1.68,0,0,0-.45-1.27A1.82,1.82,0,0,0,22,17.74a2.73,2.73,0,0,0-1.56.47,3.1,3.1,0,0,0-1.09,1.34,5.06,5.06,0,0,0-.4,2.09,3.48,3.48,0,0,0,.48,1.95,1.43,1.43,0,0,0,1.23.64A2.08,2.08,0,0,0,22.3,23.41Z"/><path class="cls-2" d="M29,24.73a1.9,1.9,0,0,1-.27-1.17l.06-4.49q0-1.17-.57-1.17t-1.33,1l-.06,0a.18.18,0,0,1-.14-.07.1.1,0,0,1,0-.13,5.83,5.83,0,0,1,1.11-1.18,1.76,1.76,0,0,1,1.07-.39.92.92,0,0,1,.81.38,2.06,2.06,0,0,1,.26,1.15l-.06,4.53q0,1.15.55,1.15t1.27-.91l.06,0a.21.21,0,0,1,.15.07s.06.08,0,.11a6.89,6.89,0,0,1-1.09,1.17,1.58,1.58,0,0,1-1,.38A1,1,0,0,1,29,24.73Zm-.5-10.14a.85.85,0,0,1-.24-.64.77.77,0,0,1,.24-.59.93.93,0,0,1,.65-.22.84.84,0,0,1,.6.22.79.79,0,0,1,.23.59.89.89,0,0,1-.22.64.81.81,0,0,1-.61.23A.9.9,0,0,1,28.46,14.58Z"/><path class="cls-2" d="M38.65,23.85a.2.2,0,0,1,.13.06s.06.08,0,.12a4.3,4.3,0,0,1-2.91,1.15,3.41,3.41,0,0,1-1.9-.51,3.22,3.22,0,0,1-1.19-1.37,4.26,4.26,0,0,1-.4-1.82A4.6,4.6,0,0,1,33,19.31a4.38,4.38,0,0,1,1.47-1.64A3.76,3.76,0,0,1,36.55,17a2.27,2.27,0,0,1,1.24.29.89.89,0,0,1,.45.78q0,.87-1.35,1.59a9.68,9.68,0,0,1-3.26,1,4.75,4.75,0,0,0,.8,2.76,2.53,2.53,0,0,0,2.17,1,3.65,3.65,0,0,0,1-.16,2.92,2.92,0,0,0,1-.49Zm-4.47-5.48a4,4,0,0,0-.55,2.06q3.19-.53,3.19-2a.69.69,0,0,0-.3-.6,1.4,1.4,0,0,0-.81-.21A1.7,1.7,0,0,0,34.18,18.37Z"/><path class="cls-2" d="M31.12,32l.37,1a6.16,6.16,0,0,1,.37,2.21,6.58,6.58,0,0,1-.48,2.57,4.45,4.45,0,0,1-1.22,1.74,2.37,2.37,0,0,1-1.51.61,1.93,1.93,0,0,1-1.11-.37,3.24,3.24,0,0,1-.93-1,4.25,4.25,0,0,1-1.17,1,2.53,2.53,0,0,1-1.29.37,2.18,2.18,0,0,1-1.76-.77,3.08,3.08,0,0,1-.65-2.06,5.59,5.59,0,0,1,.17-1.33q.17-.69.48-1.64l.2-.59a.75.75,0,0,0,.06-.26c0-.16-.11-.24-.34-.24H21.17a3.75,3.75,0,0,0-.84.07.59.59,0,0,0-.39.28,2.22,2.22,0,0,0-.2.68s0,.06-.1.06a.2.2,0,0,1-.13,0,.08.08,0,0,1,0-.1,8.59,8.59,0,0,1,.33-1.32.88.88,0,0,1,.46-.52,2.64,2.64,0,0,1,1-.14h1.94c.13,0,.21,0,.23,0s0,.09,0,.2A17.52,17.52,0,0,0,23,34.51a11,11,0,0,0-.14,1.88,3.47,3.47,0,0,0,.5,2.09,1.56,1.56,0,0,0,1.3.66,2.13,2.13,0,0,0,1.74-.93,7.63,7.63,0,0,1-.67-3.33,6.14,6.14,0,0,1,.29-2q.29-.8.84-.8a.88.88,0,0,1,.77.59,4.27,4.27,0,0,1,.3,1.82,7.21,7.21,0,0,1-.79,3.44A2.44,2.44,0,0,0,29,39.06a1.9,1.9,0,0,0,1.1-.37A2.58,2.58,0,0,0,31,37.61a4.12,4.12,0,0,0,.33-1.71A3.33,3.33,0,0,0,31,34.32a4.3,4.3,0,0,0-.8-1,2.23,2.23,0,0,1-.4-.38.63.63,0,0,1-.14-.4.46.46,0,0,1,.22-.42.94.94,0,0,1,.51-.14Zm-4.9,4.16a5.32,5.32,0,0,0,.58,1.36,6.06,6.06,0,0,0,.51-2.61q0-1.6-.67-1.6-.34,0-.49.41a2.81,2.81,0,0,0-.15,1A5.51,5.51,0,0,0,26.23,36.12Z"/><path class="cls-2" d="M35,39.57a3.32,3.32,0,0,1-1.18-1.38,4.48,4.48,0,0,1-.42-2A4.89,4.89,0,0,1,33.85,34a3.85,3.85,0,0,1,1.38-1.55,3.65,3.65,0,0,1,2-.56,3.2,3.2,0,0,1,2.44,1,3.87,3.87,0,0,1,.94,2.76A5,5,0,0,1,40.09,38a3.77,3.77,0,0,1-1.43,1.53,3.72,3.72,0,0,1-1.92.52A3.17,3.17,0,0,1,35,39.57Zm4-.8a3.48,3.48,0,0,0,.63-2.2,5.73,5.73,0,0,0-.37-2,3.91,3.91,0,0,0-1-1.56,2.19,2.19,0,0,0-1.49-.59,2,2,0,0,0-1.62.79,3.33,3.33,0,0,0-.65,2.18,5.61,5.61,0,0,0,.38,2,4.1,4.1,0,0,0,1,1.59,2.18,2.18,0,0,0,1.5.61A2,2,0,0,0,38.94,38.77Z"/><path class="cls-2" d="M43.4,39.57a3.32,3.32,0,0,1-1.18-1.38,4.48,4.48,0,0,1-.42-2A4.89,4.89,0,0,1,42.3,34a3.85,3.85,0,0,1,1.38-1.55,3.65,3.65,0,0,1,2-.56,3.2,3.2,0,0,1,2.44,1,3.87,3.87,0,0,1,.94,2.76A5,5,0,0,1,48.54,38a3.77,3.77,0,0,1-1.43,1.53,3.72,3.72,0,0,1-1.92.52A3.17,3.17,0,0,1,43.4,39.57Zm4-.8a3.48,3.48,0,0,0,.63-2.2,5.73,5.73,0,0,0-.37-2,3.91,3.91,0,0,0-1-1.56,2.19,2.19,0,0,0-1.49-.59,2,2,0,0,0-1.62.79,3.33,3.33,0,0,0-.65,2.18,5.61,5.61,0,0,0,.38,2,4.1,4.1,0,0,0,1,1.59,2.18,2.18,0,0,0,1.5.61A2,2,0,0,0,47.39,38.77Z"/><g class="cls-1"><circle class="cls-2" cx="4.74" cy="13.99" r="0.86"/></g><path class="cls-2" d="M53.93,38.67A8.22,8.22,0,0,1,53,39.72l-.15.13a1.56,1.56,0,0,1-1,.38,1,1,0,0,1-.86-.4,1.87,1.87,0,0,1-.28-1.18l.12-11a1.41,1.41,0,0,0-.14-.71.52.52,0,0,0-.48-.23,2.71,2.71,0,0,0-1,.3l0,0s-.07,0-.1-.1,0-.11,0-.14l2.58-1.26h0a.23.23,0,0,1,.15.06s.07.07.07.1l-.1,12.56a2.07,2.07,0,0,0,.14.88.46.46,0,0,0,.44.28q.5,0,1.26-.92l.06,0"/><path class="cls-3" d="M58.16,40.05"/><path class="cls-3" d="M22,40.05"/><path class="cls-2" d="M53.69,38.51"/><path class="cls-4" d="M53.26,39.46"/><g class="cls-1"><path class="cls-2" d="M53.88,16.3A28.44,28.44,0,0,0,41,3.11,29.37,29.37,0,0,0,22.72.47,28.21,28.21,0,0,0,6.56,9.7a.71.71,0,0,0,.16,1.16.71.71,0,0,0,1.16-.17A27.38,27.38,0,0,1,40.69,3.77,27.54,27.54,0,0,1,53.39,16.3a28.76,28.76,0,0,1,2.84,15c0,.2,0,.41-.07.62s-.06.56-.1.83a.28.28,0,0,1,0,.08c0,.1,0,.25-.08.45s-.06.37-.09.55h0v0h0a.82.82,0,0,1,0,.08,11.54,11.54,0,0,1-2.51,4.95l-.36.84a11.85,11.85,0,0,0,3.39-6.83v0l0-.32v0h0l.22-1.85h0A29.79,29.79,0,0,0,53.88,16.3Z"/></g></g></g></svg>