<?xml version="1.0" encoding="UTF-8"?>
<svg width="336px" height="112px" viewBox="0 0 336 112" version="1.1" xmlns="http://www.w3.org/2000/svg" xmlns:xlink="http://www.w3.org/1999/xlink">
    <!-- Generator: Sketch 48.2 (47327) - http://www.bohemiancoding.com/sketch -->
    <title>Group 6</title>
    <desc>Created with Sketch.</desc>
    <defs>
        <polygon id="path-1" points="25.1919643 35.6955505 0.38194585 35.6955505 0.38194585 0.324778714 25.1919643 0.324778714 25.1919643 35.6955505"></polygon>
        <polygon id="path-3" points="0.000431781667 0.0077778416 72.2925747 0.0077778416 72.2925747 46.1415268 0.000431781667 46.1415268"></polygon>
    </defs>
    <g id="Paycrave_case_study" stroke="none" stroke-width="1" fill="none" fill-rule="evenodd">
        <g id="Group-6">
            <rect id="Rectangle-12-Copy" fill="#EAEAEA" x="0" y="0" width="336" height="112"></rect>
            <g id="Page-1-Copy" transform="translate(32.000000, 29.000000)">
                <path d="M90.123147,22.866962 L95.1255954,22.866962 C98.1576574,22.866962 99.6730402,21.1830593 99.6730402,17.8139575 L99.6730402,17.2578419 C99.6730402,13.8900365 98.1576574,12.2048374 95.1255954,12.2048374 L90.123147,12.2048374 L90.123147,22.866962 Z M82.2403045,39.8446939 L82.2403045,7.70794868 C82.2403045,7.06886937 82.5099364,6.51275369 83.0492,6.04089797 C83.5871674,5.56904224 84.294951,5.33441069 85.1712545,5.33441069 L95.6311551,5.33441069 C99.2348884,5.33441069 102.124357,6.26775168 104.296967,8.13832259 C106.468281,10.0075972 107.555883,12.946325 107.555883,16.954506 L107.555883,17.2085822 C107.555883,21.2167632 106.417725,24.1723431 104.144003,26.0753216 C101.871577,27.9783002 98.8641446,28.9297895 95.1255954,28.9297895 L90.123147,28.9297895 L90.123147,39.8446939 C90.123147,40.6198854 89.7355512,41.2174829 88.961656,41.6387827 C88.1864644,42.0600824 87.259605,42.2700842 86.1823739,42.2700842 C85.1038465,42.2700842 84.1769871,42.0600824 83.4017955,41.6387827 C82.6279003,41.2174829 82.2403045,40.6198854 82.2403045,39.8446939 Z" id="Fill-1" fill="#333333"></path>
                <path d="M116.499882,34.7445039 C116.499882,36.0563665 117.155813,36.7122978 118.470268,36.7122978 C119.311572,36.7122978 120.152875,36.2754424 120.996771,35.4004352 C121.838074,34.5267243 122.259374,33.5259754 122.259374,32.4020773 L122.259374,32.2141128 L122.05715,32.2141128 C120.946215,32.2141128 120.028429,32.2620761 119.303794,32.3554102 C118.579158,32.4487443 117.931005,32.69245 117.358037,33.0813421 C116.785069,33.4728268 116.499882,34.0263498 116.499882,34.7445039 M108.617039,35.7750679 C108.617039,33.0813421 109.63464,31.1835487 111.672435,30.0803915 C113.711526,28.9772343 116.634698,28.4250076 120.440655,28.4250076 L122.259374,28.4250076 L122.259374,27.8961144 C122.259374,26.8370316 121.956038,25.9205426 121.349366,25.1427584 C120.742695,24.3675669 119.783427,23.9786748 118.470268,23.9786748 C116.852477,23.9786748 115.52117,24.2910848 114.477643,24.9146084 C113.434116,25.5368357 112.79374,25.8479494 112.557813,25.8479494 C111.748917,25.8479494 111.108541,25.4525758 110.637982,24.6605322 C110.16483,23.869785 109.931495,22.9688517 109.931495,21.9577323 C109.931495,20.8455009 110.864836,19.8940116 112.735407,19.1032644 C114.604681,18.3112209 116.549142,17.9158473 118.57138,17.9158473 C122.444746,17.9158473 125.332917,18.8582624 127.235896,20.7456853 C129.138875,22.6318119 130.090364,24.9897942 130.090364,27.8196322 L130.090364,39.8454717 C130.090364,40.5195513 129.728694,41.0912226 129.004059,41.5630784 C128.280719,42.0349341 127.362934,42.2708619 126.250703,42.2708619 C125.274584,42.2708619 124.448836,42.0180821 123.774756,41.515115 C123.101973,41.0108516 122.764933,40.400291 122.764933,39.6808407 L122.764933,38.4934235 C120.440655,41.3478914 117.879153,42.7751253 115.084315,42.7751253 C113.231892,42.7751253 111.690583,42.1788242 110.461684,40.9849255 C109.231489,39.7923231 108.617039,38.0552718 108.617039,35.7750679" id="Fill-3" fill="#333333"></path>
                <g id="Group-7" transform="translate(131.528044, 17.539476)">
                    <mask id="mask-2" fill="white">
                        <use xlink:href="#path-1"></use>
                    </mask>
                    <g id="Clip-6"></g>
                    <path d="M0.38194585,32.2061515 C0.38194585,29.9505774 1.02102517,28.8227904 2.30177642,28.8227904 C7.08514901,28.8227904 9.4768353,26.6903654 9.4768353,22.4242193 L0.634725702,5.02518766 C0.464909493,4.69203677 0.38194585,4.35888589 0.38194585,4.0244387 C0.38194585,3.09239402 0.988617495,2.24201667 2.20066448,1.47460296 C3.41400777,0.708485566 4.57549878,0.324778714 5.68773013,0.324778714 C6.79866517,0.324778714 7.52330075,0.742189547 7.86034055,1.57571491 L13.5705726,15.124715 L17.7641255,1.57571491 C18.099869,0.742189547 18.7739486,0.324778714 19.785068,0.324778714 C20.8285951,0.324778714 21.9900861,0.716263408 23.2708374,1.5005291 C24.5515886,2.28349849 25.1919643,3.17535766 25.1919643,4.17481031 C25.1919643,4.51314642 25.1245563,4.79963025 24.9897404,5.03555811 L17.8133852,22.9453347 C17.6448653,23.4171904 17.3428258,24.2105303 16.904674,25.3240579 L15.9946666,27.6509289 C15.8261467,28.1551923 15.5163293,28.8577906 15.0600293,29.7496498 C14.6063218,30.6441016 14.1837258,31.3104034 13.7974263,31.7485551 C13.4098305,32.1880032 12.879641,32.7104149 12.2055614,33.3183828 C11.5314818,33.9250544 10.8236982,34.3632062 10.0835069,34.6341343 C9.34201938,34.9024699 8.45016021,35.1474719 7.40533682,35.3665478 C6.36051343,35.5856236 5.21587441,35.6958097 3.97012344,35.6958097 C2.78918783,35.6958097 1.89862496,35.4650671 1.29195332,35.008767 C0.685281672,34.5498744 0.38194585,33.6152371 0.38194585,32.2061515" id="Fill-5" fill="#333333" mask="url(#mask-2)"></path>
                </g>
                <path d="M158.336244,32.0632226 L158.336244,28.6280092 C158.336244,25.4274274 159.286437,22.8412951 161.190712,20.8709086 C163.09369,18.900522 165.931306,17.9153287 169.704856,17.9153287 C172.131542,17.9153287 174.158966,18.3275544 175.793609,19.1533019 C177.428252,19.9790494 178.243629,20.9642427 178.243629,22.1088817 C178.243629,22.9514812 177.949368,23.8018585 177.360844,24.66131 C176.771025,25.5194652 176.054167,25.9498391 175.212864,25.9498391 C174.943232,25.9498391 174.328782,25.7553931 173.368219,25.3677973 C172.407656,24.9814978 171.40561,24.7870518 170.362083,24.7870518 C167.564653,24.7870518 166.167234,26.071692 166.167234,28.6435649 L166.167234,32.0476669 C166.167234,34.6182436 167.582801,35.9028838 170.411343,35.9028838 C171.423759,35.9028838 172.390804,35.6838079 173.317663,35.2469525 C174.244522,34.8088007 174.875824,34.5897248 175.212864,34.5897248 C176.188983,34.5897248 176.990101,34.9941726 177.612328,35.8030681 C178.235852,36.6106673 178.546965,37.4532669 178.546965,38.328274 C178.546965,39.5079133 177.68881,40.5436626 175.971203,41.4355218 C174.2523,42.3286772 172.197654,42.7759031 169.807264,42.7759031 C165.966306,42.7759031 163.09369,41.7984877 161.190712,39.8449532 C159.286437,37.8914186 158.336244,35.2975084 158.336244,32.0632226" id="Fill-8" fill="#333333"></path>
                <path d="M181.527953,39.8448235 L181.527953,20.5933692 C181.527953,19.8855857 181.889622,19.3139143 182.614258,18.8757626 C183.337597,18.4376108 184.255382,18.2185349 185.367614,18.2185349 C186.345029,18.2185349 187.170777,18.4389071 187.84356,18.8809478 C188.518936,19.3216921 188.853383,19.8985487 188.853383,20.6128138 L188.853383,22.4963478 C189.392647,21.2752267 190.227468,20.2057735 191.356552,19.2905808 C192.484339,18.3740918 193.653608,17.9151991 194.866951,17.9151991 L196.333074,17.9151991 C197.073265,17.9151991 197.722715,18.2548315 198.278831,18.9340964 C198.834947,19.6120649 199.11106,20.4092937 199.11106,21.3257827 C199.11106,22.2759756 198.834947,23.0900564 198.278831,23.7693212 C197.722715,24.4485861 197.073265,24.7869222 196.333074,24.7869222 L194.866951,24.7869222 C193.418976,24.7869222 192.139521,25.4843353 191.02729,26.8791616 C189.916355,28.2726915 189.360239,30.0771508 189.360239,32.2951319 L189.360239,39.8513051 C189.360239,40.4566804 188.963569,41.0102035 188.172822,41.5144669 C187.382075,42.0187302 186.444845,42.2702138 185.367614,42.2702138 C184.290383,42.2702138 183.380375,42.0265081 182.638888,41.5378004 C181.8974,41.0490927 181.527953,40.4851991 181.527953,39.8448235" id="Fill-10" fill="#333333"></path>
                <path d="M207.955373,34.7445039 C207.955373,36.0563665 208.612601,36.7122978 209.92576,36.7122978 C210.767063,36.7122978 211.608366,36.2754424 212.452262,35.4004352 C213.293565,34.5267243 213.714865,33.5259754 213.714865,32.4020773 L213.714865,32.2141128 L213.512641,32.2141128 C212.401706,32.2141128 211.483921,32.2620761 210.759285,32.3554102 C210.03465,32.4487443 209.386496,32.69245 208.813528,33.0813421 C208.241857,33.4728268 207.955373,34.0263498 207.955373,34.7445039 M200.072531,35.7750679 C200.072531,33.0813421 201.091428,31.1835487 203.127926,30.0803915 C205.167017,28.9772343 208.090189,28.4250076 211.896146,28.4250076 L213.714865,28.4250076 L213.714865,27.8961144 C213.714865,26.8370316 213.412825,25.9205426 212.804857,25.1427584 C212.198186,24.3675669 211.238919,23.9786748 209.92576,23.9786748 C208.307969,23.9786748 206.977958,24.2910848 205.933134,24.9146084 C204.889607,25.5368357 204.249232,25.8479494 204.013304,25.8479494 C203.204408,25.8479494 202.564033,25.4525758 202.09477,24.6605322 C201.620321,23.869785 201.386986,22.9688517 201.386986,21.9577323 C201.386986,20.8455009 202.320327,19.8940116 204.190898,19.1032644 C206.060172,18.3112209 208.004633,17.9158473 210.026872,17.9158473 C213.900237,17.9158473 216.788409,18.8582624 218.691387,20.7456853 C220.594366,22.6318119 221.547151,24.9897942 221.547151,27.8196322 L221.547151,39.8454717 C221.547151,40.5195513 221.185482,41.0912226 220.45955,41.5630784 C219.736211,42.0349341 218.818425,42.2708619 217.706194,42.2708619 C216.730075,42.2708619 215.904327,42.0180821 215.230248,41.515115 C214.557464,41.0108516 214.220425,40.400291 214.220425,39.6808407 L214.220425,38.4934235 C211.896146,41.3478914 209.334644,42.7751253 206.539806,42.7751253 C204.687383,42.7751253 203.146074,42.1788242 201.917176,40.9849255 C200.68698,39.7923231 200.072531,38.0552718 200.072531,35.7750679" id="Fill-12" fill="#333333"></path>
                <path d="M223.316092,21.149096 C223.316092,20.3077928 223.922764,19.5494533 225.133514,18.8753737 C226.348154,18.2025904 227.509645,17.8642543 228.621876,17.8642543 C229.732811,17.8642543 230.457447,18.2868503 230.794487,19.1281535 L235.997863,32.315484 L241.203831,19.1281535 C241.540871,18.2868503 242.247358,17.8642543 243.325886,17.8642543 C244.268301,17.8642543 245.38831,18.2103682 246.684617,18.9012998 C247.98222,19.5909351 248.630374,20.3583488 248.630374,21.199652 C248.630374,21.5029878 248.564262,21.8063236 248.429446,22.1083632 L239.535484,41.5633376 C239.131036,42.4720488 237.952693,42.9270525 235.997863,42.9270525 C234.044328,42.9270525 232.865985,42.4720488 232.461537,41.5633376 L223.567575,22.1083632 C223.399055,21.8400276 223.316092,21.5198398 223.316092,21.149096" id="Fill-14" fill="#333333"></path>
                <path d="M257.674578,27.8192434 L263.939629,27.8192434 C264.647413,27.8192434 265.001304,27.4536848 265.001304,26.7212714 C265.001304,25.8695977 264.638338,25.1981107 263.914999,24.7106993 C263.190364,24.2232879 262.32443,23.9782859 261.313311,23.9782859 C260.335896,23.9782859 259.484222,24.2232879 258.760883,24.7106993 C258.036247,25.1981107 257.674578,25.8695977 257.674578,26.7212714 L257.674578,27.8192434 Z M249.842291,32.0633523 L249.842291,28.375359 C249.842291,25.511817 250.979152,23.0527228 253.252875,20.9980763 C255.527893,18.9434298 258.263101,17.9154584 261.464979,17.9154584 C264.462041,17.9154584 267.022247,18.8189843 269.145598,20.6273325 C271.266356,22.4356807 272.328031,24.7405144 272.328031,27.5444263 C272.328031,28.6164721 272.193215,29.4862941 271.923583,30.1564848 C271.653951,30.8253791 271.2508,31.2946422 270.711536,31.5616815 C270.173569,31.830017 269.675787,32.0050184 269.220783,32.0892784 C268.767076,32.1735383 268.166886,32.2150202 267.426695,32.2150202 L257.674578,32.2150202 L257.674578,32.5209486 C257.674578,33.7822552 258.146433,34.7959673 259.090145,35.5620847 C260.031264,36.3282021 261.278311,36.7119089 262.82999,36.7119089 C264.008333,36.7119089 265.246306,36.3917211 266.542613,35.7513455 C267.840216,35.1122662 268.707446,34.7920784 269.145598,34.7920784 C269.986901,34.7920784 270.677832,35.1887483 271.2158,35.9794955 C271.755063,36.771539 272.024695,37.5195081 272.024695,38.2272917 C272.024695,39.2721151 271.123762,40.2923087 269.321895,41.2852798 C267.520029,42.2782509 265.287788,42.7760328 262.62647,42.7760328 C258.854217,42.7760328 255.779377,41.7895432 253.404542,39.8191566 C251.031004,37.8487701 249.842291,35.2639341 249.842291,32.0633523 Z" id="Fill-16" fill="#333333"></path>
                <g id="Group-4">
                    <g id="Group-3">
                        <g id="Group-20" transform="translate(0.000000, 0.086442)">
                            <mask id="mask-4" fill="white">
                                <use xlink:href="#path-3"></use>
                            </mask>
                            <g id="Clip-19"></g>
                            <path d="M6.01758642,16.9357316 C6.02147534,16.9370279 6.03573472,16.9422131 6.05258671,16.9473983 C6.41425634,17.6811081 6.95092741,19.1835278 6.50240521,20.2789072 C6.44147879,20.4215009 6.36629298,20.5602058 6.27295889,20.6872438 C5.94110431,20.2050177 5.72332475,19.6294574 5.70776906,18.9463036 C5.65721309,17.2636972 6.0136975,16.9383242 6.01758642,16.9357316 M12.7091228,21.5674362 C12.7091228,11.8503195 20.9458571,3.94543978 31.0700142,3.94543978 C36.6739491,3.94543978 41.9006587,6.36305222 45.4136505,10.5825313 C45.8206908,11.0725353 46.4468071,11.3395745 47.0781086,11.2838333 C47.7171879,11.2345737 48.2901555,10.8780893 48.6155286,10.3284551 C50.1270225,7.78380462 51.459626,6.43175648 52.443523,5.71230614 L52.443523,8.96733285 C52.443523,10.0095636 53.2589,10.872904 54.2998345,10.9312379 C59.3463574,11.2138328 63.6319481,14.7047873 64.7260312,19.4181594 C64.932144,20.3113148 65.7280764,20.9439126 66.6432691,20.9439126 L68.3569869,20.9439126 L68.3569869,27.1350745 L64.5951042,27.1350745 C63.9625064,27.1350745 63.3662052,27.4397067 62.998054,27.9556368 C60.8682217,30.9138092 57.368193,32.6806756 53.6283475,32.6806756 C52.2231508,32.6806756 50.8335097,32.4265994 49.495721,31.9249287 C48.8903457,31.7006676 48.2149697,31.7836312 47.6847802,32.1504861 C47.1519981,32.5186372 46.8356992,33.1240126 46.8356992,33.7682771 L46.8356992,42.2046426 L42.2156612,42.2046426 L42.2156612,39.0325796 C42.2156612,38.3559074 41.8643621,37.7233096 41.2888018,37.3616399 C40.7119452,37.0051555 39.9911985,36.9675626 39.3832306,37.2644169 C36.7685795,38.5425756 33.9724455,39.1894327 31.0700142,39.1894327 C28.133879,39.1894327 25.3079299,38.5283162 22.6725379,37.2242314 C22.0632737,36.9208956 21.3399344,36.9558959 20.7630778,37.3162692 C20.1823323,37.6740499 19.8310331,38.3066477 19.8310331,38.9885051 L19.8310331,42.2046426 L15.2084026,42.2046426 L15.2084026,30.976032 C15.2084026,30.6351033 15.1189574,30.3006561 14.9530301,30.0012092 C13.4856107,27.4280399 12.7091228,24.5139419 12.7091228,21.5674362 M0.0467966803,20.2996481 C0.521245018,21.7994752 2.1623696,24.4348672 4.97535564,23.6609719 C5.36943295,23.5546748 5.73499151,23.4224515 6.06814239,23.2694873 C7.0611135,23.9993081 8.17075224,24.4348672 9.01983328,24.691536 C9.3789103,27.0585924 10.1320646,29.3608335 11.2728147,31.4841843 L11.2728147,42.5922384 C11.2728147,44.5496619 12.8646796,46.1415268 14.8221031,46.1415268 L20.2160363,46.1415268 C22.174756,46.1415268 23.7653247,44.5496619 23.7653247,42.5922384 L23.7653247,41.9324182 C28.4216592,43.5087274 33.6133684,43.5203942 38.2787771,41.9635296 L38.2787771,42.5922384 C38.2787771,44.5496619 39.870642,46.1415268 41.8293618,46.1415268 L47.2245912,46.1415268 C49.1820147,46.1415268 50.7725833,44.5496619 50.7725833,42.5922384 L50.7725833,36.3531131 C51.7137022,36.5281146 52.6677841,36.6175598 53.6283475,36.6175598 C58.2769042,36.6175598 62.6636068,34.5603206 65.5621491,31.073255 L70.3247808,31.073255 C71.411086,31.073255 72.2925747,30.19047 72.2925747,29.1041648 L72.2925747,18.9748224 C72.2925747,17.8911098 71.411086,17.0070285 70.3247808,17.0070285 L68.1158738,17.0070285 C66.3334518,11.9488388 61.8041553,8.17788192 56.3804071,7.21602218 L56.3804071,2.94080191 C56.3804071,2.01653507 55.6466974,1.19726908 54.7431715,1.00152674 C54.7431715,1.00152674 54.5603922,0.962637529 54.2168708,0.962637529 C52.9957497,0.962637529 50.0272068,1.51486428 46.6503273,6.1543468 C42.5008488,2.22135156 36.9539514,0.00725931883 31.0700142,0.00725931883 C18.7771356,0.00725931883 8.77353496,9.68030166 8.77353496,21.5674362 C8.77353496,21.8876241 8.78909064,22.2052193 8.80335002,22.5267034 C8.45723607,22.3854059 8.09556643,22.2194786 7.74297095,22.005588 C7.98667665,21.7074374 8.18112269,21.3742865 8.32760538,21.0139132 C9.30242819,18.6170417 7.68852606,15.8235002 7.61982179,15.70424 C7.54463599,15.5772019 7.44093143,15.4683121 7.31778227,15.3853485 C7.19852204,15.3049774 6.12906882,14.6270089 5.05831929,15.2168286 C4.11071892,15.7418329 3.67904871,16.979806 3.73738252,19.0033411 C3.7697902,20.0948316 4.09127431,20.9931723 4.57738942,21.7320672 C4.53590759,21.7411414 4.49831469,21.7515118 4.45683287,21.7631786 C2.7418188,22.233738 1.93162696,19.7305693 1.92255281,19.7072358 C1.75662553,19.1900093 1.20569508,18.9009329 0.688468613,19.0642676 C0.169945839,19.2276022 -0.1178343,19.7811253 0.0467966803,20.2996481" id="Fill-18" fill="#333333" mask="url(#mask-4)"></path>
                        </g>
                        <path d="M58.9826137,15.630847 C59.7072492,15.630847 60.2957726,16.551225 60.2957726,17.6867898 C60.2957726,18.8210584 59.7072492,19.7414363 58.9826137,19.7414363 C58.2566818,19.7414363 57.6720473,18.8210584 57.6720473,17.6867898 C57.6720473,16.551225 58.2566818,15.630847 58.9826137,15.630847" id="Fill-21" fill="#333333"></path>
                        <path d="M25.2571147,8.34987988 C31.9136508,5.87782255 35.7507193,8.34469465 35.9114614,8.45228813 C36.3586873,8.75043872 36.4818364,9.35322144 36.1875747,9.80692887 C35.8920168,10.25934 35.2814562,10.3876744 34.8277488,10.0973016 C34.6981181,10.0130417 31.593463,8.09580372 25.942861,10.1945246 C25.828786,10.2360065 25.7160073,10.2567474 25.5993397,10.2567474 C25.2000772,10.2567474 24.8228519,10.0104491 24.6776655,9.61637175 C24.4871084,9.10562682 24.7463697,8.53914069 25.2571147,8.34987988" id="Fill-23" fill="#333333"></path>
                    </g>
                </g>
            </g>
        </g>
    </g>
</svg>