<?xml version="1.0" encoding="UTF-8"?>
<svg width="600px" height="300px" viewBox="0 0 600 300" version="1.1" xmlns="http://www.w3.org/2000/svg" xmlns:xlink="http://www.w3.org/1999/xlink">
    <!-- Generator: Sketch 48.2 (47327) - http://www.bohemiancoding.com/sketch -->
    <title>Group 15</title>
    <desc>Created with Sketch.</desc>
    <defs>
        <polygon id="path-1" points="33.5471684 47.0977669 0.508622575 47.0977669 0.508622575 0.428522658 33.5471684 0.428522658 33.5471684 47.0977669"></polygon>
        <polygon id="path-3" points="0.000572839535 0.0101840958 95.909688 0.0101840958 95.909688 60.4164694 0.000572839535 60.4164694"></polygon>
        <polygon id="path-5" points="33.5471684 47.0977669 0.508622575 47.0977669 0.508622575 0.428522658 33.5471684 0.428522658 33.5471684 47.0977669"></polygon>
        <polygon id="path-7" points="0.000572839535 0.0101840958 95.909688 0.0101840958 95.909688 60.4164694 0.000572839535 60.4164694"></polygon>
    </defs>
    <g id="Paycrave_case_study" stroke="none" stroke-width="1" fill="none" fill-rule="evenodd">
        <g id="Group-15">
            <rect id="Rectangle-13" fill="#FFFFFF" x="0" y="0" width="600" height="300"></rect>
            <rect id="Rectangle-12" fill="#F56400" x="0" y="1" width="600" height="150"></rect>
            <g id="Page-1" transform="translate(112.000000, 41.000000)">
                <path d="M119.587024,30.2592216 L126.305546,30.2592216 C130.377746,30.2592216 132.412976,28.0253045 132.412976,23.5557505 L132.412976,22.8179904 C132.412976,18.3501562 130.377746,16.1145194 126.305546,16.1145194 L119.587024,16.1145194 L119.587024,30.2592216 Z M109,52.7824027 L109,10.1488085 C109,9.30098621 109.362128,8.56322606 110.086384,7.93724775 C110.8089,7.31126943 111.759486,7 112.936402,7 L126.984536,7 C131.824517,7 135.705208,8.23819886 138.623125,10.7197557 C141.539301,13.1995929 143,17.0981996 143,22.4155758 L143,22.752641 C143,28.0700172 141.471402,31.9909802 138.417687,34.5155301 C135.365713,37.04008 131.326591,38.302355 126.305546,38.302355 L119.587024,38.302355 L119.587024,52.7824027 C119.587024,53.8107956 119.066465,54.6035868 118.027088,55.1624961 C116.98597,55.7214053 115.741154,56 114.294383,56 C112.84587,56 111.601055,55.7214053 110.559937,55.1624961 C109.520559,54.6035868 109,53.8107956 109,52.7824027 Z" id="Fill-1" fill="#FFFFFF"></path>
                <path d="M155.64588,46.3395734 C155.64588,48.0810346 156.531724,48.9517651 158.306912,48.9517651 C159.443103,48.9517651 160.579294,48.3718517 161.718986,47.210304 C162.855177,46.0504771 163.424147,44.7220107 163.424147,43.2300673 L163.424147,42.9805496 L163.151041,42.9805496 C161.650709,42.9805496 160.411228,43.0442196 159.432599,43.1681181 C158.453969,43.2920165 157.57863,43.615529 156.804829,44.1317724 C156.031029,44.6514575 155.64588,45.3862439 155.64588,46.3395734 M145,47.7076185 C145,44.1317724 146.374283,41.6125046 149.126351,40.1480941 C151.880169,38.6836836 155.82795,37.9506179 160.967944,37.9506179 L163.424147,37.9506179 L163.424147,37.2485269 C163.424147,35.842624 163.014488,34.6260103 162.195171,33.5935235 C161.375853,32.5644783 160.08035,32.0482349 158.306912,32.0482349 C156.122065,32.0482349 154.324117,32.4629504 152.91482,33.2906607 C151.505524,34.1166502 150.640688,34.5296449 150.322065,34.5296449 C149.229641,34.5296449 148.364805,34.0047974 147.729309,32.9533817 C147.090311,31.9036867 146.775189,30.7077228 146.775189,29.3654899 C146.775189,27.8890337 148.035678,26.6259582 150.561908,25.5762632 C153.086387,24.5248475 155.712406,24 158.443465,24 C163.674494,24 167.575008,25.2510299 170.145005,27.7565313 C172.715002,30.2603118 174,33.3904677 174,37.146999 L174,53.1109663 C174,54.0057882 173.511561,54.764666 172.532931,55.3910414 C171.556052,56.0174167 170.316571,56.3306044 168.814488,56.3306044 C167.496227,56.3306044 166.381044,55.9950461 165.470691,55.3273713 C164.562089,54.6579757 164.106912,53.8474735 164.106912,52.8924232 L164.106912,51.31616 C160.967944,55.1053867 157.508602,57 153.734138,57 C151.232418,57 149.15086,56.2084268 147.491216,54.6235595 C145.829822,53.040413 145,50.7345257 145,47.7076185" id="Fill-3" fill="#FFFFFF"></path>
                <g id="Group-7" transform="translate(175.000000, 23.000000)">
                    <mask id="mask-2" fill="white">
                        <use xlink:href="#path-1"></use>
                    </mask>
                    <g id="Clip-6"></g>
                    <path d="M0.508622575,42.4937505 C0.508622575,39.5176792 1.35965988,38.0296436 3.06518699,38.0296436 C9.43502,38.0296436 12.6199365,35.216059 12.6199365,29.5871794 L0.845239766,6.63038149 C0.619102063,6.19081234 0.508622575,5.7512432 0.508622575,5.30996367 C0.508622575,4.08019629 1.31650383,2.95818322 2.93054011,1.94563484 C4.54630263,0.934796848 6.09301547,0.428522658 7.57413112,0.428522658 C9.05352052,0.428522658 10.0184898,0.979266879 10.4673127,2.07904493 L18.0714088,19.9559971 L23.6558017,2.07904493 C24.1028983,0.979266879 25.0005442,0.428522658 26.347013,0.428522658 C27.7366378,0.428522658 29.2833506,0.945059163 30.9888777,1.97984256 C32.6944048,3.01291557 33.5471684,4.18966098 33.5471684,5.50836842 C33.5471684,5.95477911 33.4574038,6.33277436 33.2778746,6.64406458 L23.7213989,30.2747545 C23.4969874,30.8973349 23.094773,31.944091 22.5113032,33.4133124 L21.2994813,36.4834549 C21.0750699,37.1487949 20.662498,38.075824 20.0548608,39.2525694 C19.4506761,40.4327356 18.8879212,41.3118739 18.3735011,41.8899843 C17.8573548,42.4698051 17.1513218,43.1590906 16.2536759,43.9612615 C15.3560301,44.761722 14.413502,45.3398324 13.4278178,45.697303 C12.4404073,46.0513529 11.2527528,46.3746158 9.86140178,46.663671 C8.47005072,46.9527262 6.94577902,47.098109 5.28686045,47.098109 C3.71425398,47.098109 2.52832572,46.7936603 1.72044446,46.1916045 C0.912563205,45.586128 0.508622575,44.3529398 0.508622575,42.4937505" id="Fill-5" fill="#FFFFFF" mask="url(#mask-2)"></path>
                </g>
                <path d="M211,42.7799562 L211,38.2200438 C211,33.971582 212.269386,30.5387423 214.813354,27.9232454 C217.35559,25.3077485 221.146431,24 226.187608,24 C229.429479,24 232.137964,24.5471895 234.321724,25.6432892 C236.505484,26.7393889 237.594766,28.0471373 237.594766,29.5665346 C237.594766,30.6850037 237.201655,31.8137971 236.415432,32.9546355 C235.627477,34.0937533 234.66981,34.6650329 233.545892,34.6650329 C233.185684,34.6650329 232.364826,34.4069246 231.081586,33.8924288 C229.798345,33.3796538 228.459688,33.1215455 227.065615,33.1215455 C223.328459,33.1215455 221.461612,34.8267807 221.461612,38.2406925 L221.461612,42.7593075 C221.461612,46.1714986 223.352703,47.8767338 227.131422,47.8767338 C228.483933,47.8767338 229.775832,47.5859318 231.014047,47.0060486 C232.252261,46.4244447 233.095632,46.1336427 233.545892,46.1336427 C234.849913,46.1336427 235.920146,46.6705079 236.751395,47.7442382 C237.584376,48.8162478 238,49.9347169 238,51.096204 C238,52.6620607 236.853569,54.0369173 234.558976,55.2207738 C232.262652,56.406351 229.517799,57 226.324418,57 C221.193188,57 217.35559,55.7025759 214.813354,53.1094483 C212.269386,50.5163208 211,47.0731567 211,42.7799562" id="Fill-8" fill="#FFFFFF"></path>
                <path d="M242,52.8132851 L242,27.5188418 C242,26.5888865 242.473091,25.8377688 243.420967,25.2620822 C244.367148,24.6863956 245.567679,24.3985523 247.02256,24.3985523 C248.301091,24.3985523 249.38123,24.6880988 250.26128,25.268895 C251.144721,25.8479881 251.582203,26.6059187 251.582203,27.54439 L251.582203,30.0191612 C252.2876,28.4147328 253.379608,27.0095806 254.856532,25.8071109 C256.331761,24.602938 257.86125,24 259.448393,24 L261.36619,24 C262.334415,24 263.183943,24.4462423 263.911383,25.3387268 C264.638823,26.2295082 265,27.2769853 265,28.4811582 C265,29.7296146 264.638823,30.7992336 263.911383,31.6917181 C263.183943,32.5842027 262.334415,33.0287418 261.36619,33.0287418 L259.448393,33.0287418 C257.554335,33.0287418 255.880714,33.9450713 254.425833,35.7777305 C252.972648,37.6086864 252.245208,39.9795614 252.245208,42.893762 L252.245208,52.8218011 C252.245208,53.6172025 251.726334,54.3444752 250.691979,55.0070258 C249.657623,55.6695763 248.431657,56 247.02256,56 C245.613462,56 244.423105,55.6797956 243.453185,55.0376836 C242.483265,54.3955716 242,53.6546732 242,52.8132851" id="Fill-10" fill="#FFFFFF"></path>
                <path d="M276.645237,46.3395734 C276.645237,48.0810346 277.532778,48.9517651 279.306109,48.9517651 C280.442231,48.9517651 281.578353,48.3718517 282.717977,47.210304 C283.854099,46.0504771 284.423035,44.7220107 284.423035,43.2300673 L284.423035,42.9805496 L284.149946,42.9805496 C282.649704,42.9805496 281.410298,43.0442196 280.431728,43.1681181 C279.453157,43.2920165 278.57787,43.615529 277.804117,44.1317724 C277.032114,44.6514575 276.645237,45.3862439 276.645237,46.3395734 M266,47.7076185 C266,44.1317724 267.375951,41.6125046 270.126102,40.1480941 C272.879754,38.6836836 276.827297,37.9506179 281.966981,37.9506179 L284.423035,37.9506179 L284.423035,37.2485269 C284.423035,35.842624 284.015152,34.6260103 283.194133,33.5935235 C282.374864,32.5644783 281.07944,32.0482349 279.306109,32.0482349 C277.121393,32.0482349 275.325305,32.4629504 273.914343,33.2906607 C272.505131,34.1166502 271.640348,34.5296449 271.321743,34.5296449 C270.229385,34.5296449 269.364602,34.0047974 268.730895,32.9533817 C268.090185,31.9036867 267.775081,30.7077228 267.775081,29.3654899 C267.775081,27.8890337 269.035494,26.6259582 271.561572,25.5762632 C274.085899,24.5248475 276.711759,24 279.442654,24 C284.673367,24 288.573645,25.2510299 291.143487,27.7565313 C293.713329,30.2603118 295,33.3904677 295,37.146999 L295,53.1109663 C295,54.0057882 294.51159,54.764666 293.531269,55.3910414 C292.554449,56.0174167 291.315043,56.3306044 289.813051,56.3306044 C288.494869,56.3306044 287.379754,55.9950461 286.469456,55.3273713 C285.560908,54.6579757 285.105759,53.8474735 285.105759,52.8924232 L285.105759,51.31616 C281.966981,55.1053867 278.507847,57 274.733611,57 C272.232042,57 270.15061,56.2084268 268.491066,54.6235595 C266.829772,53.040413 266,50.7345257 266,47.7076185" id="Fill-12" fill="#FFFFFF"></path>
                <path d="M297,27.3251267 C297,26.2173891 297.81483,25.218889 299.441008,24.3313334 C301.072409,23.4454846 302.632425,23 304.12628,23 C305.618394,23 306.591663,23.5564291 307.044347,24.6641668 L314.033081,42.0278266 L321.025297,24.6641668 C321.47798,23.5564291 322.426874,23 323.875461,23 C325.141233,23 326.645535,23.4557257 328.386624,24.3654702 C330.129455,25.2735078 331,26.2839557 331,27.3916934 C331,27.7910934 330.911204,28.1904934 330.730131,28.5881866 L318.784515,54.2044067 C318.241295,55.4009 316.658644,56 314.033081,56 C311.409259,56 309.826608,55.4009 309.283388,54.2044067 L297.337771,28.5881866 C297.11143,28.2348712 297,27.8132823 297,27.3251267" id="Fill-14" fill="#FFFFFF"></path>
                <path d="M343.449671,37.1463135 L351.808371,37.1463135 C352.752681,37.1463135 353.224836,36.66107 353.224836,35.6888622 C353.224836,34.5583481 352.740574,33.6670143 351.77551,33.0200229 C350.808717,32.3730316 349.653407,32.0478152 348.304393,32.0478152 C347.000346,32.0478152 345.864061,32.3730316 344.898997,33.0200229 C343.932203,33.6670143 343.449671,34.5583481 343.449671,35.6888622 L343.449671,37.1463135 Z M333,42.7799562 L333,37.8845031 C333,34.0834289 334.516776,30.8192199 337.550329,28.0918761 C340.585611,25.3645323 344.234867,24 348.506745,24 C352.505361,24 355.921135,25.199343 358.754064,27.5997497 C361.583535,30.0001564 363,33.0595995 363,36.7815205 C363,38.2045573 362.820131,39.3591615 362.460394,40.2487746 C362.100657,41.136667 361.562781,41.7595683 360.843307,42.1140369 C360.125562,42.4702263 359.461432,42.7025237 358.854376,42.8143706 C358.249049,42.9262175 357.448288,42.9812806 356.46074,42.9812806 L343.449671,42.9812806 L343.449671,43.3873709 C343.449671,45.0616331 344.079211,46.4072375 345.338291,47.424184 C346.593912,48.4411305 348.257696,48.9504641 350.327914,48.9504641 C351.900035,48.9504641 353.551712,48.5254458 355.281218,47.6754093 C357.012452,46.8270935 358.169492,46.4020753 358.754064,46.4020753 C359.876513,46.4020753 360.79834,46.9286161 361.516084,47.9782563 C362.235559,49.0296173 362.595296,50.0224737 362.595296,50.9619877 C362.595296,52.3488894 361.39329,53.7030973 358.989277,55.0211701 C356.585265,56.3392429 353.607056,57 350.056382,57 C345.023521,57 340.921135,55.6905308 337.752681,53.0750339 C334.585956,50.459537 333,47.028418 333,42.7799562 Z" id="Fill-16" fill="#FFFFFF"></path>
                <g id="Group-4">
                    <g id="Group-3">
                        <g id="Group-20" transform="translate(0.000000, 0.113184)">
                            <mask id="mask-4" fill="white">
                                <use xlink:href="#path-3"></use>
                            </mask>
                            <g id="Clip-19"></g>
                            <path d="M7.98345941,22.1751897 C7.98861879,22.176887 8.00753654,22.1836764 8.02989387,22.1904658 C8.50971661,23.1511655 9.22171166,25.1183934 8.62666266,26.5526535 C8.54583231,26.739362 8.44608421,26.9209783 8.32225898,27.0873186 C7.88199152,26.4559046 7.59306599,25.7022815 7.57242845,24.8077784 C7.50535646,22.6046191 7.97830002,22.1785844 7.98345941,22.1751897 M16.8610401,28.2398187 C16.8610401,15.5164884 27.7886162,5.16605233 41.2202136,5.16605233 C48.6548865,5.16605233 55.5890991,8.33160878 60.249743,13.8564808 C60.7897585,14.4980788 61.6204194,14.8477327 62.4579595,14.7747467 C63.3058183,14.7102475 64.0659676,14.2434764 64.4976361,13.5238003 C66.5029168,10.1919036 68.2708659,8.42156829 69.5761901,7.47953943 L69.5761901,11.7415835 C69.5761901,13.1062524 70.657941,14.236687 72.0389363,14.3130677 C78.7340974,14.6830899 84.419739,19.2540515 85.8712458,25.4256136 C86.1446932,26.5950873 87.2006472,27.4233937 88.4148223,27.4233937 L90.688391,27.4233937 L90.688391,35.529934 L85.6975465,35.529934 C84.8582867,35.529934 84.067181,35.9288111 83.5787593,36.6043561 C80.7531365,40.4777072 76.1096905,42.7911943 71.1480826,42.7911943 C69.283825,42.7911943 67.440205,42.4585138 65.6653768,41.8016397 C64.8622326,41.5079982 63.9662195,41.6166286 63.2628234,42.0969784 C62.5559878,42.5790256 62.1363578,43.3716878 62.1363578,44.2152704 L62.1363578,55.2616196 L56.0070092,55.2616196 L56.0070092,51.1082059 C56.0070092,50.2221895 55.5409448,49.3938831 54.7773559,48.9203226 C54.0120472,48.4535516 53.0558413,48.4043284 52.2492576,48.7930214 C48.7804315,50.4666078 45.0708341,51.3135851 41.2202136,51.3135851 C37.3248784,51.3135851 33.5757257,50.447937 30.0793829,48.7404036 C29.2710794,48.3432239 28.3114339,48.3890523 27.5461252,48.8609154 C26.7756571,49.3293838 26.3095927,50.1576903 26.3095927,51.050496 L26.3095927,55.2616196 L20.1768045,55.2616196 L20.1768045,40.55918 C20.1768045,40.1127771 20.0581386,39.674861 19.8380049,39.2827733 C17.8911972,35.9135349 16.8610401,32.0978937 16.8610401,28.2398187 M0.062084592,26.5798111 C0.691529486,28.5436443 2.86878969,31.9943554 6.60074439,30.9810379 C7.12356201,30.8418552 7.60854414,30.6687256 8.05053141,30.4684384 C9.36789422,31.424046 10.8400386,31.9943554 11.9665041,32.3304306 C12.4428873,35.4297904 13.4420881,38.4442827 14.9555075,41.2245409 L14.9555075,55.7691271 C14.9555075,58.3321245 17.0674155,60.4164694 19.6643056,60.4164694 L26.8203718,60.4164694 C29.4189817,60.4164694 31.5291699,58.3321245 31.5291699,55.7691271 L31.5291699,54.9051763 C37.7066728,56.969153 44.594451,56.9844292 50.7839924,54.9459126 L50.7839924,55.7691271 C50.7839924,58.3321245 52.8959004,60.4164694 55.4945104,60.4164694 L62.6522963,60.4164694 C65.2491864,60.4164694 67.3593746,58.3321245 67.3593746,55.7691271 L67.3593746,47.5997849 C68.6079457,47.828927 69.8737146,47.9460441 71.1480826,47.9460441 C77.3152667,47.9460441 83.1350523,45.2523508 86.9805134,40.6864812 L93.2990395,40.6864812 C94.7402275,40.6864812 95.909688,39.5305863 95.909688,38.1082076 L95.909688,24.8451201 C95.909688,23.4261361 94.7402275,22.2685439 93.2990395,22.2685439 L90.3685092,22.2685439 C88.0037913,15.6454869 81.9948283,10.7078978 74.7992069,9.44846462 L74.7992069,3.85060662 C74.7992069,2.64039657 73.8258031,1.56767181 72.6271061,1.31137207 C72.6271061,1.31137207 72.384615,1.26045159 71.9288694,1.26045159 C70.3088227,1.26045159 66.3704926,1.98352239 61.8904272,8.05833554 C56.3853641,2.90857776 49.0263621,0.00950515609 41.2202136,0.00950515609 C24.9113996,0.00950515609 11.6397431,12.6751256 11.6397431,28.2398187 C11.6397431,28.659064 11.6603807,29.0749146 11.6792984,29.4958572 C11.2201132,29.3108461 10.7402905,29.0935854 10.2725063,28.8135228 C10.5958277,28.4231325 10.8537969,27.9869137 11.0481337,27.5150506 C12.3414194,24.3766517 10.2002749,20.718864 10.1091258,20.5627078 C10.0093777,20.3963676 9.87179409,20.2537903 9.70841359,20.1451599 C9.55019246,20.0399243 8.13136176,19.1522106 6.71081126,19.9245045 C5.45364127,20.611931 4.8809496,22.2328996 4.95834037,24.8824618 C5.00133524,26.3116299 5.42784435,27.487893 6.07276739,28.4553821 C6.01773396,28.4672635 5.96785991,28.4808423 5.91282648,28.4961185 C3.63753797,29.1122563 2.56266622,25.8346748 2.55062766,25.8041225 C2.33049392,25.1268801 1.59958114,24.7483712 0.913383015,24.9622372 C0.225465097,25.1761032 -0.156329347,25.9008714 0.062084592,26.5798111" id="Fill-18" fill="#FFFFFF" mask="url(#mask-4)"></path>
                        </g>
                        <path d="M78.251523,20.4666091 C79.2128883,20.4666091 79.9936751,21.6717271 79.9936751,23.1586051 C79.9936751,24.6437857 79.2128883,25.8489037 78.251523,25.8489037 C77.2884379,25.8489037 76.5128104,24.6437857 76.5128104,23.1586051 C76.5128104,21.6717271 77.2884379,20.4666091 78.251523,20.4666091" id="Fill-21" fill="#FFFFFF"></path>
                        <path d="M33.5083098,10.9331073 C42.339456,7.69626216 47.4300486,10.9263179 47.6433032,11.0671979 C48.2366324,11.4575882 48.4000129,12.2468556 48.0096195,12.8409279 C47.6175062,13.4333028 46.8074829,13.6013404 46.2055547,13.2211341 C46.0335752,13.1108064 41.9146667,10.6004268 34.4180812,13.3484353 C34.2667393,13.4027505 34.1171171,13.4299081 33.9623356,13.4299081 C33.4326388,13.4299081 32.9321785,13.1074117 32.7395615,12.5914175 C32.4867517,11.9226619 32.8307106,11.1809203 33.5083098,10.9331073" id="Fill-23" fill="#FFFFFF"></path>
                    </g>
                </g>
            </g>
            <g id="Page-1" transform="translate(112.000000, 192.000000)">
                <path d="M119.587024,30.2592216 L126.305546,30.2592216 C130.377746,30.2592216 132.412976,28.0253045 132.412976,23.5557505 L132.412976,22.8179904 C132.412976,18.3501562 130.377746,16.1145194 126.305546,16.1145194 L119.587024,16.1145194 L119.587024,30.2592216 Z M109,52.7824027 L109,10.1488085 C109,9.30098621 109.362128,8.56322606 110.086384,7.93724775 C110.8089,7.31126943 111.759486,7 112.936402,7 L126.984536,7 C131.824517,7 135.705208,8.23819886 138.623125,10.7197557 C141.539301,13.1995929 143,17.0981996 143,22.4155758 L143,22.752641 C143,28.0700172 141.471402,31.9909802 138.417687,34.5155301 C135.365713,37.04008 131.326591,38.302355 126.305546,38.302355 L119.587024,38.302355 L119.587024,52.7824027 C119.587024,53.8107956 119.066465,54.6035868 118.027088,55.1624961 C116.98597,55.7214053 115.741154,56 114.294383,56 C112.84587,56 111.601055,55.7214053 110.559937,55.1624961 C109.520559,54.6035868 109,53.8107956 109,52.7824027 Z" id="Fill-1" fill="#4A4A4A"></path>
                <path d="M155.64588,46.3395734 C155.64588,48.0810346 156.531724,48.9517651 158.306912,48.9517651 C159.443103,48.9517651 160.579294,48.3718517 161.718986,47.210304 C162.855177,46.0504771 163.424147,44.7220107 163.424147,43.2300673 L163.424147,42.9805496 L163.151041,42.9805496 C161.650709,42.9805496 160.411228,43.0442196 159.432599,43.1681181 C158.453969,43.2920165 157.57863,43.615529 156.804829,44.1317724 C156.031029,44.6514575 155.64588,45.3862439 155.64588,46.3395734 M145,47.7076185 C145,44.1317724 146.374283,41.6125046 149.126351,40.1480941 C151.880169,38.6836836 155.82795,37.9506179 160.967944,37.9506179 L163.424147,37.9506179 L163.424147,37.2485269 C163.424147,35.842624 163.014488,34.6260103 162.195171,33.5935235 C161.375853,32.5644783 160.08035,32.0482349 158.306912,32.0482349 C156.122065,32.0482349 154.324117,32.4629504 152.91482,33.2906607 C151.505524,34.1166502 150.640688,34.5296449 150.322065,34.5296449 C149.229641,34.5296449 148.364805,34.0047974 147.729309,32.9533817 C147.090311,31.9036867 146.775189,30.7077228 146.775189,29.3654899 C146.775189,27.8890337 148.035678,26.6259582 150.561908,25.5762632 C153.086387,24.5248475 155.712406,24 158.443465,24 C163.674494,24 167.575008,25.2510299 170.145005,27.7565313 C172.715002,30.2603118 174,33.3904677 174,37.146999 L174,53.1109663 C174,54.0057882 173.511561,54.764666 172.532931,55.3910414 C171.556052,56.0174167 170.316571,56.3306044 168.814488,56.3306044 C167.496227,56.3306044 166.381044,55.9950461 165.470691,55.3273713 C164.562089,54.6579757 164.106912,53.8474735 164.106912,52.8924232 L164.106912,51.31616 C160.967944,55.1053867 157.508602,57 153.734138,57 C151.232418,57 149.15086,56.2084268 147.491216,54.6235595 C145.829822,53.040413 145,50.7345257 145,47.7076185" id="Fill-3" fill="#4A4A4A"></path>
                <g id="Group-7" transform="translate(175.000000, 23.000000)">
                    <mask id="mask-6" fill="white">
                        <use xlink:href="#path-5"></use>
                    </mask>
                    <g id="Clip-6"></g>
                    <path d="M0.508622575,42.4937505 C0.508622575,39.5176792 1.35965988,38.0296436 3.06518699,38.0296436 C9.43502,38.0296436 12.6199365,35.216059 12.6199365,29.5871794 L0.845239766,6.63038149 C0.619102063,6.19081234 0.508622575,5.7512432 0.508622575,5.30996367 C0.508622575,4.08019629 1.31650383,2.95818322 2.93054011,1.94563484 C4.54630263,0.934796848 6.09301547,0.428522658 7.57413112,0.428522658 C9.05352052,0.428522658 10.0184898,0.979266879 10.4673127,2.07904493 L18.0714088,19.9559971 L23.6558017,2.07904493 C24.1028983,0.979266879 25.0005442,0.428522658 26.347013,0.428522658 C27.7366378,0.428522658 29.2833506,0.945059163 30.9888777,1.97984256 C32.6944048,3.01291557 33.5471684,4.18966098 33.5471684,5.50836842 C33.5471684,5.95477911 33.4574038,6.33277436 33.2778746,6.64406458 L23.7213989,30.2747545 C23.4969874,30.8973349 23.094773,31.944091 22.5113032,33.4133124 L21.2994813,36.4834549 C21.0750699,37.1487949 20.662498,38.075824 20.0548608,39.2525694 C19.4506761,40.4327356 18.8879212,41.3118739 18.3735011,41.8899843 C17.8573548,42.4698051 17.1513218,43.1590906 16.2536759,43.9612615 C15.3560301,44.761722 14.413502,45.3398324 13.4278178,45.697303 C12.4404073,46.0513529 11.2527528,46.3746158 9.86140178,46.663671 C8.47005072,46.9527262 6.94577902,47.098109 5.28686045,47.098109 C3.71425398,47.098109 2.52832572,46.7936603 1.72044446,46.1916045 C0.912563205,45.586128 0.508622575,44.3529398 0.508622575,42.4937505" id="Fill-5" fill="#4A4A4A" mask="url(#mask-6)"></path>
                </g>
                <path d="M211,42.7799562 L211,38.2200438 C211,33.971582 212.269386,30.5387423 214.813354,27.9232454 C217.35559,25.3077485 221.146431,24 226.187608,24 C229.429479,24 232.137964,24.5471895 234.321724,25.6432892 C236.505484,26.7393889 237.594766,28.0471373 237.594766,29.5665346 C237.594766,30.6850037 237.201655,31.8137971 236.415432,32.9546355 C235.627477,34.0937533 234.66981,34.6650329 233.545892,34.6650329 C233.185684,34.6650329 232.364826,34.4069246 231.081586,33.8924288 C229.798345,33.3796538 228.459688,33.1215455 227.065615,33.1215455 C223.328459,33.1215455 221.461612,34.8267807 221.461612,38.2406925 L221.461612,42.7593075 C221.461612,46.1714986 223.352703,47.8767338 227.131422,47.8767338 C228.483933,47.8767338 229.775832,47.5859318 231.014047,47.0060486 C232.252261,46.4244447 233.095632,46.1336427 233.545892,46.1336427 C234.849913,46.1336427 235.920146,46.6705079 236.751395,47.7442382 C237.584376,48.8162478 238,49.9347169 238,51.096204 C238,52.6620607 236.853569,54.0369173 234.558976,55.2207738 C232.262652,56.406351 229.517799,57 226.324418,57 C221.193188,57 217.35559,55.7025759 214.813354,53.1094483 C212.269386,50.5163208 211,47.0731567 211,42.7799562" id="Fill-8" fill="#4A4A4A"></path>
                <path d="M242,52.8132851 L242,27.5188418 C242,26.5888865 242.473091,25.8377688 243.420967,25.2620822 C244.367148,24.6863956 245.567679,24.3985523 247.02256,24.3985523 C248.301091,24.3985523 249.38123,24.6880988 250.26128,25.268895 C251.144721,25.8479881 251.582203,26.6059187 251.582203,27.54439 L251.582203,30.0191612 C252.2876,28.4147328 253.379608,27.0095806 254.856532,25.8071109 C256.331761,24.602938 257.86125,24 259.448393,24 L261.36619,24 C262.334415,24 263.183943,24.4462423 263.911383,25.3387268 C264.638823,26.2295082 265,27.2769853 265,28.4811582 C265,29.7296146 264.638823,30.7992336 263.911383,31.6917181 C263.183943,32.5842027 262.334415,33.0287418 261.36619,33.0287418 L259.448393,33.0287418 C257.554335,33.0287418 255.880714,33.9450713 254.425833,35.7777305 C252.972648,37.6086864 252.245208,39.9795614 252.245208,42.893762 L252.245208,52.8218011 C252.245208,53.6172025 251.726334,54.3444752 250.691979,55.0070258 C249.657623,55.6695763 248.431657,56 247.02256,56 C245.613462,56 244.423105,55.6797956 243.453185,55.0376836 C242.483265,54.3955716 242,53.6546732 242,52.8132851" id="Fill-10" fill="#4A4A4A"></path>
                <path d="M276.645237,46.3395734 C276.645237,48.0810346 277.532778,48.9517651 279.306109,48.9517651 C280.442231,48.9517651 281.578353,48.3718517 282.717977,47.210304 C283.854099,46.0504771 284.423035,44.7220107 284.423035,43.2300673 L284.423035,42.9805496 L284.149946,42.9805496 C282.649704,42.9805496 281.410298,43.0442196 280.431728,43.1681181 C279.453157,43.2920165 278.57787,43.615529 277.804117,44.1317724 C277.032114,44.6514575 276.645237,45.3862439 276.645237,46.3395734 M266,47.7076185 C266,44.1317724 267.375951,41.6125046 270.126102,40.1480941 C272.879754,38.6836836 276.827297,37.9506179 281.966981,37.9506179 L284.423035,37.9506179 L284.423035,37.2485269 C284.423035,35.842624 284.015152,34.6260103 283.194133,33.5935235 C282.374864,32.5644783 281.07944,32.0482349 279.306109,32.0482349 C277.121393,32.0482349 275.325305,32.4629504 273.914343,33.2906607 C272.505131,34.1166502 271.640348,34.5296449 271.321743,34.5296449 C270.229385,34.5296449 269.364602,34.0047974 268.730895,32.9533817 C268.090185,31.9036867 267.775081,30.7077228 267.775081,29.3654899 C267.775081,27.8890337 269.035494,26.6259582 271.561572,25.5762632 C274.085899,24.5248475 276.711759,24 279.442654,24 C284.673367,24 288.573645,25.2510299 291.143487,27.7565313 C293.713329,30.2603118 295,33.3904677 295,37.146999 L295,53.1109663 C295,54.0057882 294.51159,54.764666 293.531269,55.3910414 C292.554449,56.0174167 291.315043,56.3306044 289.813051,56.3306044 C288.494869,56.3306044 287.379754,55.9950461 286.469456,55.3273713 C285.560908,54.6579757 285.105759,53.8474735 285.105759,52.8924232 L285.105759,51.31616 C281.966981,55.1053867 278.507847,57 274.733611,57 C272.232042,57 270.15061,56.2084268 268.491066,54.6235595 C266.829772,53.040413 266,50.7345257 266,47.7076185" id="Fill-12" fill="#4A4A4A"></path>
                <path d="M297,27.3251267 C297,26.2173891 297.81483,25.218889 299.441008,24.3313334 C301.072409,23.4454846 302.632425,23 304.12628,23 C305.618394,23 306.591663,23.5564291 307.044347,24.6641668 L314.033081,42.0278266 L321.025297,24.6641668 C321.47798,23.5564291 322.426874,23 323.875461,23 C325.141233,23 326.645535,23.4557257 328.386624,24.3654702 C330.129455,25.2735078 331,26.2839557 331,27.3916934 C331,27.7910934 330.911204,28.1904934 330.730131,28.5881866 L318.784515,54.2044067 C318.241295,55.4009 316.658644,56 314.033081,56 C311.409259,56 309.826608,55.4009 309.283388,54.2044067 L297.337771,28.5881866 C297.11143,28.2348712 297,27.8132823 297,27.3251267" id="Fill-14" fill="#4A4A4A"></path>
                <path d="M343.449671,37.1463135 L351.808371,37.1463135 C352.752681,37.1463135 353.224836,36.66107 353.224836,35.6888622 C353.224836,34.5583481 352.740574,33.6670143 351.77551,33.0200229 C350.808717,32.3730316 349.653407,32.0478152 348.304393,32.0478152 C347.000346,32.0478152 345.864061,32.3730316 344.898997,33.0200229 C343.932203,33.6670143 343.449671,34.5583481 343.449671,35.6888622 L343.449671,37.1463135 Z M333,42.7799562 L333,37.8845031 C333,34.0834289 334.516776,30.8192199 337.550329,28.0918761 C340.585611,25.3645323 344.234867,24 348.506745,24 C352.505361,24 355.921135,25.199343 358.754064,27.5997497 C361.583535,30.0001564 363,33.0595995 363,36.7815205 C363,38.2045573 362.820131,39.3591615 362.460394,40.2487746 C362.100657,41.136667 361.562781,41.7595683 360.843307,42.1140369 C360.125562,42.4702263 359.461432,42.7025237 358.854376,42.8143706 C358.249049,42.9262175 357.448288,42.9812806 356.46074,42.9812806 L343.449671,42.9812806 L343.449671,43.3873709 C343.449671,45.0616331 344.079211,46.4072375 345.338291,47.424184 C346.593912,48.4411305 348.257696,48.9504641 350.327914,48.9504641 C351.900035,48.9504641 353.551712,48.5254458 355.281218,47.6754093 C357.012452,46.8270935 358.169492,46.4020753 358.754064,46.4020753 C359.876513,46.4020753 360.79834,46.9286161 361.516084,47.9782563 C362.235559,49.0296173 362.595296,50.0224737 362.595296,50.9619877 C362.595296,52.3488894 361.39329,53.7030973 358.989277,55.0211701 C356.585265,56.3392429 353.607056,57 350.056382,57 C345.023521,57 340.921135,55.6905308 337.752681,53.0750339 C334.585956,50.459537 333,47.028418 333,42.7799562 Z" id="Fill-16" fill="#4A4A4A"></path>
                <g id="Group-4">
                    <g id="Group-3">
                        <g id="Group-20" transform="translate(0.000000, 0.113184)">
                            <mask id="mask-8" fill="white">
                                <use xlink:href="#path-7"></use>
                            </mask>
                            <g id="Clip-19"></g>
                            <path d="M7.98345941,22.1751897 C7.98861879,22.176887 8.00753654,22.1836764 8.02989387,22.1904658 C8.50971661,23.1511655 9.22171166,25.1183934 8.62666266,26.5526535 C8.54583231,26.739362 8.44608421,26.9209783 8.32225898,27.0873186 C7.88199152,26.4559046 7.59306599,25.7022815 7.57242845,24.8077784 C7.50535646,22.6046191 7.97830002,22.1785844 7.98345941,22.1751897 M16.8610401,28.2398187 C16.8610401,15.5164884 27.7886162,5.16605233 41.2202136,5.16605233 C48.6548865,5.16605233 55.5890991,8.33160878 60.249743,13.8564808 C60.7897585,14.4980788 61.6204194,14.8477327 62.4579595,14.7747467 C63.3058183,14.7102475 64.0659676,14.2434764 64.4976361,13.5238003 C66.5029168,10.1919036 68.2708659,8.42156829 69.5761901,7.47953943 L69.5761901,11.7415835 C69.5761901,13.1062524 70.657941,14.236687 72.0389363,14.3130677 C78.7340974,14.6830899 84.419739,19.2540515 85.8712458,25.4256136 C86.1446932,26.5950873 87.2006472,27.4233937 88.4148223,27.4233937 L90.688391,27.4233937 L90.688391,35.529934 L85.6975465,35.529934 C84.8582867,35.529934 84.067181,35.9288111 83.5787593,36.6043561 C80.7531365,40.4777072 76.1096905,42.7911943 71.1480826,42.7911943 C69.283825,42.7911943 67.440205,42.4585138 65.6653768,41.8016397 C64.8622326,41.5079982 63.9662195,41.6166286 63.2628234,42.0969784 C62.5559878,42.5790256 62.1363578,43.3716878 62.1363578,44.2152704 L62.1363578,55.2616196 L56.0070092,55.2616196 L56.0070092,51.1082059 C56.0070092,50.2221895 55.5409448,49.3938831 54.7773559,48.9203226 C54.0120472,48.4535516 53.0558413,48.4043284 52.2492576,48.7930214 C48.7804315,50.4666078 45.0708341,51.3135851 41.2202136,51.3135851 C37.3248784,51.3135851 33.5757257,50.447937 30.0793829,48.7404036 C29.2710794,48.3432239 28.3114339,48.3890523 27.5461252,48.8609154 C26.7756571,49.3293838 26.3095927,50.1576903 26.3095927,51.050496 L26.3095927,55.2616196 L20.1768045,55.2616196 L20.1768045,40.55918 C20.1768045,40.1127771 20.0581386,39.674861 19.8380049,39.2827733 C17.8911972,35.9135349 16.8610401,32.0978937 16.8610401,28.2398187 M0.062084592,26.5798111 C0.691529486,28.5436443 2.86878969,31.9943554 6.60074439,30.9810379 C7.12356201,30.8418552 7.60854414,30.6687256 8.05053141,30.4684384 C9.36789422,31.424046 10.8400386,31.9943554 11.9665041,32.3304306 C12.4428873,35.4297904 13.4420881,38.4442827 14.9555075,41.2245409 L14.9555075,55.7691271 C14.9555075,58.3321245 17.0674155,60.4164694 19.6643056,60.4164694 L26.8203718,60.4164694 C29.4189817,60.4164694 31.5291699,58.3321245 31.5291699,55.7691271 L31.5291699,54.9051763 C37.7066728,56.969153 44.594451,56.9844292 50.7839924,54.9459126 L50.7839924,55.7691271 C50.7839924,58.3321245 52.8959004,60.4164694 55.4945104,60.4164694 L62.6522963,60.4164694 C65.2491864,60.4164694 67.3593746,58.3321245 67.3593746,55.7691271 L67.3593746,47.5997849 C68.6079457,47.828927 69.8737146,47.9460441 71.1480826,47.9460441 C77.3152667,47.9460441 83.1350523,45.2523508 86.9805134,40.6864812 L93.2990395,40.6864812 C94.7402275,40.6864812 95.909688,39.5305863 95.909688,38.1082076 L95.909688,24.8451201 C95.909688,23.4261361 94.7402275,22.2685439 93.2990395,22.2685439 L90.3685092,22.2685439 C88.0037913,15.6454869 81.9948283,10.7078978 74.7992069,9.44846462 L74.7992069,3.85060662 C74.7992069,2.64039657 73.8258031,1.56767181 72.6271061,1.31137207 C72.6271061,1.31137207 72.384615,1.26045159 71.9288694,1.26045159 C70.3088227,1.26045159 66.3704926,1.98352239 61.8904272,8.05833554 C56.3853641,2.90857776 49.0263621,0.00950515609 41.2202136,0.00950515609 C24.9113996,0.00950515609 11.6397431,12.6751256 11.6397431,28.2398187 C11.6397431,28.659064 11.6603807,29.0749146 11.6792984,29.4958572 C11.2201132,29.3108461 10.7402905,29.0935854 10.2725063,28.8135228 C10.5958277,28.4231325 10.8537969,27.9869137 11.0481337,27.5150506 C12.3414194,24.3766517 10.2002749,20.718864 10.1091258,20.5627078 C10.0093777,20.3963676 9.87179409,20.2537903 9.70841359,20.1451599 C9.55019246,20.0399243 8.13136176,19.1522106 6.71081126,19.9245045 C5.45364127,20.611931 4.8809496,22.2328996 4.95834037,24.8824618 C5.00133524,26.3116299 5.42784435,27.487893 6.07276739,28.4553821 C6.01773396,28.4672635 5.96785991,28.4808423 5.91282648,28.4961185 C3.63753797,29.1122563 2.56266622,25.8346748 2.55062766,25.8041225 C2.33049392,25.1268801 1.59958114,24.7483712 0.913383015,24.9622372 C0.225465097,25.1761032 -0.156329347,25.9008714 0.062084592,26.5798111" id="Fill-18" fill="#4A4A4A" mask="url(#mask-8)"></path>
                        </g>
                        <path d="M78.251523,20.4666091 C79.2128883,20.4666091 79.9936751,21.6717271 79.9936751,23.1586051 C79.9936751,24.6437857 79.2128883,25.8489037 78.251523,25.8489037 C77.2884379,25.8489037 76.5128104,24.6437857 76.5128104,23.1586051 C76.5128104,21.6717271 77.2884379,20.4666091 78.251523,20.4666091" id="Fill-21" fill="#4A4A4A"></path>
                        <path d="M33.5083098,10.9331073 C42.339456,7.69626216 47.4300486,10.9263179 47.6433032,11.0671979 C48.2366324,11.4575882 48.4000129,12.2468556 48.0096195,12.8409279 C47.6175062,13.4333028 46.8074829,13.6013404 46.2055547,13.2211341 C46.0335752,13.1108064 41.9146667,10.6004268 34.4180812,13.3484353 C34.2667393,13.4027505 34.1171171,13.4299081 33.9623356,13.4299081 C33.4326388,13.4299081 32.9321785,13.1074117 32.7395615,12.5914175 C32.4867517,11.9226619 32.8307106,11.1809203 33.5083098,10.9331073" id="Fill-23" fill="#4A4A4A"></path>
                    </g>
                </g>
            </g>
        </g>
    </g>
</svg>