<?xml version="1.0" encoding="UTF-8"?>
<svg width="193px" height="193px" viewBox="0 0 193 193" version="1.1" xmlns="http://www.w3.org/2000/svg" xmlns:xlink="http://www.w3.org/1999/xlink">
    <!-- Generator: Sketch 48.2 (47327) - http://www.bohemiancoding.com/sketch -->
    <title>Group 9</title>
    <desc>Created with Sketch.</desc>
    <defs>
        <polygon id="path-1" points="0.73412984 0.927909896 113.147644 0.927909896 113.147644 89.575795 0.73412984 89.575795"></polygon>
    </defs>
    <g id="quality" stroke="none" stroke-width="1" fill="none" fill-rule="evenodd" transform="translate(-337.000000, -654.000000)">
        <g id="Group-9" transform="translate(337.000000, 654.000000)">
            <rect id="Rectangle-3" fill="#7DCBB5" x="0.754999161" y="0.570007324" width="192" height="192" rx="2"></rect>
            <g id="logo" transform="translate(32.754999, 31.577759)">
                <g id="Group-5" transform="translate(0.000000, 38.047485)" fill="#FFFFFF">
                    <path d="M118.394984,56.3887424 C118.01113,56.2459131 117.558094,56.2369863 117.180935,56.3932058 C116.341813,56.7435839 115.832984,57.5827059 115.359862,58.3615718 C105.245763,75.0034146 86.8274813,86.3047813 67.4093944,87.77994 C47.9913075,89.2573303 28.0755498,80.8705736 15.5645976,65.9471456 C3.05141366,51.0259493 -1.73336721,29.9519354 3.10497464,11.0895436 C3.87045031,8.11021413 4.90819429,5.10187242 6.95467007,2.80544541 C7.27380424,2.44837221 7.66658476,2.0868356 8.14417016,2.0868356 C9.10603609,2.08460389 9.41401173,3.37229912 9.41847514,4.33416505 L9.46087758,14.5866293 C9.465341,15.4703854 9.48765807,16.4143977 10.0031825,17.1307758 C10.8199874,18.2689466 12.5897315,18.3180442 13.8015487,17.6150563 C15.0155975,16.9143002 15.8011586,15.6757025 16.5398538,14.4862024 C15.2588537,14.5152146 14.7768048,16.4858124 13.5069633,16.6554221 C12.1143778,16.8406538 11.5876948,14.8990683 11.6122436,13.4930926 C11.6680363,10.5740192 11.7215973,7.6549458 11.77739,4.73364069 C11.7930119,3.76731134 11.7974753,2.73849419 11.288646,1.91499412 C10.3290118,0.355030582 7.90537746,0.323786677 6.41906027,1.39946969 C4.93274308,2.472921 4.17619424,4.27167724 3.56693809,6.00125054 C-0.675537859,18.0502393 -1.14865985,31.3958501 2.22791359,43.7148755 C4.06907228,50.4300834 7.05063349,56.8239253 10.9695118,62.579499 C14.8415244,68.2658897 19.688793,73.4858535 25.1944154,77.6100489 C30.7714525,81.7855737 37.0514773,85.0014642 43.6707218,87.1662204 C50.2921979,89.328745 57.2595887,90.442367 64.2269795,90.404428 C67.7441505,90.3865743 71.2613215,90.076367 74.7226999,89.458184 C93.0160062,86.2088179 109.635532,74.5258292 118.885959,58.4106694 C119.060033,58.1093888 119.236338,57.7857913 119.236338,57.4354132 C119.238569,56.933279 118.868106,56.5605838 118.394984,56.3887424" id="Fill-3"></path>
                </g>
                <g id="Group-10" transform="translate(7.937984, 23.813953)" fill="#FFFFFF">
                    <path d="M30.5808405,29.4423611 C30.699121,29.4423611 30.8107064,29.495922 30.9133649,29.5963489 C31.0160235,29.7012391 31.0383406,29.7838123 30.9780845,29.8418367 C30.0653161,31.0201783 29.2641331,31.8860808 28.5723038,32.4462394 C27.8804745,33.0041662 27.1507061,33.2831297 26.3874621,33.2831297 C24.7092181,33.2831297 23.8991083,32.1226418 23.9571327,29.7972026 L24.0017668,21.9348971 C24.0017668,18.6408968 23.1336326,16.9894332 21.3951325,16.9894332 C20.277047,16.9894332 19.254925,17.594226 18.3265347,18.8015797 C17.4003761,20.0089335 16.6549858,21.7876044 16.0970589,24.1442875 C15.539132,26.4987389 15.2423149,29.3084586 15.2155344,32.5801418 C15.2155344,32.7854589 15.0883271,32.9461418 14.8383759,33.0644223 C14.5884246,33.1827028 14.2291197,33.2407272 13.7582294,33.2407272 C13.3163513,33.2407272 13.0195342,33.2184101 12.8722416,33.1760077 C12.7271806,33.1291418 12.624522,33.0644223 12.5642659,32.975154 C12.5642659,32.8591052 12.586583,32.4529345 12.6312171,31.7611052 C12.6758513,31.0692758 12.6981684,30.3551294 12.6981684,29.618666 L12.785205,19.7723725 C12.785205,18.8886163 12.6691562,18.234726 12.4325952,17.8062382 C12.1960342,17.3822138 11.8724366,17.1657381 11.4618024,17.1657381 C10.8123755,17.1657381 9.82819253,17.8731894 8.50032657,19.2858603 C8.44230217,19.3483481 8.39989973,19.3773603 8.37088753,19.3773603 C8.25260704,19.3773603 8.14994849,19.3215676 8.06068019,19.2211407 C7.97141189,19.1184822 7.95802165,19.0202871 8.01604604,18.9354822 C8.89980221,17.7549089 9.72330228,16.8800796 10.4887779,16.3065308 C11.2542536,15.7329819 12.0487415,15.4450917 12.8722416,15.4450917 C13.6979733,15.4450917 14.2960709,15.7262868 14.6643027,16.281982 C15.0303027,16.8421405 15.2155344,17.6991162 15.2155344,18.8439822 L15.2155344,25.1150802 C15.7734613,22.0241654 16.6929248,19.6094578 17.9761566,17.8731894 C19.254925,16.1391527 20.8081934,15.2687868 22.6337301,15.2687868 C23.9281205,15.2687868 24.8989132,15.7329819 25.5483401,16.6591405 C26.1955353,17.5875309 26.5035109,19.0671529 26.4767304,21.0980067 L26.4298646,28.9580805 C26.4298646,29.8418367 26.525828,30.4890319 26.7177549,30.9018978 C26.90745,31.3147637 27.2265842,31.5200807 27.6662305,31.5200807 C28.3446696,31.5200807 29.2864502,30.83941 30.4938039,29.4892269 L30.5808405,29.4423611 Z" id="Fill-6"></path>
                    <path d="M41.8188268,29.4642318 C42.8632659,28.2457195 43.6800708,26.7861828 44.2692416,25.0945485 C44.8584124,23.4006825 45.1529978,21.9054385 45.1529978,20.6132799 C45.1529978,19.3769139 44.8137782,18.4351334 44.1398026,17.7857065 C43.4591318,17.1385113 42.488339,16.8149137 41.2229609,16.8149137 C39.9263388,16.8149137 38.7636192,17.1585967 37.7348021,17.8526577 C36.7037532,18.5422553 35.8936434,19.5465237 35.3044726,20.8543043 C34.7153018,22.1643166 34.4229481,23.717585 34.4229481,25.5141095 C34.4519603,27.4556951 34.8045701,28.9063049 35.4830092,29.8637074 C36.1592166,30.8188782 37.0719849,31.2964637 38.2190826,31.2964637 C39.573729,31.2964637 40.7743877,30.6849758 41.8188268,29.4642318 M51.7343032,29.4419147 C51.8213398,29.4419147 51.9173032,29.4954757 52.0199617,29.5981342 C52.1226203,29.7007928 52.1583276,29.783366 52.1315471,29.8413904 C51.1875348,31.0487441 50.3729616,31.9258052 49.6789006,32.4681101 C48.9870713,33.0148784 48.2595346,33.2826833 47.4918272,33.2826833 C46.6683272,33.2826833 46.0434491,32.9814028 45.6171929,32.3788418 C45.1887051,31.7785125 44.9923148,30.9148417 45.021327,29.7967562 L45.1083636,24.7642558 C44.1955953,27.4400731 43.0551927,29.5601952 41.687156,31.1201588 C40.3191193,32.6845857 38.7792412,33.4612199 37.0719849,33.4612199 C35.6883263,33.4612199 34.5032896,32.9456955 33.5168749,31.9146466 C32.5304602,30.8880612 32.0394845,29.3258659 32.0394845,27.234756 C32.0394845,25.1436461 32.5371553,23.1819752 33.539192,21.3385848 C34.5389969,19.5018895 35.8579361,18.0289626 37.491546,16.9242674 C39.1251558,15.8195722 40.825717,15.2683404 42.5909976,15.2683404 C43.5908025,15.2683404 44.4767904,15.4602673 45.2422661,15.844121 L45.3739368,5.55148599 C45.4319612,4.17005905 44.9610709,3.47599802 43.9590343,3.47599802 C43.4011074,3.47599802 42.6512537,3.69693706 41.7094731,4.13881515 C41.6782292,4.17005905 41.6358268,4.1834493 41.5755707,4.1834493 C41.4572902,4.1834493 41.3791804,4.10980295 41.3345463,3.96251025 C41.2876804,3.81521756 41.3256194,3.71255902 41.4438999,3.65453462 L47.2284858,0.869363667 L47.3155223,0.869363667 C47.4047906,0.869363667 47.5074492,0.916229524 47.6257297,1.00326612 C47.7417785,1.09253442 47.8020346,1.16618076 47.8020346,1.22420516 L47.5386931,28.9576342 C47.5386931,29.8413904 47.6324248,30.4885855 47.8243517,30.9014514 C48.0162785,31.3143173 48.3309493,31.5196344 48.775059,31.5196344 C49.4512664,31.5196344 50.393047,30.8411953 51.6004007,29.4887806 C51.6294129,29.4597684 51.6740471,29.4419147 51.7343032,29.4419147" id="Fill-8"></path>
                    <path d="M55.575295,9.76896682 C55.2226852,9.43197898 55.0463803,8.95216187 55.0463803,8.3339789 C55.0463803,7.77605202 55.2226852,7.33417394 55.575295,7.00834464 C55.9301364,6.68474706 56.414417,6.52406412 57.0325999,6.52406412 C57.5905268,6.52406412 58.0391,6.68474706 58.3805513,7.00834464 C58.7175391,7.33417394 58.8871489,7.77605202 58.8871489,8.3339789 C58.8871489,8.95216187 58.7242342,9.43197898 58.4028684,9.76896682 C58.0770391,10.1081864 57.6217707,10.2777961 57.0325999,10.2777961 C56.414417,10.2777961 55.9301364,10.1081864 55.575295,9.76896682 M56.7023072,32.4029442 C56.2738194,31.8137734 56.0774291,30.9434075 56.1042096,29.7985416 L56.2381121,19.7714798 C56.2671243,18.0374431 55.8408681,17.1648455 54.957112,17.1648455 C54.2518924,17.1648455 53.263246,17.8745284 52.0000995,19.2871993 C51.9398434,19.3474554 51.8952093,19.3764676 51.8661971,19.3764676 C51.7479166,19.3764676 51.6452581,19.3229066 51.5582215,19.2224798 C51.4689532,19.1175895 51.4555629,19.0216261 51.5135873,18.9345895 C52.3973435,17.7562479 53.2186118,16.8791869 53.9863192,16.3078698 C54.7517949,15.7320892 55.5462828,15.444199 56.3697828,15.444199 C57.1955146,15.444199 57.7980756,15.7253941 58.1796976,16.2810893 C58.5635513,16.8434796 58.7554781,17.6982235 58.7554781,18.8453212 L58.6215757,28.9571879 C58.6215757,30.6644441 59.0344416,31.5191881 59.8579416,31.5191881 C60.5966368,31.5191881 61.5384174,30.840749 62.685515,29.4883342 C62.7145272,29.459322 62.7591614,29.4414684 62.8171858,29.4414684 C62.9354663,29.4414684 63.0470516,29.4950294 63.1497102,29.5976879 C63.250137,29.7003465 63.2746858,29.7829196 63.2166614,29.840944 C62.3038931,31.0192856 61.4937832,31.8851881 60.786332,32.4475784 C60.0811124,33.0032735 59.3424172,33.2844687 58.5791732,33.2844687 C57.7556732,33.2844687 57.1285634,32.9898833 56.7023072,32.4029442" id="Fill-10"></path>
                    <path d="M68.3357521,18.2260224 C67.5702764,19.4043639 67.1596422,20.9353153 67.0993861,22.8188764 C71.8395328,22.0243885 74.2096062,20.5068274 74.2096062,18.2706565 C74.2096062,17.6837174 73.9886672,17.2351442 73.5467891,16.9249369 C73.104911,16.6169613 72.5001183,16.4607417 71.7346426,16.4607417 C70.2371669,16.4607417 69.1034594,17.0521442 68.3357521,18.2260224 Z M78.315948,30.4580111 C78.4052163,30.4580111 78.498948,30.5026453 78.6038383,30.5919136 C78.7042651,30.6789502 78.7288139,30.7682185 78.6707895,30.8574868 C76.729204,32.564743 74.562216,33.4172553 72.1787524,33.4172553 C70.5272888,33.4172553 69.1168497,33.0356333 67.9385081,32.2701576 C66.7601666,31.504682 65.8764104,30.4892551 65.2894713,29.2238769 C64.7003006,27.9584988 64.4057152,26.6038523 64.4057152,25.1577058 C64.4057152,23.4504496 64.8029591,21.8413885 65.597447,20.3238274 C66.3941665,18.808498 67.4899349,17.5855223 68.8869838,16.6593637 C70.2862644,15.7332051 71.868545,15.2690099 73.6360574,15.2690099 C74.8121672,15.2690099 75.7338624,15.4810221 76.3944478,15.9072783 C77.057265,16.3357661 77.3897894,16.9182418 77.3897894,17.6524735 C77.3607772,18.9490956 76.3609722,20.1341323 74.3859111,21.2098153 C72.4130817,22.2832666 69.9827522,23.0241935 67.0993861,23.4370594 C67.1596422,25.9990596 67.7532764,28.0522305 68.8869838,29.5965721 C70.0229229,31.1431453 71.6342157,31.9153161 73.723094,31.9153161 C74.4885696,31.9153161 75.2696673,31.7992674 76.0641551,31.5627064 C76.858643,31.3283771 77.5817162,30.9601453 78.2289114,30.4580111 L78.315948,30.4580111 Z" id="Fill-12"></path>
                    <path d="M50.5921153,57.842178 C50.9000909,58.9491049 51.3352739,59.9533733 51.8932008,60.8661416 C52.6609081,59.2503854 53.0425301,57.3065682 53.0425301,55.0391533 C53.0425301,52.653458 52.5426276,51.4639579 51.5428227,51.4639579 C51.0406885,51.4639579 50.6791519,51.7652385 50.4582128,52.3700312 C50.2395055,52.9725922 50.1279201,53.6845069 50.1279201,54.5102387 C50.1279201,55.6283241 50.2819079,56.7397145 50.5921153,57.842178 Z M61.5230186,48.549348 C61.5230186,48.549348 61.7930552,49.2590309 62.3375918,50.6917871 C62.8821285,52.1178482 63.1543968,53.760385 63.1543968,55.6149339 C63.1543968,57.7640682 62.801787,59.6744098 62.0965674,61.3526539 C61.3891161,63.0308979 60.4830429,64.3275199 59.3805794,65.2402883 C58.2758842,66.150825 57.1488719,66.608325 56.0017743,66.608325 C55.1470303,66.608325 54.3235302,66.3382884 53.5268106,65.7915201 C52.7323228,65.2469834 52.0404935,64.4904346 51.4513227,63.5174101 C50.6590665,64.4904346 49.7909323,65.2469834 48.84692,65.7915201 C47.9051395,66.3382884 46.9499687,66.608325 45.9769442,66.608325 C44.3277124,66.608325 43.0177001,66.0347762 42.0469073,64.8854468 C41.0761145,63.7405809 40.591834,62.2073978 40.591834,60.2925928 C40.591834,59.3508122 40.7145779,58.3666292 40.9667609,57.3333487 C41.2167121,56.3045315 41.5737853,55.0815558 42.0469073,53.6688849 L42.4887854,52.3432507 C42.5780537,52.1111531 42.6204561,51.9192263 42.6204561,51.7719336 C42.6204561,51.4170921 42.3705049,51.2407872 41.8706024,51.2407872 L39.3086022,51.2407872 C38.4560899,51.2407872 37.8312118,51.2943482 37.4317362,51.394775 C37.0344923,51.4996653 36.7488337,51.7049824 36.5702971,52.012958 C36.3962239,52.3209336 36.2466995,52.8319946 36.128419,53.5349825 C36.128419,53.6264825 36.0547727,53.6688849 35.9097117,53.6688849 C35.7914312,53.6688849 35.6954678,53.6398727 35.6218214,53.5840801 C35.5481751,53.5215923 35.5280897,53.4501776 35.5548702,53.3609093 C35.8204434,51.9772507 36.0636995,50.9997628 36.2846385,50.4239822 C36.5055776,49.8504334 36.8514922,49.4621163 37.3223825,49.2523358 C37.7932728,49.0492504 38.5297363,48.9443602 39.5295412,48.9443602 L43.8568221,48.9443602 C44.1514075,48.9443602 44.3210172,48.9756041 44.3656514,49.0336285 C44.4080538,49.0916529 44.3879685,49.2389456 44.2987002,49.4755066 C43.8568221,51.0644823 43.5198342,52.653458 43.2832732,54.2446655 C43.0467122,55.8336412 42.9440537,57.2329218 42.9752976,58.4402756 C42.9752976,60.558166 43.3502245,62.1114344 44.1000782,63.0978491 C44.8499319,64.0842638 45.8162613,64.5774712 46.9923711,64.5774712 C48.5233224,64.5774712 49.8199445,63.8856419 50.8777738,62.5042149 C49.8779689,60.4108733 49.3780664,57.9381414 49.3780664,55.0815558 C49.3780664,53.2292386 49.5900786,51.7049824 50.0185665,50.5154823 C50.4448226,49.3215187 51.0697007,48.7256528 51.8932008,48.7256528 C52.600652,48.7256528 53.1764326,49.1652992 53.6160789,50.0468237 C54.057957,50.9305799 54.2788961,52.287458 54.2788961,54.110763 C54.2788961,57.0276047 53.6897253,59.5873732 52.5113837,61.7945319 C53.8080058,63.5352638 55.2496888,64.3989346 56.8408963,64.3989346 C57.6956402,64.3989346 58.5102135,64.1266663 59.2913111,63.5843613 C60.0724087,63.037593 60.7039819,62.2297149 61.1904942,61.1540319 C61.6747747,60.0805806 61.9202625,58.8085073 61.9202625,57.3333487 C61.9202625,55.8336412 61.6903967,54.6642265 61.2351283,53.8228728 C60.7776283,52.9859825 60.1795307,52.2160434 59.4452989,51.5063604 C59.0614452,51.211775 58.7690916,50.9305799 58.5637745,50.6694701 C58.3562257,50.4038969 58.2535671,50.1070798 58.2535671,49.7857139 C58.2535671,49.3706163 58.4142501,49.0626407 58.7378476,48.8595553 C59.0614452,48.6542382 59.4452989,48.549348 59.887177,48.549348 L61.5230186,48.549348 Z" id="Fill-14"></path>
                    <path d="M78.9647054,63.7396882 C79.9064859,62.5323344 80.3773762,60.8964928 80.3773762,58.8388585 C80.3773762,57.2454194 80.1051079,55.7323217 79.5605713,54.2884069 C79.0138029,52.8467239 78.250559,51.6840043 77.2641442,50.7980164 C76.2777295,49.9187237 75.1663392,49.4746139 73.9299732,49.4746139 C72.4882902,49.4746139 71.2809364,50.0660164 70.307912,51.2398945 C69.3393509,52.4204678 68.8528387,54.0384557 68.8528387,56.0983217 C68.8528387,57.6582853 69.1318021,59.1669195 69.6919607,60.6242245 C70.2498876,62.0837612 71.0309852,63.2687979 72.0330219,64.1815663 C73.0328268,65.0921029 74.153144,65.5518347 75.3872782,65.5518347 C76.8289613,65.5518347 78.0229248,64.9470419 78.9647054,63.7396882 M70.0668876,65.5250542 C68.9331802,64.7774322 68.0561191,63.7530784 67.4379361,62.4564564 C66.8219849,61.162066 66.5117775,59.7069927 66.5117775,58.0867731 C66.5117775,56.2590047 66.8800093,54.6097728 67.614241,53.1413093 C68.3507045,51.6683823 69.3728265,50.5145896 70.6828388,49.6732358 C71.9928511,48.8363455 73.4880952,48.4167845 75.1663392,48.4167845 C77.4047418,48.4167845 79.2213517,49.1599431 80.6206323,50.6440286 C82.0176812,52.1325775 82.7184374,54.1879801 82.7184374,56.8080047 C82.7184374,58.8076146 82.3211934,60.5572733 81.5244739,62.0614442 C80.729986,63.5633833 79.6699249,64.7037858 78.3465224,65.48042 C77.0208881,66.2615177 75.5925953,66.6542982 74.061644,66.6542982 C72.5306926,66.6542982 71.200595,66.2771396 70.0668876,65.5250542" id="Fill-16"></path>
                    <path d="M97.8186166,63.7396882 C98.7603972,62.5323344 99.2335192,60.8964928 99.2335192,58.8388585 C99.2335192,57.2454194 98.9590191,55.7323217 98.4144825,54.2884069 C97.8699459,52.8467239 97.1044702,51.6840043 96.1180555,50.7980164 C95.1316408,49.9187237 94.0224822,49.4746139 92.7838845,49.4746139 C91.3422015,49.4746139 90.1348477,50.0660164 89.1618232,51.2398945 C88.1932622,52.4204678 87.70675,54.0384557 87.70675,56.0983217 C87.70675,57.6582853 87.9857134,59.1669195 88.545872,60.6242245 C89.1037988,62.0837612 89.8848965,63.2687979 90.8869331,64.1815663 C91.8867381,65.0921029 93.0070553,65.5518347 94.2411895,65.5518347 C95.6828725,65.5518347 96.8768361,64.9470419 97.8186166,63.7396882 M88.9207988,65.5250542 C87.7870914,64.7774322 86.9100304,63.7530784 86.2940791,62.4564564 C85.6758961,61.162066 85.3656888,59.7069927 85.3656888,58.0867731 C85.3656888,56.2590047 85.7339205,54.6097728 86.4681523,53.1413093 C87.2046158,51.6683823 88.2289695,50.5145896 89.5389818,49.6732358 C90.8489941,48.8363455 92.3442381,48.4167845 94.0224822,48.4167845 C96.2586531,48.4167845 98.075263,49.1599431 99.4745436,50.6440286 C100.871592,52.1325775 101.572349,54.1879801 101.572349,56.8080047 C101.572349,58.8076146 101.175105,60.5572733 100.378385,62.0614442 C99.5838972,63.5633833 98.5260679,64.7037858 97.2004336,65.48042 C95.8747994,66.2615177 94.4465066,66.6542982 92.917787,66.6542982 C91.3846039,66.6542982 90.0545062,66.2771396 88.9207988,65.5250542" id="Fill-18"></path>
                    <path d="M4.5609165,8.43395939 C4.5609165,9.48955704 3.70617253,10.3420693 2.65057488,10.3420693 C1.59497724,10.3420693 0.740233268,9.48955704 0.740233268,8.43395939 C0.740233268,7.37836175 1.59497724,6.52361778 2.65057488,6.52361778 C3.70617253,6.52361778 4.5609165,7.37836175 4.5609165,8.43395939" id="Fill-20"></path>
                    <path d="M112.418447,63.5261138 C111.639581,64.5303822 110.941057,65.3137115 110.322874,65.8716384 C110.206825,65.9765286 110.09524,66.072492 109.985886,66.1595286 C109.287361,66.7241506 108.550898,67.0075775 107.776495,67.0075775 C106.944069,67.0075775 106.303569,66.7107604 105.857227,66.1148945 C105.410886,65.5212603 105.203337,64.6419675 105.232349,63.4792479 L105.497922,38.9773313 C105.497922,38.2631849 105.395264,37.736502 105.187715,37.3950507 C104.977934,37.0513678 104.623093,36.881758 104.116495,36.881758 C103.609898,36.881758 102.866739,37.102697 101.884788,37.5490385 L101.795519,37.5936727 C101.706251,37.5936727 101.630373,37.5200263 101.572349,37.3705019 C101.512093,37.2232092 101.543336,37.118319 101.661617,37.0580629 L107.419422,34.2461114 L107.508691,34.2461114 C107.626971,34.2461114 107.738556,34.2907456 107.843447,34.3800139 C107.946105,34.4692822 107.999666,34.5451603 107.999666,34.6054164 L107.776495,62.6334308 C107.776495,63.5261138 107.881386,64.1800041 108.088935,64.5951017 C108.296483,65.0146627 108.624544,65.2222115 109.070886,65.2222115 C109.814044,65.2222115 110.751362,64.5370773 111.882837,63.1690406 C111.911849,63.1400284 111.956484,63.1244064 112.01674,63.1244064" id="Fill-22"></path>
                </g>
                <g id="Group-26" transform="translate(13.390245, 0.108458)">
                    <mask id="mask-2" fill="white">
                        <use xlink:href="#path-1"></use>
                    </mask>
                    <g id="Clip-25"></g>
                    <path d="M106.852816,37.3047421 C100.961108,24.784863 90.6729365,14.1173012 78.1530574,7.86852021 C65.6554955,1.61973922 50.926226,-0.5896512 37.3128103,1.97681242 C23.3200043,4.56559311 10.4430521,11.9079108 1.24841717,22.5754726 C0.511953699,23.3119361 0.511953699,24.4277898 1.60549037,25.1642533 C2.34195385,25.9007168 3.45780759,25.9007168 4.19427107,24.784863 C12.6524425,14.4966915 24.7929312,7.48912993 38.0492738,4.56559311 C51.2832992,1.61973922 65.2761052,3.44973937 77.416594,9.34144715 C89.5570827,15.2331549 99.8675714,25.1642533 105.759279,37.3047421 C110.780621,47.6598648 113.123914,59.3540121 112.097328,70.8026716 C112.052694,71.2467814 112.00806,71.7176716 111.941109,72.1863302 C111.874158,72.7888912 111.807206,73.4360864 111.717938,74.0364157 C111.717938,74.0832816 111.717938,74.1279157 111.695621,74.217184 C111.673304,74.4403548 111.606353,74.7751109 111.517084,75.2214524 C111.47245,75.6231598 111.383182,76.0471842 111.316231,76.4488915 C111.313999,76.4555866 111.311767,76.4667452 111.309536,76.475672 L111.293914,76.5158427 L111.307304,76.4868306 C111.293914,76.5470867 111.28945,76.6162696 111.269365,76.6720623 C110.316426,82.4945871 105.681169,87.7078558 105.681169,87.7078558 L104.868828,89.575795 C110.579767,84.456258 112.043767,76.7925745 112.429853,74.3287694 L112.454402,74.2841353 L112.539207,73.5699889 C112.539207,73.5632937 112.54367,73.5320498 112.54367,73.5320498 L113.034646,69.3966958 L113.034646,69.3743788 C113.681841,58.3943779 111.539402,47.2581575 106.852816,37.3047421" id="Fill-24" fill="#FFFFFF" mask="url(#mask-2)"></path>
                </g>
            </g>
        </g>
    </g>
</svg>