<?xml version="1.0" encoding="UTF-8"?>
<svg width="129px" height="129px" viewBox="0 0 129 129" version="1.1" xmlns="http://www.w3.org/2000/svg" xmlns:xlink="http://www.w3.org/1999/xlink">
    <!-- Generator: Sketch 48.2 (47327) - http://www.bohemiancoding.com/sketch -->
    <title>logo</title>
    <desc>Created with Sketch.</desc>
    <defs>
        <polygon id="path-1" points="0.73986523 0.935159192 114.03161 0.935159192 114.03161 90.2756059 0.73986523 90.2756059"></polygon>
    </defs>
    <g id="quality" stroke="none" stroke-width="1" fill="none" fill-rule="evenodd" transform="translate(-113.000000, -686.000000)">
        <g id="logo" transform="translate(113.500000, 685.000000)">
            <g id="Page-1-Copy-3" transform="translate(0.125000, 0.000000)">
                <path d="M114.514201,100.593998 C114.514201,100.965106 114.88531,100.965106 114.88531,100.965106 L115.256419,100.593998" id="Fill-1" fill="#E29F4C"></path>
                <g id="Group-5" transform="translate(0.000000, 38.447295)" fill="#E29F4C">
                    <path d="M119.319945,56.8292794 C118.933092,56.6853343 118.476516,56.6763377 118.096411,56.8337777 C117.250733,57.1868931 116.737929,58.0325708 116.261111,58.8175216 C106.067996,75.5893788 87.505821,86.9790374 67.9360303,88.4657208 C48.3662396,89.9546532 28.29489,81.5023749 15.686196,66.4623576 C3.07525283,51.4245895 -1.74690914,30.1859349 3.12923225,11.1761807 C3.9006882,8.17357517 4.94653956,5.1417308 7.00900343,2.82736295 C7.33063083,2.46750012 7.72647995,2.103139 8.20779649,2.103139 C9.177177,2.10088986 9.48755869,3.3986452 9.49205698,4.36802571 L9.53479069,14.7005873 C9.53928897,15.5912478 9.5617804,16.5426352 10.0813324,17.26461 C10.9045186,18.4116728 12.6880888,18.4611539 13.9093733,17.752674 C15.1329069,17.0464432 15.9246051,15.798169 16.6690714,14.5993759 C15.3780634,14.6286148 14.8922486,16.6146078 13.6124864,16.7855426 C12.2090214,16.9722215 11.6782237,15.0154673 11.7029643,13.5985074 C11.7591928,10.6566287 11.8131723,7.71475006 11.8694008,4.77062226 C11.8851448,3.79674346 11.8896431,2.75988867 11.3768386,1.92995501 C10.4097072,0.357804259 7.96713822,0.326316261 6.46920918,1.41040305 C4.97128013,2.49224069 4.20882075,4.30504971 3.59480479,6.04813531 C-0.680815498,18.1912568 -1.15763375,31.6411302 2.24531917,44.056398 C4.1008619,50.8240684 7.10571656,57.2678622 11.0552112,63.0684013 C14.9574738,68.7992169 19.8426117,74.0599617 25.3912468,78.2163774 C31.0118544,82.4245234 37.340942,85.6655381 44.0118993,87.8472065 C50.6851057,90.0266258 57.7069292,91.148948 64.7287528,91.1107126 C68.2734017,91.0927195 71.8180506,90.7800886 75.3064709,90.1570761 C93.7426937,86.8823243 110.492059,75.1080622 119.814756,58.8670027 C119.990189,58.5633684 120.167871,58.2372427 120.167871,57.8841273 C120.170121,57.3780702 119.796763,57.0024634 119.319945,56.8292794" id="Fill-3"></path>
                </g>
                <path d="M38.8197533,53.7749436 C38.9389579,53.7749436 39.051415,53.828923 39.1548756,53.9301345 C39.2583362,54.0358442 39.2808276,54.1190624 39.2201007,54.1775402 C38.3002014,55.3650875 37.4927591,56.2377549 36.7955249,56.8022897 C36.0982907,57.3645754 35.362821,57.6457182 34.5936142,57.6457182 C32.9022589,57.6457182 32.0858201,56.476164 32.1442978,54.1325573 L32.1892806,46.2088275 C32.1892806,42.8890929 31.3143641,41.2247273 29.5622819,41.2247273 C28.4354615,41.2247273 27.4053541,41.834245 26.4697107,43.0510312 C25.5363165,44.2678174 24.7851028,46.0603841 24.2228172,48.4354788 C23.6605315,50.8083244 23.3613955,53.6399951 23.3344058,56.9372383 C23.3344058,57.1441594 23.2062046,57.3060977 22.9543007,57.4253022 C22.7023967,57.5445068 22.3402847,57.6029845 21.8657156,57.6029845 C21.4203853,57.6029845 21.1212494,57.5804931 20.9728059,57.5377594 C20.8266117,57.4905274 20.7231511,57.4253022 20.6624242,57.3353365 C20.6624242,57.2183811 20.6849157,56.8090371 20.7298985,56.1118029 C20.7748814,55.4145686 20.7973728,54.694843 20.7973728,53.9526259 L20.8850894,44.0294083 C20.8850894,43.1387477 20.768134,42.4797489 20.5297248,42.0479135 C20.2913157,41.6205764 19.96519,41.4024096 19.5513477,41.4024096 C18.8968472,41.4024096 17.9049753,42.1153878 16.5667354,43.5390951 C16.5082577,43.6020711 16.4655239,43.63131 16.4362851,43.63131 C16.3170805,43.63131 16.21362,43.5750814 16.1236543,43.47387 C16.0336885,43.3704094 16.0201937,43.2714472 16.0786714,43.1859797 C16.9693319,41.9961832 17.7992656,41.1145193 18.5707215,40.5364896 C19.3421775,39.9584599 20.1428723,39.6683205 20.9728059,39.6683205 C21.8049887,39.6683205 22.407759,39.9517125 22.7788675,40.5117491 C23.1477269,41.0762839 23.3344058,41.9399547 23.3344058,43.0937649 L23.3344058,49.4138559 C23.8966915,46.2987932 24.8233383,43.8652208 26.1165953,42.1153878 C27.4053541,40.3678039 28.9707574,39.4906383 30.8105562,39.4906383 C32.1150589,39.4906383 33.093436,39.9584599 33.7479365,40.8918542 C34.4001879,41.8274975 34.7105696,43.3186792 34.6835799,45.365399 L34.6363479,53.2868796 C34.6363479,54.1775402 34.733061,54.8297915 34.9264873,55.2458829 C35.1176644,55.6619743 35.4392918,55.8688955 35.882373,55.8688955 C36.5661123,55.8688955 37.5152506,55.182907 38.7320368,53.8221756 L38.8197533,53.7749436 Z" id="Fill-6" fill="#E29F4C"></path>
                <path d="M50.1455364,53.7969852 C51.1981352,52.5689533 52.0213214,51.098014 52.6150951,49.3931638 C53.2088687,47.6860645 53.5057556,46.1791389 53.5057556,44.8768852 C53.5057556,43.6308602 53.1638859,42.6817219 52.4846448,42.0272214 C51.7986563,41.37497 50.8202792,41.0488443 49.5450153,41.0488443 C48.2382634,41.0488443 47.06646,41.3952123 46.0296052,42.0946957 C44.9905013,42.7896808 44.1740625,43.801795 43.5802888,45.1197926 C42.9865151,46.4400394 42.6918774,48.0054427 42.6918774,49.8160026 C42.7211163,51.7727568 43.0764808,53.2346995 43.7602202,54.1995818 C44.4417105,55.1622148 45.3616098,55.6435314 46.5176692,55.6435314 C47.8828988,55.6435314 49.0929376,55.0272663 50.1455364,53.7969852 M60.1384774,53.7744938 C60.226194,53.7744938 60.3229071,53.8284732 60.4263677,53.9319338 C60.5298283,54.0353943 60.5658145,54.1186126 60.5388248,54.1770903 C59.5874375,55.3938765 58.7665004,56.2777896 58.067017,56.8243313 C57.3697828,57.3753713 56.6365622,57.6452684 55.8628571,57.6452684 C55.0329235,57.6452684 54.4031635,57.3416341 53.9735773,56.7343656 C53.5417419,56.1293462 53.3438173,55.258928 53.3730562,54.1321075 L53.4607727,49.0602907 C52.5408734,51.7570128 51.3915614,53.8936983 50.0128369,55.4658491 C48.6341125,57.0424981 47.082204,57.8251998 45.3616098,57.8251998 C43.9671413,57.8251998 42.7728466,57.3056478 41.7787255,56.2665439 C40.7846044,55.2319383 40.289793,53.6575384 40.289793,51.5500916 C40.289793,49.4426449 40.7913518,47.4656485 41.8012169,45.6078566 C42.8088329,43.7568122 44.1380762,42.272378 45.7844487,41.1590523 C47.4308211,40.0457267 49.1446679,39.4901884 50.9237397,39.4901884 C51.9313557,39.4901884 52.8242653,39.6836147 53.5957213,40.0704673 L53.7284207,29.6974211 C53.7868984,28.3052017 53.3123293,27.6057184 52.3024642,27.6057184 C51.7401786,27.6057184 50.9844666,27.8283835 50.0353284,28.2737137 C50.0038404,28.3052017 49.9611067,28.3186966 49.9003798,28.3186966 C49.7811753,28.3186966 49.7024553,28.2444749 49.6574724,28.0960315 C49.6102404,27.9475881 49.6484758,27.8441275 49.7676804,27.7856498 L55.5974583,24.9787197 L55.6851749,24.9787197 C55.7751406,24.9787197 55.8786011,25.0259517 55.9978057,25.1136682 C56.1147611,25.2036339 56.175488,25.2778557 56.175488,25.3363334 L55.9100891,53.2864298 C55.9100891,54.1770903 56.0045531,54.8293417 56.1979794,55.2454331 C56.3914057,55.6615245 56.7085348,55.8684456 57.1561142,55.8684456 C57.8376044,55.8684456 58.7867427,55.1847063 60.0035289,53.8217258 C60.0327677,53.7924869 60.0777506,53.7744938 60.1384774,53.7744938" id="Fill-8" fill="#E29F4C"></path>
                <path d="M64.0094769,33.947851 C63.6541124,33.6082304 63.4764301,33.1246647 63.4764301,32.5016522 C63.4764301,31.9393665 63.6541124,31.4940363 64.0094769,31.1656614 C64.3670906,30.8395357 64.8551546,30.6775975 65.4781671,30.6775975 C66.0404528,30.6775975 66.4925305,30.8395357 66.8366493,31.1656614 C67.1762699,31.4940363 67.3472047,31.9393665 67.3472047,32.5016522 C67.3472047,33.1246647 67.1830173,33.6082304 66.8591408,33.947851 C66.5307659,34.2897207 66.0719408,34.4606555 65.4781671,34.4606555 C64.8551546,34.4606555 64.3670906,34.2897207 64.0094769,33.947851 M65.145294,56.7586563 C64.7134586,56.1648827 64.5155341,55.287717 64.5425238,54.1339068 L64.6774723,44.0285086 C64.7067112,42.2809247 64.2771249,41.4015099 63.3864644,41.4015099 C62.6757353,41.4015099 61.6793651,42.1167373 60.4063503,43.5404446 C60.3456235,43.6011715 60.3006406,43.6304103 60.2714018,43.6304103 C60.1521972,43.6304103 60.0487366,43.5764309 59.9610201,43.4752195 C59.8710544,43.3695098 59.8575595,43.2727966 59.9160372,43.1850801 C60.8066977,41.9975327 61.6343822,41.1136196 62.4080873,40.5378391 C63.1795433,39.9575603 63.9802381,39.6674209 64.8101718,39.6674209 C65.6423546,39.6674209 66.2496231,39.9508129 66.6342265,40.5108494 C67.021079,41.0776334 67.2145053,41.939055 67.2145053,43.0951144 L67.0795567,53.28598 C67.0795567,55.0065742 67.4956481,55.8679958 68.3255818,55.8679958 C69.070048,55.8679958 70.0191863,55.1842564 71.1752456,53.821276 C71.2044845,53.7920371 71.2494673,53.774044 71.307945,53.774044 C71.4271496,53.774044 71.5396067,53.8280234 71.6430673,53.9314839 C71.7442787,54.0349445 71.7690193,54.1181628 71.7105416,54.1766405 C70.7906422,55.3641879 69.9742034,56.2368552 69.2612252,56.8036392 C68.5504961,57.3636757 67.8060298,57.6470677 67.036823,57.6470677 C66.2068894,57.6470677 65.5748803,57.3501809 65.145294,56.7586563" id="Fill-10" fill="#E29F4C"></path>
                <path d="M76.8696251,42.4709773 C76.0981692,43.6585246 75.6843269,45.2014365 75.6236001,47.099713 C80.4007792,46.2990182 82.7893687,44.7696011 82.7893687,42.5159601 C82.7893687,41.9244356 82.5667036,41.4723579 82.1213734,41.1597271 C81.6760431,40.8493454 81.0665254,40.6919054 80.2950695,40.6919054 C78.7858947,40.6919054 77.6433302,41.2879282 76.8696251,42.4709773 Z M86.9277913,54.7985285 C87.017757,54.7985285 87.112221,54.8435113 87.2179307,54.933477 C87.3191422,55.0211936 87.3438827,55.1111593 87.285405,55.201125 C85.3286509,56.9217192 83.1447333,57.7808917 80.7426489,57.7808917 C79.0782833,57.7808917 77.6568251,57.3962883 76.4692777,56.6248323 C75.2817304,55.8533764 74.3910699,54.8300165 73.7995453,53.5547525 C73.2057717,52.2794886 72.9088848,50.914259 72.9088848,49.4568145 C72.9088848,47.7362204 73.3092322,46.1145885 74.109927,44.5851714 C74.912871,43.0580035 76.0172,41.8254733 77.4251634,40.8920791 C78.8353759,39.9586849 80.430018,39.4908632 82.2113391,39.4908632 C83.3966373,39.4908632 84.3255332,39.7045317 84.9912795,40.134118 C85.6592748,40.5659534 85.9943971,41.1529796 85.9943971,41.8929476 C85.9651582,43.1996995 84.9575423,44.3939943 82.967051,45.4780811 C80.9788089,46.5599187 78.5294925,47.3066341 75.6236001,47.7227255 C75.6843269,50.3047413 76.2825989,52.3739526 77.4251634,53.9303594 C78.569977,55.4890153 80.1938581,56.2672187 82.2990556,56.2672187 C83.0705116,56.2672187 83.8577115,56.1502632 84.6584063,55.9118541 C85.4591011,55.6756941 86.1878234,55.3045856 86.8400748,54.7985285 L86.9277913,54.7985285 Z" id="Fill-12" fill="#E29F4C"></path>
                <path d="M58.9873662,82.3966341 C59.2977479,83.5122089 59.7363307,84.5243231 60.2986164,85.4442225 C61.0723215,83.8158431 61.4569249,81.8568398 61.4569249,79.5717108 C61.4569249,77.1673773 60.9531169,75.9685842 59.945501,75.9685842 C59.4394439,75.9685842 59.0750828,76.2722185 58.8524176,76.8817362 C58.6320016,77.4890047 58.5195445,78.2064812 58.5195445,79.038664 C58.5195445,80.1654845 58.6747354,81.2855576 58.9873662,82.3966341 Z M70.0036672,73.0312038 C70.0036672,73.0312038 70.2758134,73.7464312 70.8246043,75.1903808 C71.3733951,76.627583 71.6477905,78.2829521 71.6477905,80.1519897 C71.6477905,82.3179141 71.292426,84.2431802 70.5816969,85.9345356 C69.8687186,87.6258909 68.9555667,88.9326428 67.8444902,89.8525422 C66.7311645,90.7701924 65.5953475,91.2312666 64.4392881,91.2312666 C63.5778665,91.2312666 62.7479328,90.9591204 61.9449889,90.4080804 C61.144294,89.8592896 60.4470598,89.0968302 59.8532861,88.116204 C59.0548405,89.0968302 58.179924,89.8592896 57.2285366,90.4080804 C56.2793984,90.9591204 55.3167653,91.2312666 54.3361391,91.2312666 C52.6740226,91.2312666 51.3537758,90.653237 50.3753988,89.4949285 C49.3970217,88.3411183 48.9089577,86.7959572 48.9089577,84.8661928 C48.9089577,83.9170546 49.0326606,82.9251826 49.2868137,81.8838295 C49.5387177,80.8469748 49.8985805,79.6144445 50.3753988,78.1907372 L50.820729,76.8547464 C50.9106947,76.6208356 50.9534284,76.4274093 50.9534284,76.2789659 C50.9534284,75.9213522 50.7015244,75.7436699 50.1977165,75.7436699 L47.6157006,75.7436699 C46.7565281,75.7436699 46.1267682,75.7976494 45.7241716,75.8988608 C45.3238242,76.0045705 45.035934,76.2114916 44.8560025,76.5218733 C44.6805694,76.832255 44.5298769,77.3473087 44.4106723,78.0557887 C44.4106723,78.1480035 44.3364506,78.1907372 44.1902563,78.1907372 C44.0710517,78.1907372 43.9743386,78.1614984 43.9001169,78.1052698 C43.8258952,78.0422938 43.8056529,77.9703212 43.8326426,77.8803555 C44.1002906,76.485887 44.3454471,75.5007625 44.5681123,74.9204837 C44.7907774,74.342454 45.1393945,73.9511032 45.6139636,73.7396838 C46.0885327,73.5350118 46.8307498,73.4293021 47.8383658,73.4293021 L52.1994535,73.4293021 C52.4963403,73.4293021 52.6672752,73.4607901 52.712258,73.5192678 C52.7549917,73.5777455 52.7347495,73.7261889 52.6447837,73.9645981 C52.1994535,75.5659877 51.8598329,77.1673773 51.6214238,78.771016 C51.3830147,80.3724056 51.2795541,81.7826181 51.3110421,82.9994043 C51.3110421,85.1338408 51.6888981,86.6992441 52.44461,87.6933652 C53.200322,88.6874862 54.1742008,89.1845468 55.359499,89.1845468 C56.9024109,89.1845468 58.2091628,88.4873125 59.2752565,87.0950932 C58.2676405,84.9853973 57.7638326,82.4933472 57.7638326,79.6144445 C57.7638326,77.7476561 57.9775011,76.2114916 58.4093365,75.0126986 C58.8389228,73.8094072 59.4686827,73.2088861 60.2986164,73.2088861 C61.0115946,73.2088861 61.5918734,73.6519672 62.0349546,74.5403786 C62.4802848,75.4310391 62.7029499,76.7985179 62.7029499,78.6360675 C62.7029499,81.575697 62.1091763,84.1554637 60.9216289,86.3798658 C62.2283808,88.1341971 63.681327,89.0046154 65.2849658,89.0046154 C66.1463874,89.0046154 66.9673245,88.73022 67.7545245,88.1836783 C68.5417244,87.6326383 69.1782318,86.8184486 69.6685449,85.7343619 C70.1566089,84.6525242 70.4040146,83.3705129 70.4040146,81.8838295 C70.4040146,80.3724056 70.1723529,79.1938549 69.7135278,78.3459281 C69.2524535,77.5024995 68.6496833,76.7265453 67.9097153,76.0113179 C67.5228628,75.7144311 67.2282251,75.4310391 67.0213039,75.1678894 C66.8121337,74.9002414 66.7086731,74.6011054 66.7086731,74.2772289 C66.7086731,73.8588884 66.8706114,73.5485067 67.1967371,73.3438347 C67.5228628,73.1369135 67.9097153,73.0312038 68.3550456,73.0312038 L70.0036672,73.0312038 Z" id="Fill-14" fill="#E29F4C"></path>
                <path d="M87.5816171,88.3402186 C88.5307553,87.1234324 89.0053245,85.4748108 89.0053245,83.4011012 C89.0053245,81.7952133 88.730929,80.2702946 88.1821382,78.8150992 C87.6310983,77.362153 86.8618914,76.1903497 85.8677704,75.29744 C84.8736493,74.4112778 83.7535762,73.9636984 82.5075512,73.9636984 C81.054605,73.9636984 79.8378188,74.5597212 78.8571925,75.7427703 C77.8810646,76.9325668 77.3907515,78.5631952 77.3907515,80.639154 C77.3907515,82.2113047 77.6718943,83.7317252 78.2364292,85.2004154 C78.7987148,86.6713547 79.5859148,87.8656495 80.5957799,88.7855489 C81.6033958,89.7031991 82.7324654,90.1665225 83.9762414,90.1665225 C85.4291875,90.1665225 86.6324789,89.5570048 87.5816171,88.3402186 M78.6142851,90.1395328 C77.4717206,89.38607 76.5878076,88.3537135 75.964795,87.0469615 C75.3440316,85.7424588 75.0314008,84.2760177 75.0314008,82.6431401 C75.0314008,80.8010922 75.4025093,79.1389758 76.1424773,77.6590399 C76.8846944,76.1746057 77.9148017,75.0117989 79.2350485,74.1638721 C80.5552953,73.3204436 82.0622209,72.8976048 83.7535762,72.8976048 C86.0094664,72.8976048 87.8402685,73.6465693 89.250481,75.1422492 C90.6584443,76.6424274 91.3646752,78.7138878 91.3646752,81.3543813 C91.3646752,83.3696132 90.9643278,85.1329411 90.1613838,86.6488633 C89.360689,88.1625363 88.2923462,89.3118483 86.9586046,90.0945499 C85.6226138,90.8817499 84.1831625,91.277599 82.6402506,91.277599 C81.0973387,91.277599 79.7568496,90.8974939 78.6142851,90.1395328" id="Fill-16" fill="#E29F4C"></path>
                <path d="M106.582825,88.3402186 C107.531963,87.1234324 108.008781,85.4748108 108.008781,83.4011012 C108.008781,81.7952133 107.732136,80.2702946 107.183346,78.8150992 C106.634555,77.362153 105.863099,76.1903497 104.868978,75.29744 C103.874857,74.4112778 102.757033,73.9636984 101.508759,73.9636984 C100.055812,73.9636984 98.8390262,74.5597212 97.8584,75.7427703 C96.882272,76.9325668 96.3919589,78.5631952 96.3919589,80.639154 C96.3919589,82.2113047 96.6731018,83.7317252 97.2376366,85.2004154 C97.7999223,86.6713547 98.5871222,87.8656495 99.5969873,88.7855489 C100.604603,89.7031991 101.733673,90.1665225 102.977449,90.1665225 C104.430395,90.1665225 105.633686,89.5570048 106.582825,88.3402186 M97.6154926,90.1395328 C96.4729281,89.38607 95.589015,88.3537135 94.9682516,87.0469615 C94.3452391,85.7424588 94.0326082,84.2760177 94.0326082,82.6431401 C94.0326082,80.8010922 94.4037168,79.1389758 95.1436847,77.6590399 C95.8859018,76.1746057 96.9182583,75.0117989 98.2385051,74.1638721 C99.5587519,73.3204436 101.065677,72.8976048 102.757033,72.8976048 C105.010674,72.8976048 106.841476,73.6465693 108.251688,75.1422492 C109.659652,76.6424274 110.365883,78.7138878 110.365883,81.3543813 C110.365883,83.3696132 109.965535,85.1329411 109.162591,86.6488633 C108.361896,88.1625363 107.295803,89.3118483 105.959812,90.0945499 C104.623821,90.8817499 103.18437,91.277599 101.643707,91.277599 C100.098546,91.277599 98.7580571,90.8974939 97.6154926,90.1395328" id="Fill-18" fill="#E29F4C"></path>
                <path d="M12.5965487,32.6024138 C12.5965487,33.6662583 11.735127,34.5254308 10.6712825,34.5254308 C9.607438,34.5254308 8.74601634,33.6662583 8.74601634,32.6024138 C8.74601634,31.5385693 9.607438,30.6771476 10.6712825,30.6771476 C11.735127,30.6771476 12.5965487,31.5385693 12.5965487,32.6024138" id="Fill-20" fill="#E29F4C"></path>
                <path d="M121.296716,88.1249756 C120.511765,89.1370899 119.807784,89.926539 119.184771,90.4888246 C119.067816,90.5945343 118.955359,90.6912475 118.845151,90.778964 C118.141169,91.3479972 117.398952,91.6336383 116.618499,91.6336383 C115.779569,91.6336383 115.134065,91.3345023 114.684237,90.7339812 C114.234408,90.1357092 114.025238,89.249547 114.054477,88.0777437 L114.322125,63.3844058 C114.322125,62.6646802 114.218664,62.1338825 114.009494,61.7897637 C113.798074,61.4433957 113.440461,61.2724608 112.929905,61.2724608 C112.41935,61.2724608 111.670385,61.495126 110.680763,61.9449545 L110.590797,61.9899374 C110.500831,61.9899374 110.42436,61.9157157 110.365883,61.7650231 C110.305156,61.6165797 110.336644,61.51087 110.455848,61.4501431 L116.258636,58.6162233 L116.348602,58.6162233 C116.467807,58.6162233 116.580264,58.6612062 116.685974,58.7511719 C116.789434,58.8411376 116.843414,58.9176084 116.843414,58.9783353 L116.618499,87.2253186 C116.618499,88.1249756 116.724209,88.7839745 116.933379,89.202315 C117.14255,89.6251538 117.473174,89.8343241 117.923002,89.8343241 C118.671967,89.8343241 119.616607,89.1438373 120.756922,87.7651128 C120.786161,87.735874 120.831144,87.72013 120.89187,87.72013" id="Fill-22" fill="#E29F4C"></path>
                <g id="Group-26" transform="translate(13.494856, 0.211869)">
                    <mask id="mask-2" fill="white">
                        <use xlink:href="#path-1"></use>
                    </mask>
                    <g id="Clip-25"></g>
                    <path d="M78.7636282,7.92999302 C66.168429,1.63239343 51.3240871,-0.59425785 37.6043166,1.99225627 C23.5021918,4.60126181 10.5246384,12.0009413 1.25817043,22.7518435 C0.515953338,23.4940606 0.515953338,24.6186319 1.61803327,25.360849 C2.36025036,26.1030661 3.48482171,26.1030661 4.22703881,24.9784948 C12.7512897,14.6099469 24.986626,7.54763876 38.3465337,4.60126181 C51.68395,1.63239343 65.7860748,3.47669045 78.0214111,9.41442721 C90.2567475,15.352164 100.647787,25.360849 106.585524,37.5961854 C111.646095,48.0322075 114.007694,59.8177153 112.973089,71.3558174 C112.928106,71.8033968 112.883123,72.2779659 112.815649,72.7502859 C112.748175,73.3575544 112.6807,74.0098058 112.590735,74.6148252 C112.545752,75.02192 112.478277,75.3592915 112.388312,75.80912 C112.343329,76.2139657 112.253363,76.6413028 112.185889,77.0461485 C111.178273,83.1390761 106.506804,88.3930735 106.506804,88.3930735 L105.688116,90.2756059 C111.443672,85.1160725 112.919109,77.3925165 113.308211,74.9094629 L113.418419,74.1447544 C113.418419,74.1402561 113.584856,72.7382905 113.917729,69.9388575 C114.56998,58.850584 112.410803,47.6273618 107.687603,37.5961854 C101.749867,24.9784948 91.3813188,14.2275926 78.7636282,7.92999302 Z" id="Fill-24" fill="#E29F4C" mask="url(#mask-2)"></path>
                </g>
            </g>
        </g>
    </g>
</svg>