<?xml version="1.0" standalone="no"?>
<!DOCTYPE svg PUBLIC "-//W3C//DTD SVG 20010904//EN"
 "http://www.w3.org/TR/2001/REC-SVG-20010904/DTD/svg10.dtd">
<svg version="1.0" xmlns="http://www.w3.org/2000/svg"
 width="80.000000pt" height="80.000000pt" viewBox="0 0 80.000000 80.000000"
 preserveAspectRatio="xMidYMid meet">
<metadata>
Created by potrace 1.11, written by Peter Selinger 2001-2013
</metadata>
<g transform="translate(0.000000,80.000000) scale(0.100000,-0.100000)"
fill="#000000" stroke="none">
<path d="M260 770 c-79 -29 -156 -94 -201 -168 -122 -203 -44 -464 168 -569
53 -26 67 -28 173 -28 105 0 120 2 171 28 88 43 143 98 186 185 36 73 38 80
38 176 0 93 -3 107 -32 168 -39 84 -108 155 -188 193 -52 26 -73 30 -160 33
-81 2 -111 -2 -155 -18z m294 -59 c267 -131 266 -501 -2 -633 -59 -30 -76 -33
-152 -33 -76 0 -93 3 -152 33 -120 59 -188 160 -196 294 -6 94 14 165 67 234
103 137 282 181 435 105z"/>
<path d="M265 682 c-68 -33 -127 -92 -158 -161 -30 -64 -30 -187 -1 -252 72
-155 241 -228 403 -174 64 21 144 92 179 159 23 44 27 63 27 141 0 78 -4 97
-27 141 -34 65 -114 138 -175 158 -77 26 -177 21 -248 -12z m303 -101 c70 -35
88 -102 57 -204 -13 -45 -13 -49 5 -67 49 -49 -48 -137 -138 -126 -23 3 -53
12 -65 21 -21 13 -27 13 -63 -6 -128 -67 -260 65 -181 182 14 21 39 40 65 49
39 15 41 17 26 32 -21 21 -21 61 0 93 36 55 207 71 294 26z"/>
<path d="M323 551 c-55 -34 -39 -81 28 -81 45 0 64 20 55 60 -5 27 -3 30 19
30 14 0 34 -9 46 -21 22 -22 20 -51 -7 -118 -11 -26 -18 -32 -31 -26 -10 4
-49 9 -88 12 -58 4 -75 1 -103 -16 -56 -36 -68 -101 -27 -145 19 -21 33 -26
70 -26 50 0 97 20 115 47 9 14 12 15 17 4 22 -55 115 -71 168 -29 l28 22 -23
8 c-25 9 -25 18 6 130 33 121 -3 161 -149 166 -78 3 -97 0 -124 -17z m115
-203 c-10 -32 -50 -78 -68 -78 -5 0 -17 11 -25 24 -15 22 -15 27 0 55 14 28
20 31 60 31 l44 0 -11 -32z"/>
<path d="M373 335 c-8 -22 6 -33 17 -15 13 20 12 30 0 30 -6 0 -13 -7 -17 -15z"/>
<path d="M440 497 c0 -9 -9 -26 -20 -37 -18 -18 -11 -38 9 -25 12 7 25 64 17
72 -3 4 -6 -1 -6 -10z"/>
</g>
</svg>
