<?xml version="1.0" standalone="no"?>
<!DOCTYPE svg PUBLIC "-//W3C//DTD SVG 20010904//EN"
 "http://www.w3.org/TR/2001/REC-SVG-20010904/DTD/svg10.dtd">
<svg version="1.0" xmlns="http://www.w3.org/2000/svg"
 width="700.000000pt" height="700.000000pt" viewBox="0 0 700.000000 700.000000"
 preserveAspectRatio="xMidYMid meet">
<metadata>
Created by potrace 1.11, written by Peter Selinger 2001-2013
</metadata>
<g transform="translate(0.000000,700.000000) scale(0.100000,-0.100000)"
fill="#000000" stroke="none">
<path d="M3265 6994 c-484 -48 -778 -120 -1160 -283 -794 -340 -1476 -1022
-1816 -1816 -200 -469 -284 -881 -284 -1395 0 -514 84 -926 284 -1395 340
-794 1022 -1476 1816 -1816 469 -200 881 -284 1395 -284 514 0 926 84 1395
284 794 340 1476 1022 1816 1816 200 469 284 881 284 1395 0 514 -84 926 -284
1395 -340 794 -1022 1476 -1816 1816 -326 139 -612 216 -980 265 -104 14 -564
27 -650 18z m238 -1346 c2 -7 91 -227 197 -488 106 -261 404 -1006 662 -1654
258 -649 485 -1211 505 -1249 45 -86 130 -180 181 -200 20 -8 65 -18 99 -22
62 -7 63 -7 57 -33 -4 -15 -9 -30 -11 -34 -2 -5 -238 -8 -524 -8 l-519 0 0 29
c0 26 4 29 56 39 113 23 151 84 141 225 -8 110 -26 167 -171 547 l-123 325
-715 3 -714 2 -67 -202 c-108 -330 -134 -449 -125 -591 7 -100 32 -160 92
-215 66 -61 199 -102 334 -102 51 0 52 0 52 -30 l0 -30 -555 0 -555 0 0 30 c0
27 3 30 30 30 163 0 271 103 415 395 135 275 108 204 791 2069 234 638 427
1163 430 1168 8 12 31 10 37 -4z"/>
<path d="M2985 4119 c-180 -496 -330 -910 -332 -920 -5 -18 14 -19 687 -19
550 0 691 3 687 13 -253 659 -702 1814 -707 1820 -4 4 -154 -398 -335 -894z"/>
</g>
</svg>
